TiroGurmukhi-Italic.ufo
<glyph name="Danda" format="2">
  <advance width="260"/>
  <unicode hex="0964"/>
  <outline>
    <contour>
      <point x="242" y="608" type="line"/>
      <point x="220" y="622"/>
      <point x="185" y="630"/>
      <point x="160" y="630" type="curve"/>
      <point x="40" y="10" type="line"/>
      <point x="62" y="-4"/>
      <point x="97" y="-12"/>
      <point x="122" y="-12" type="curve"/>
    </contour>
  </outline>
</glyph>
<glyph name="DoubleDanda" format="2">
  <advance width="446"/>
  <unicode hex="0965"/>
  <outline>
    <contour>
      <point x="236" y="603" type="line"/>
      <point x="214" y="616"/>
      <point x="180" y="630"/>
      <point x="155" y="630" type="curve"/>
      <point x="36" y="15" type="line"/>
      <point x="58" y="1"/>
      <point x="92" y="-12"/>
      <point x="117" y="-12" type="curve"/>
    </contour>
    <contour>
      <point x="432" y="603" type="line"/>
      <point x="410" y="616"/>
      <point x="376" y="630"/>
      <point x="351" y="630" type="curve"/>
      <point x="232" y="15" type="line"/>
      <point x="254" y="1"/>
      <point x="288" y="-12"/>
      <point x="313" y="-12" type="curve"/>
    </contour>
  </outline>
</glyph>
<glyph name="g.AddakBindi" format="2">
  <unicode hex="0A01"/>
  <outline>
    <contour>
      <point x="137" y="873" type="line"/>
      <point x="91" y="780"/>
      <point x="39" y="759"/>
      <point x="-28" y="759" type="curve" smooth="yes"/>
      <point x="-101" y="759"/>
      <point x="-139" y="804"/>
      <point x="-148" y="871" type="curve"/>
      <point x="-153" y="870" type="line"/>
      <point x="-169" y="842"/>
      <point x="-172" y="816"/>
      <point x="-172" y="798" type="curve" smooth="yes"/>
      <point x="-172" y="729"/>
      <point x="-125" y="675"/>
      <point x="-30" y="675" type="curve" smooth="yes"/>
      <point x="66" y="675"/>
      <point x="145" y="729"/>
      <point x="145" y="844" type="curve" smooth="yes"/>
      <point x="145" y="852"/>
      <point x="145" y="867"/>
      <point x="144" y="874" type="curve"/>
    </contour>
    <contour>
      <point x="-67" y="879" type="curve" smooth="yes"/>
      <point x="-67" y="847"/>
      <point x="-44" y="825"/>
      <point x="-13" y="825" type="curve" smooth="yes"/>
      <point x="24" y="825"/>
      <point x="56" y="856"/>
      <point x="56" y="895" type="curve" smooth="yes"/>
      <point x="56" y="923"/>
      <point x="39" y="947"/>
      <point x="4" y="947" type="curve" smooth="yes"/>
      <point x="-36" y="947"/>
      <point x="-67" y="916"/>
    </contour>
  </outline>
</glyph>
<glyph name="g.Bindi" format="2">
  <unicode hex="0A02"/>
  <outline>
    <contour>
      <point x="-92" y="724" type="curve" smooth="yes"/>
      <point x="-92" y="692"/>
      <point x="-69" y="670"/>
      <point x="-38" y="670" type="curve" smooth="yes"/>
      <point x="-1" y="670"/>
      <point x="31" y="701"/>
      <point x="31" y="740" type="curve" smooth="yes"/>
      <point x="31" y="768"/>
      <point x="14" y="792"/>
      <point x="-21" y="792" type="curve" smooth="yes"/>
      <point x="-61" y="792"/>
      <point x="-92" y="761"/>
    </contour>
  </outline>
</glyph>
<glyph name="g.Visarga" format="2">
  <advance width="413"/>
  <unicode hex="0A03"/>
  <outline>
    <contour>
      <point x="65" y="115" type="curve" smooth="yes"/>
      <point x="65" y="52"/>
      <point x="111" y="9"/>
      <point x="175" y="9" type="curve" smooth="yes"/>
      <point x="250" y="9"/>
      <point x="310" y="69"/>
      <point x="310" y="142" type="curve" smooth="yes"/>
      <point x="310" y="205"/>
      <point x="264" y="249"/>
      <point x="200" y="249" type="curve" smooth="yes"/>
      <point x="125" y="249"/>
      <point x="65" y="188"/>
    </contour>
    <contour>
      <point x="250" y="140" type="curve" smooth="yes"/>
      <point x="250" y="102"/>
      <point x="219" y="69"/>
      <point x="178" y="69" type="curve" smooth="yes"/>
      <point x="149" y="69"/>
      <point x="126" y="86"/>
      <point x="126" y="119" type="curve" smooth="yes"/>
      <point x="126" y="157"/>
      <point x="155" y="191"/>
      <point x="196" y="191" type="curve" smooth="yes"/>
      <point x="226" y="191"/>
      <point x="250" y="173"/>
    </contour>
    <contour>
      <point x="123" y="416" type="curve" smooth="yes"/>
      <point x="123" y="352"/>
      <point x="169" y="309"/>
      <point x="233" y="309" type="curve" smooth="yes"/>
      <point x="308" y="309"/>
      <point x="369" y="369"/>
      <point x="369" y="441" type="curve" smooth="yes"/>
      <point x="369" y="505"/>
      <point x="322" y="549"/>
      <point x="258" y="549" type="curve" smooth="yes"/>
      <point x="184" y="549"/>
      <point x="123" y="489"/>
    </contour>
    <contour>
      <point x="308" y="438" type="curve" smooth="yes"/>
      <point x="308" y="400"/>
      <point x="277" y="367"/>
      <point x="236" y="367" type="curve" smooth="yes"/>
      <point x="207" y="367"/>
      <point x="184" y="384"/>
      <point x="184" y="417" type="curve" smooth="yes"/>
      <point x="184" y="455"/>
      <point x="213" y="489"/>
      <point x="254" y="489" type="curve" smooth="yes"/>
      <point x="284" y="489"/>
      <point x="308" y="471"/>
    </contour>
  </outline>
  <guideline angle="0" x="0" y="128"/>
  <guideline angle="90" x="210" y="0"/>
</glyph>
<glyph name="g.A" format="2">
  <advance width="741"/>
  <unicode hex="0A05"/>
  <outline>
    <contour>
      <point x="418" y="234" type="line"/>
      <point x="488" y="277"/>
      <point x="539" y="305"/>
      <point x="606" y="320" type="curve"/>
      <point x="623" y="406" type="line"/>
      <point x="471" y="367"/>
      <point x="257" y="234"/>
      <point x="257" y="120" type="curve" smooth="yes"/>
      <point x="257" y="90"/>
      <point x="275" y="68"/>
      <point x="303" y="68" type="curve" smooth="yes"/>
      <point x="375" y="68"/>
      <point x="464" y="196"/>
      <point x="464" y="435" type="curve" smooth="yes"/>
      <point x="464" y="462"/>
      <point x="462" y="527"/>
      <point x="455" y="561" type="curve"/>
      <point x="449" y="563" type="line"/>
      <point x="314" y="497"/>
      <point x="45" y="320"/>
      <point x="45" y="208" type="curve" smooth="yes"/>
      <point x="45" y="178"/>
      <point x="58" y="157"/>
      <point x="93" y="157" type="curve" smooth="yes"/>
      <point x="152" y="157"/>
      <point x="246" y="252"/>
      <point x="246" y="442" type="curve" smooth="yes"/>
      <point x="246" y="491"/>
      <point x="242" y="559"/>
      <point x="224" y="620" type="curve"/>
      <point x="47" y="620" type="line"/>
      <point x="47" y="594"/>
      <point x="50" y="567"/>
      <point x="57" y="542" type="curve"/>
      <point x="156" y="542" type="line"/>
      <point x="161" y="514"/>
      <point x="166" y="481"/>
      <point x="166" y="439" type="curve" smooth="yes"/>
      <point x="166" y="406"/>
      <point x="163" y="368"/>
      <point x="156" y="323" type="curve"/>
      <point x="213" y="321" type="line"/>
      <point x="275" y="378"/>
      <point x="333" y="417"/>
      <point x="385" y="441" type="curve"/>
      <point x="385" y="430"/>
      <point x="386" y="418"/>
      <point x="386" y="407" type="curve" smooth="yes"/>
      <point x="386" y="356"/>
      <point x="380" y="306"/>
      <point x="368" y="259" type="curve"/>
    </contour>
    <contour>
      <point x="715" y="542" type="line"/>
      <point x="813" y="542" type="line"/>
      <point x="813" y="569"/>
      <point x="810" y="596"/>
      <point x="803" y="620" type="curve"/>
      <point x="644" y="620" type="line"/>
      <point x="526" y="10" type="line"/>
      <point x="548" y="-4"/>
      <point x="583" y="-12"/>
      <point x="608" y="-12" type="curve"/>
    </contour>
  </outline>
  <guideline angle="0" x="0" y="68"/>
  <guideline angle="0" x="0" y="157"/>
</glyph>
<glyph name="g.Oo" format="2">
  <advance width="644"/>
  <unicode hex="0A13"/>
  <outline>
    <contour>
      <point x="330" y="-15" type="curve" smooth="yes"/>
      <point x="454" y="-15"/>
      <point x="513" y="75"/>
      <point x="513" y="160" type="curve" smooth="yes"/>
      <point x="513" y="215"/>
      <point x="486" y="271"/>
      <point x="453" y="306" type="curve"/>
      <point x="373" y="291" type="line"/>
      <point x="409" y="262"/>
      <point x="429" y="208"/>
      <point x="429" y="165" type="curve" smooth="yes"/>
      <point x="429" y="103"/>
      <point x="389" y="62"/>
      <point x="326" y="62" type="curve" smooth="yes"/>
      <point x="210" y="62"/>
      <point x="170" y="213"/>
      <point x="170" y="367" type="curve" smooth="yes"/>
      <point x="170" y="618"/>
      <point x="240" y="724"/>
      <point x="306" y="770" type="curve" smooth="yes"/>
      <point x="345" y="798"/>
      <point x="398" y="813"/>
      <point x="504" y="813" type="curve" smooth="yes"/>
      <point x="563" y="813"/>
      <point x="608" y="808"/>
      <point x="661" y="802" type="curve"/>
      <point x="665" y="831"/>
      <point x="665" y="855"/>
      <point x="661" y="879" type="curve"/>
      <point x="613" y="886"/>
      <point x="564" y="890"/>
      <point x="515" y="890" type="curve" smooth="yes"/>
      <point x="401" y="890"/>
      <point x="336" y="881"/>
      <point x="275" y="846" type="curve" smooth="yes"/>
      <point x="148" y="773"/>
      <point x="90" y="577"/>
      <point x="90" y="397" type="curve" smooth="yes"/>
      <point x="90" y="183"/>
      <point x="167" y="-15"/>
    </contour>
    <contour>
      <point x="334" y="276" type="curve" smooth="yes"/>
      <point x="514" y="276"/>
      <point x="615" y="356"/>
      <point x="642" y="524" type="curve" smooth="yes"/>
      <point x="648" y="562" type="line"/>
      <point x="567" y="562" type="line"/>
      <point x="547" y="428"/>
      <point x="500" y="350"/>
      <point x="338" y="350" type="curve" smooth="yes"/>
      <point x="294" y="350"/>
      <point x="256" y="351"/>
      <point x="146" y="358" type="curve"/>
      <point x="150" y="285" type="line"/>
      <point x="244" y="277"/>
      <point x="297" y="276"/>
    </contour>
    <contour>
      <point x="716" y="542" type="line"/>
      <point x="716" y="569"/>
      <point x="713" y="596"/>
      <point x="706" y="620" type="curve"/>
      <point x="47" y="620" type="line"/>
      <point x="47" y="594"/>
      <point x="50" y="567"/>
      <point x="57" y="542" type="curve"/>
    </contour>
  </outline>
</glyph>
<glyph name="g.Ka" format="2">
  <advance width="647"/>
  <unicode hex="0A15"/>
  <outline>
    <contour>
      <point x="248" y="80" type="curve" smooth="yes"/>
      <point x="414" y="80"/>
      <point x="603" y="279"/>
      <point x="632" y="562" type="curve"/>
      <point x="547" y="562" type="line"/>
      <point x="529" y="380"/>
      <point x="398" y="158"/>
      <point x="230" y="158" type="curve" smooth="yes"/>
      <point x="174" y="158"/>
      <point x="138" y="190"/>
      <point x="138" y="241" type="curve" smooth="yes"/>
      <point x="138" y="304"/>
      <point x="189" y="356"/>
      <point x="260" y="356" type="curve" smooth="yes"/>
      <point x="340" y="356"/>
      <point x="387" y="295"/>
      <point x="402" y="225" type="curve"/>
      <point x="467" y="304" type="line"/>
      <point x="449" y="304" type="line"/>
      <point x="408" y="382"/>
      <point x="333" y="431"/>
      <point x="251" y="431" type="curve" smooth="yes"/>
      <point x="142" y="431"/>
      <point x="60" y="360"/>
      <point x="60" y="257" type="curve" smooth="yes"/>
      <point x="60" y="159"/>
      <point x="135" y="80"/>
    </contour>
    <contour>
      <point x="501" y="-17" type="curve"/>
      <point x="502" y="-1"/>
      <point x="502" y="14"/>
      <point x="502" y="31" type="curve" smooth="yes"/>
      <point x="502" y="99"/>
      <point x="497" y="173"/>
      <point x="476" y="239" type="curve"/>
      <point x="398" y="149" type="line"/>
      <point x="416" y="149" type="line"/>
      <point x="421" y="130"/>
      <point x="423" y="98"/>
      <point x="423" y="64" type="curve" smooth="yes"/>
      <point x="423" y="44"/>
      <point x="422" y="24"/>
      <point x="420" y="5" type="curve"/>
      <point x="445" y="-9"/>
      <point x="476" y="-17"/>
    </contour>
    <contour>
      <point x="719" y="542" type="line"/>
      <point x="719" y="569"/>
      <point x="716" y="596"/>
      <point x="709" y="620" type="curve"/>
      <point x="47" y="620" type="line"/>
      <point x="47" y="594"/>
      <point x="50" y="567"/>
      <point x="57" y="542" type="curve"/>
    </contour>
  </outline>
</glyph>
<glyph name="g.Kha" format="2">
  <advance width="578"/>
  <unicode hex="0A16"/>
  <outline>
    <contour>
      <point x="192" y="355" type="line"/>
      <point x="231" y="357"/>
      <point x="309" y="359"/>
      <point x="367" y="359" type="curve" smooth="yes"/>
      <point x="451" y="359" type="line"/>
      <point x="465" y="432" type="line"/>
      <point x="378" y="432" type="line" smooth="yes"/>
      <point x="302" y="432"/>
      <point x="252" y="430"/>
      <point x="206" y="428" type="curve"/>
    </contour>
    <contour>
      <point x="262" y="107" type="curve" smooth="yes"/>
      <point x="314" y="107"/>
      <point x="381" y="136"/>
      <point x="415" y="161" type="curve"/>
      <point x="436" y="267" type="line"/>
      <point x="396" y="231"/>
      <point x="322" y="187"/>
      <point x="259" y="187" type="curve" smooth="yes"/>
      <point x="206" y="187"/>
      <point x="175" y="205"/>
      <point x="146" y="248" type="curve"/>
      <point x="214" y="328"/>
      <point x="232" y="392"/>
      <point x="232" y="474" type="curve" smooth="yes"/>
      <point x="232" y="523"/>
      <point x="224" y="583"/>
      <point x="214" y="620" type="curve"/>
      <point x="47" y="620" type="line"/>
      <point x="47" y="594"/>
      <point x="50" y="567"/>
      <point x="57" y="542" type="curve"/>
      <point x="145" y="542" type="line"/>
      <point x="152" y="518"/>
      <point x="155" y="490"/>
      <point x="154" y="464" type="curve" smooth="yes"/>
      <point x="151" y="388"/>
      <point x="120" y="340"/>
      <point x="53" y="264" type="curve"/>
      <point x="99" y="183"/>
      <point x="174" y="107"/>
    </contour>
    <contour>
      <point x="553" y="542" type="line"/>
      <point x="650" y="542" type="line"/>
      <point x="650" y="569"/>
      <point x="647" y="596"/>
      <point x="640" y="620" type="curve"/>
      <point x="482" y="620" type="line"/>
      <point x="363" y="10" type="line"/>
      <point x="385" y="-4"/>
      <point x="420" y="-12"/>
      <point x="445" y="-12" type="curve"/>
    </contour>
  </outline>
</glyph>
<glyph name="g.Ga" format="2">
  <advance width="734"/>
  <unicode hex="0A17"/>
  <outline>
    <contour>
      <point x="296" y="-15" type="curve" smooth="yes"/>
      <point x="376" y="-15"/>
      <point x="416" y="37"/>
      <point x="438" y="154" type="curve" smooth="yes"/>
      <point x="463" y="284"/>
      <point x="491" y="430"/>
      <point x="515" y="562" type="curve"/>
      <point x="432" y="562" type="line"/>
      <point x="417" y="485"/>
      <point x="405" y="417"/>
      <point x="397" y="375" type="curve" smooth="yes"/>
      <point x="389" y="334"/>
      <point x="395" y="366"/>
      <point x="358" y="174" type="curve" smooth="yes"/>
      <point x="341" y="87"/>
      <point x="323" y="62"/>
      <point x="280" y="62" type="curve" smooth="yes"/>
      <point x="213" y="62"/>
      <point x="145" y="125"/>
      <point x="145" y="237" type="curve" smooth="yes"/>
      <point x="145" y="304"/>
      <point x="168" y="331"/>
      <point x="272" y="331" type="curve" smooth="yes"/>
      <point x="349" y="331"/>
      <point x="374" y="330"/>
      <point x="405" y="328" type="curve"/>
      <point x="423" y="401" type="line"/>
      <point x="378" y="403"/>
      <point x="365" y="405"/>
      <point x="242" y="405" type="curve" smooth="yes"/>
      <point x="140" y="405"/>
      <point x="65" y="376"/>
      <point x="65" y="265" type="curve" smooth="yes"/>
      <point x="65" y="129"/>
      <point x="159" y="-15"/>
    </contour>
    <contour>
      <point x="712" y="562" type="line"/>
      <point x="626" y="562" type="line"/>
      <point x="519" y="10" type="line"/>
      <point x="541" y="-4"/>
      <point x="576" y="-12"/>
      <point x="601" y="-12" type="curve"/>
    </contour>
    <contour>
      <point x="806" y="542" type="line"/>
      <point x="806" y="569"/>
      <point x="803" y="596"/>
      <point x="796" y="620" type="curve"/>
      <point x="47" y="620" type="line"/>
      <point x="47" y="594"/>
      <point x="50" y="567"/>
      <point x="57" y="542" type="curve"/>
    </contour>
  </outline>
</glyph>
<glyph name="g.Gha" format="2">
  <advance width="714"/>
  <unicode hex="0A18"/>
  <outline>
    <contour>
      <point x="226" y="110" type="curve" smooth="yes"/>
      <point x="277" y="110"/>
      <point x="334" y="142"/>
      <point x="379" y="237" type="curve" smooth="yes"/>
      <point x="415" y="313"/>
      <point x="472" y="411"/>
      <point x="472" y="527" type="curve" smooth="yes"/>
      <point x="472" y="564"/>
      <point x="463" y="603"/>
      <point x="427" y="603" type="curve" smooth="yes"/>
      <point x="367" y="603"/>
      <point x="334" y="477"/>
      <point x="334" y="345" type="curve" smooth="yes"/>
      <point x="334" y="333"/>
      <point x="334" y="290"/>
      <point x="335" y="277" type="curve"/>
      <point x="294" y="215"/>
      <point x="263" y="188"/>
      <point x="228" y="188" type="curve" smooth="yes"/>
      <point x="195" y="188"/>
      <point x="164" y="203"/>
      <point x="146" y="233" type="curve"/>
      <point x="222" y="327"/>
      <point x="244" y="406"/>
      <point x="244" y="499" type="curve" smooth="yes"/>
      <point x="244" y="538"/>
      <point x="239" y="586"/>
      <point x="231" y="620" type="curve"/>
      <point x="47" y="620" type="line"/>
      <point x="47" y="594"/>
      <point x="50" y="567"/>
      <point x="57" y="542" type="curve"/>
      <point x="165" y="542" type="line"/>
      <point x="167" y="528"/>
      <point x="168" y="506"/>
      <point x="168" y="492" type="curve" smooth="yes"/>
      <point x="168" y="412"/>
      <point x="136" y="348"/>
      <point x="56" y="255" type="curve"/>
      <point x="98" y="172"/>
      <point x="168" y="110"/>
    </contour>
    <contour>
      <point x="440" y="110" type="curve" smooth="yes"/>
      <point x="472" y="110"/>
      <point x="512" y="122"/>
      <point x="548" y="159" type="curve"/>
      <point x="569" y="271" type="line"/>
      <point x="527" y="214"/>
      <point x="482" y="189"/>
      <point x="450" y="189" type="curve" smooth="yes"/>
      <point x="421" y="189"/>
      <point x="390" y="211"/>
      <point x="386" y="289" type="curve"/>
      <point x="335" y="185" type="line"/>
      <point x="353" y="185" type="line"/>
      <point x="365" y="143"/>
      <point x="394" y="110"/>
    </contour>
    <contour>
      <point x="689" y="542" type="line"/>
      <point x="786" y="542" type="line"/>
      <point x="786" y="569"/>
      <point x="783" y="596"/>
      <point x="776" y="620" type="curve"/>
      <point x="618" y="620" type="line"/>
      <point x="499" y="10" type="line"/>
      <point x="521" y="-4"/>
      <point x="556" y="-12"/>
      <point x="581" y="-12" type="curve"/>
    </contour>
  </outline>
</glyph>
<glyph name="g.Nga" format="2">
  <advance width="606"/>
  <unicode hex="0A19"/>
  <outline>
    <contour>
      <point x="224" y="-15" type="curve" smooth="yes"/>
      <point x="379" y="-15"/>
      <point x="548" y="132"/>
      <point x="548" y="293" type="curve" smooth="yes"/>
      <point x="548" y="403"/>
      <point x="472" y="433"/>
      <point x="364" y="433" type="curve" smooth="yes"/>
      <point x="270" y="433"/>
      <point x="228" y="433"/>
      <point x="204" y="432" type="curve"/>
      <point x="205" y="437"/>
      <point x="222" y="526"/>
      <point x="230" y="556" type="curve"/>
      <point x="143" y="556" type="line"/>
      <point x="104" y="360" type="line"/>
      <point x="109" y="354" type="line"/>
      <point x="148" y="356"/>
      <point x="216" y="357"/>
      <point x="369" y="357" type="curve" smooth="yes"/>
      <point x="445" y="357"/>
      <point x="474" y="341"/>
      <point x="474" y="293" type="curve" smooth="yes"/>
      <point x="474" y="181"/>
      <point x="333" y="62"/>
      <point x="214" y="62" type="curve" smooth="yes"/>
      <point x="174" y="62"/>
      <point x="132" y="78"/>
      <point x="132" y="124" type="curve" smooth="yes"/>
      <point x="132" y="167"/>
      <point x="178" y="196"/>
      <point x="235" y="196" type="curve" smooth="yes"/>
      <point x="348" y="196"/>
      <point x="410" y="105"/>
      <point x="437" y="-1" type="curve"/>
      <point x="459" y="-15"/>
      <point x="493" y="-22"/>
      <point x="524" y="-22" type="curve"/>
      <point x="511" y="42"/>
      <point x="460" y="144"/>
      <point x="435" y="172" type="curve" smooth="yes"/>
      <point x="387" y="226"/>
      <point x="330" y="271"/>
      <point x="231" y="271" type="curve" smooth="yes"/>
      <point x="126" y="271"/>
      <point x="60" y="208"/>
      <point x="60" y="129" type="curve" smooth="yes"/>
      <point x="60" y="40"/>
      <point x="131" y="-15"/>
    </contour>
    <contour>
      <point x="678" y="542" type="line"/>
      <point x="678" y="569"/>
      <point x="675" y="596"/>
      <point x="668" y="620" type="curve"/>
      <point x="47" y="620" type="line"/>
      <point x="47" y="594"/>
      <point x="50" y="567"/>
      <point x="57" y="542" type="curve"/>
    </contour>
  </outline>
</glyph>
<glyph name="g.Ca" format="2">
  <advance width="609"/>
  <unicode hex="0A1A"/>
  <outline>
    <contour>
      <point x="681" y="542" type="line"/>
      <point x="681" y="569"/>
      <point x="678" y="596"/>
      <point x="671" y="620" type="curve"/>
      <point x="47" y="620" type="line"/>
      <point x="47" y="594"/>
      <point x="50" y="567"/>
      <point x="57" y="542" type="curve"/>
    </contour>
    <contour>
      <point x="140" y="268" type="curve" smooth="yes"/>
      <point x="244" y="268"/>
      <point x="324" y="267"/>
      <point x="382" y="267" type="curve" smooth="yes"/>
      <point x="406" y="267"/>
      <point x="437" y="268"/>
      <point x="467" y="268" type="curve"/>
      <point x="482" y="344" type="line"/>
      <point x="458" y="344"/>
      <point x="405" y="343"/>
      <point x="360" y="343" type="curve" smooth="yes"/>
      <point x="312" y="343"/>
      <point x="262" y="343"/>
      <point x="155" y="346" type="curve"/>
      <point x="143" y="285" type="line" smooth="yes"/>
      <point x="111" y="121"/>
      <point x="198" y="-15"/>
      <point x="352" y="-15" type="curve" smooth="yes"/>
      <point x="447" y="-15"/>
      <point x="487" y="37"/>
      <point x="508" y="147" type="curve" smooth="yes"/>
      <point x="532" y="270"/>
      <point x="561" y="430"/>
      <point x="585" y="562" type="curve"/>
      <point x="502" y="562" type="line"/>
      <point x="485" y="472"/>
      <point x="473" y="402"/>
      <point x="458" y="324" type="curve" smooth="yes"/>
      <point x="427" y="165" type="line" smooth="yes"/>
      <point x="412" y="90"/>
      <point x="397" y="62"/>
      <point x="338" y="62" type="curve" smooth="yes"/>
      <point x="264" y="62"/>
      <point x="213" y="110"/>
      <point x="213" y="200" type="curve" smooth="yes"/>
      <point x="213" y="227"/>
      <point x="220" y="272"/>
      <point x="228" y="300" type="curve"/>
      <point x="235" y="319" type="line"/>
      <point x="244" y="353"/>
      <point x="254" y="385"/>
      <point x="254" y="404" type="curve" smooth="yes"/>
      <point x="254" y="428"/>
      <point x="245" y="440"/>
      <point x="224" y="440" type="curve" smooth="yes"/>
      <point x="162" y="440"/>
      <point x="56" y="344"/>
      <point x="56" y="296" type="curve" smooth="yes"/>
      <point x="56" y="269"/>
      <point x="88" y="268"/>
    </contour>
  </outline>
  <guideline angle="90" x="226" y="0"/>
</glyph>
<glyph name="g.Cha" format="2">
  <advance width="640"/>
  <unicode hex="0A1B"/>
  <outline>
    <contour>
      <point x="209" y="245" type="line"/>
      <point x="188" y="257"/>
      <point x="173" y="284"/>
      <point x="173" y="304" type="curve" smooth="yes"/>
      <point x="173" y="354"/>
      <point x="233" y="359"/>
      <point x="298" y="359" type="curve" smooth="yes"/>
      <point x="434" y="359"/>
      <point x="481" y="358"/>
      <point x="574" y="358" type="curve"/>
      <point x="580" y="361" type="line"/>
      <point x="581" y="365"/>
      <point x="607" y="504"/>
      <point x="619" y="568" type="curve"/>
      <point x="533" y="568" type="line"/>
      <point x="527" y="527"/>
      <point x="510" y="435"/>
      <point x="509" y="432" type="curve"/>
      <point x="453" y="432"/>
      <point x="381" y="434"/>
      <point x="261" y="434" type="curve" smooth="yes"/>
      <point x="170" y="434"/>
      <point x="94" y="411"/>
      <point x="94" y="324" type="curve" smooth="yes"/>
      <point x="94" y="282"/>
      <point x="118" y="244"/>
      <point x="155" y="223" type="curve"/>
    </contour>
    <contour>
      <point x="262" y="60" type="curve" smooth="yes"/>
      <point x="174" y="60"/>
      <point x="119" y="78"/>
      <point x="119" y="117" type="curve" smooth="yes"/>
      <point x="119" y="169"/>
      <point x="204" y="200"/>
      <point x="323" y="200" type="curve" smooth="yes"/>
      <point x="413" y="200"/>
      <point x="478" y="186"/>
      <point x="478" y="145" type="curve" smooth="yes"/>
      <point x="478" y="98"/>
      <point x="414" y="60"/>
    </contour>
    <contour>
      <point x="712" y="542" type="line"/>
      <point x="712" y="569"/>
      <point x="709" y="596"/>
      <point x="702" y="620" type="curve"/>
      <point x="47" y="620" type="line"/>
      <point x="47" y="594"/>
      <point x="50" y="567"/>
      <point x="57" y="542" type="curve"/>
    </contour>
    <contour>
      <point x="316" y="273" type="curve" smooth="yes"/>
      <point x="188" y="273"/>
      <point x="44" y="228"/>
      <point x="44" y="119" type="curve" smooth="yes"/>
      <point x="44" y="42"/>
      <point x="139" y="-15"/>
      <point x="277" y="-15" type="curve" smooth="yes"/>
      <point x="464" y="-15"/>
      <point x="552" y="55"/>
      <point x="552" y="141" type="curve" smooth="yes"/>
      <point x="552" y="231"/>
      <point x="445" y="273"/>
    </contour>
    <contour>
      <point x="314" y="40" type="line"/>
      <point x="325" y="102"/>
      <point x="335" y="160"/>
      <point x="347" y="220" type="curve"/>
      <point x="276" y="220" type="line"/>
      <point x="264" y="156"/>
      <point x="254" y="99"/>
      <point x="243" y="40" type="curve"/>
    </contour>
  </outline>
</glyph>
<glyph name="g.Ja" format="2">
  <advance width="604"/>
  <unicode hex="0A1C"/>
  <outline>
    <contour>
      <point x="177" y="-11" type="curve"/>
      <point x="211" y="153"/>
      <point x="250" y="329"/>
      <point x="250" y="384" type="curve" smooth="yes"/>
      <point x="250" y="412"/>
      <point x="242" y="423"/>
      <point x="226" y="423" type="curve" smooth="yes"/>
      <point x="166" y="423"/>
      <point x="49" y="323"/>
      <point x="49" y="259" type="curve" smooth="yes"/>
      <point x="49" y="226"/>
      <point x="88" y="227"/>
      <point x="140" y="227" type="curve" smooth="yes"/>
      <point x="205" y="227" type="line" smooth="yes"/>
      <point x="299" y="227"/>
      <point x="397" y="227"/>
      <point x="491" y="228" type="curve"/>
      <point x="506" y="305" type="line"/>
      <point x="384" y="303"/>
      <point x="314" y="303"/>
      <point x="220" y="303" type="curve"/>
      <point x="147" y="248" type="line"/>
      <point x="136" y="185"/>
      <point x="114" y="89"/>
      <point x="95" y="10" type="curve"/>
      <point x="117" y="-4"/>
      <point x="154" y="-11"/>
    </contour>
    <contour>
      <point x="582" y="562" type="line"/>
      <point x="496" y="562" type="line"/>
      <point x="389" y="10" type="line"/>
      <point x="411" y="-4"/>
      <point x="446" y="-12"/>
      <point x="471" y="-12" type="curve"/>
    </contour>
    <contour>
      <point x="676" y="542" type="line"/>
      <point x="676" y="569"/>
      <point x="673" y="596"/>
      <point x="666" y="620" type="curve"/>
      <point x="47" y="620" type="line"/>
      <point x="47" y="594"/>
      <point x="50" y="567"/>
      <point x="57" y="542" type="curve"/>
    </contour>
  </outline>
</glyph>
<glyph name="g.Jha" format="2">
  <advance width="563"/>
  <unicode hex="0A1D"/>
  <outline>
    <contour>
      <point x="373" y="-22" type="curve"/>
      <point x="363" y="19"/>
      <point x="341" y="62"/>
      <point x="305" y="116" type="curve" smooth="yes"/>
      <point x="265" y="176"/>
      <point x="214" y="204"/>
      <point x="169" y="204" type="curve" smooth="yes"/>
      <point x="131" y="204"/>
      <point x="93" y="185"/>
      <point x="93" y="145" type="curve" smooth="yes"/>
      <point x="93" y="103"/>
      <point x="134" y="70"/>
      <point x="238" y="70" type="curve" smooth="yes"/>
      <point x="345" y="70"/>
      <point x="489" y="111"/>
      <point x="489" y="240" type="curve" smooth="yes"/>
      <point x="489" y="295"/>
      <point x="459" y="331"/>
      <point x="408" y="347" type="curve"/>
      <point x="409" y="355" type="line"/>
      <point x="190" y="390" type="line"/>
      <point x="183" y="380" type="line"/>
      <point x="158" y="380"/>
      <point x="122" y="379"/>
      <point x="86" y="378" type="curve"/>
      <point x="80" y="351"/>
      <point x="80" y="325"/>
      <point x="86" y="302" type="curve"/>
      <point x="145" y="304"/>
      <point x="208" y="305"/>
      <point x="283" y="305" type="curve" smooth="yes"/>
      <point x="365" y="305"/>
      <point x="412" y="292"/>
      <point x="412" y="243" type="curve" smooth="yes"/>
      <point x="412" y="193"/>
      <point x="356" y="149"/>
      <point x="260" y="148" type="curve"/>
      <point x="242" y="86" type="line"/>
      <point x="259" y="60"/>
      <point x="274" y="31"/>
      <point x="286" y="-2" type="curve"/>
      <point x="308" y="-15"/>
      <point x="342" y="-22"/>
    </contour>
    <contour>
      <point x="300" y="325" type="curve" smooth="yes"/>
      <point x="448" y="325"/>
      <point x="522" y="447"/>
      <point x="554" y="562" type="curve"/>
      <point x="467" y="562" type="line"/>
      <point x="447" y="461"/>
      <point x="343" y="383"/>
      <point x="304" y="383" type="curve" smooth="yes"/>
      <point x="268" y="383"/>
      <point x="203" y="438"/>
      <point x="220" y="562" type="curve"/>
      <point x="129" y="562" type="line"/>
      <point x="131" y="449"/>
      <point x="181" y="325"/>
    </contour>
    <contour>
      <point x="635" y="542" type="line"/>
      <point x="635" y="569"/>
      <point x="632" y="596"/>
      <point x="625" y="620" type="curve"/>
      <point x="47" y="620" type="line"/>
      <point x="47" y="594"/>
      <point x="50" y="567"/>
      <point x="57" y="542" type="curve"/>
    </contour>
  </outline>
</glyph>
<glyph name="g.Nya" format="2">
  <advance width="593"/>
  <unicode hex="0A1E"/>
  <outline>
    <contour>
      <point x="362" y="248" type="line"/>
      <point x="318" y="243"/>
      <point x="308" y="243"/>
      <point x="293" y="243" type="curve" smooth="yes"/>
      <point x="199" y="243"/>
      <point x="150" y="254"/>
      <point x="150" y="296" type="curve" smooth="yes"/>
      <point x="150" y="341"/>
      <point x="196" y="354"/>
      <point x="313" y="354" type="curve" smooth="yes"/>
      <point x="379" y="354"/>
      <point x="483" y="352"/>
      <point x="516" y="351" type="curve"/>
      <point x="523" y="354" type="line"/>
      <point x="524" y="358"/>
      <point x="554" y="521"/>
      <point x="561" y="562" type="curve"/>
      <point x="475" y="562" type="line"/>
      <point x="473" y="545"/>
      <point x="452" y="429"/>
      <point x="451" y="426" type="curve"/>
      <point x="441" y="426"/>
      <point x="407" y="427"/>
      <point x="312" y="427" type="curve" smooth="yes"/>
      <point x="161" y="427"/>
      <point x="72" y="405"/>
      <point x="72" y="304" type="curve" smooth="yes"/>
      <point x="72" y="243"/>
      <point x="124" y="193"/>
      <point x="221" y="180" type="curve"/>
    </contour>
    <contour>
      <point x="368" y="-15" type="curve" smooth="yes"/>
      <point x="423" y="-15"/>
      <point x="458" y="-6"/>
      <point x="485" y="3" type="curve"/>
      <point x="497" y="21"/>
      <point x="514" y="65"/>
      <point x="519" y="87" type="curve"/>
      <point x="516" y="88" type="line"/>
      <point x="463" y="66"/>
      <point x="402" y="57"/>
      <point x="359" y="57" type="curve" smooth="yes"/>
      <point x="289" y="57"/>
      <point x="239" y="69"/>
      <point x="239" y="107" type="curve" smooth="yes"/>
      <point x="239" y="145"/>
      <point x="280" y="163"/>
      <point x="313" y="172" type="curve"/>
      <point x="336" y="170"/>
      <point x="359" y="169"/>
      <point x="393" y="169" type="curve" smooth="yes"/>
      <point x="448" y="169"/>
      <point x="508" y="179"/>
      <point x="508" y="220" type="curve" smooth="yes"/>
      <point x="508" y="251"/>
      <point x="470" y="259"/>
      <point x="426" y="259" type="curve" smooth="yes"/>
      <point x="369" y="259"/>
      <point x="160" y="227"/>
      <point x="160" y="108" type="curve" smooth="yes"/>
      <point x="160" y="30"/>
      <point x="259" y="-15"/>
    </contour>
    <contour>
      <point x="243" y="416" type="line"/>
      <point x="208" y="436"/>
      <point x="191" y="470"/>
      <point x="191" y="517" type="curve" smooth="yes"/>
      <point x="191" y="531"/>
      <point x="192" y="546"/>
      <point x="195" y="562" type="curve"/>
      <point x="110" y="562" type="line"/>
      <point x="107" y="546"/>
      <point x="106" y="531"/>
      <point x="106" y="517" type="curve" smooth="yes"/>
      <point x="106" y="470"/>
      <point x="122" y="432"/>
      <point x="152" y="409" type="curve"/>
      <point x="148" y="391" type="line"/>
    </contour>
    <contour>
      <point x="665" y="542" type="line"/>
      <point x="665" y="569"/>
      <point x="662" y="596"/>
      <point x="655" y="620" type="curve"/>
      <point x="47" y="620" type="line"/>
      <point x="47" y="594"/>
      <point x="50" y="567"/>
      <point x="57" y="542" type="curve"/>
    </contour>
  </outline>
</glyph>
<glyph name="g.Tta" format="2">
  <advance width="570"/>
  <unicode hex="0A1F"/>
  <outline>
    <contour>
      <point x="309" y="-15" type="curve" smooth="yes"/>
      <point x="352" y="-15"/>
      <point x="403" y="4"/>
      <point x="439" y="31" type="curve"/>
      <point x="453" y="50"/>
      <point x="471" y="100"/>
      <point x="476" y="122" type="curve"/>
      <point x="473" y="123" type="line"/>
      <point x="434" y="97"/>
      <point x="358" y="65"/>
      <point x="306" y="65" type="curve" smooth="yes"/>
      <point x="212" y="65"/>
      <point x="150" y="134"/>
      <point x="122" y="192" type="curve"/>
      <point x="194" y="308"/>
      <point x="304" y="357"/>
      <point x="468" y="357" type="curve" smooth="yes"/>
      <point x="488" y="357"/>
      <point x="507" y="356"/>
      <point x="509" y="356" type="curve"/>
      <point x="516" y="362" type="line"/>
      <point x="517" y="367"/>
      <point x="543" y="503"/>
      <point x="553" y="562" type="curve"/>
      <point x="466" y="562" type="line"/>
      <point x="462" y="529"/>
      <point x="445" y="438"/>
      <point x="444" y="433" type="curve"/>
      <point x="189" y="424"/>
      <point x="94" y="303"/>
      <point x="37" y="209" type="curve"/>
      <point x="65" y="152"/>
      <point x="158" y="-15"/>
    </contour>
    <contour>
      <point x="642" y="542" type="line"/>
      <point x="642" y="569"/>
      <point x="639" y="596"/>
      <point x="632" y="620" type="curve"/>
      <point x="47" y="620" type="line"/>
      <point x="47" y="594"/>
      <point x="50" y="567"/>
      <point x="57" y="542" type="curve"/>
    </contour>
  </outline>
</glyph>
<glyph name="g.Ttha" format="2">
  <advance width="641"/>
  <unicode hex="0A20"/>
  <outline>
    <contour>
      <point x="293" y="-15" type="curve" smooth="yes"/>
      <point x="456" y="-15"/>
      <point x="571" y="74"/>
      <point x="571" y="204" type="curve" smooth="yes"/>
      <point x="571" y="324"/>
      <point x="480" y="404"/>
      <point x="334" y="404" type="curve" smooth="yes"/>
      <point x="192" y="404"/>
      <point x="48" y="310"/>
      <point x="48" y="180" type="curve" smooth="yes"/>
      <point x="48" y="70"/>
      <point x="150" y="-15"/>
    </contour>
    <contour>
      <point x="281" y="62" type="curve" smooth="yes"/>
      <point x="191" y="62"/>
      <point x="126" y="92"/>
      <point x="126" y="168" type="curve" smooth="yes"/>
      <point x="126" y="241"/>
      <point x="201" y="329"/>
      <point x="346" y="329" type="curve" smooth="yes"/>
      <point x="434" y="329"/>
      <point x="495" y="294"/>
      <point x="495" y="212" type="curve" smooth="yes"/>
      <point x="495" y="134"/>
      <point x="417" y="62"/>
    </contour>
    <contour>
      <point x="424" y="562" type="line"/>
      <point x="338" y="562" type="line"/>
      <point x="304" y="386" type="line"/>
      <point x="389" y="384" type="line"/>
    </contour>
    <contour>
      <point x="713" y="542" type="line"/>
      <point x="713" y="569"/>
      <point x="710" y="596"/>
      <point x="703" y="620" type="curve"/>
      <point x="47" y="620" type="line"/>
      <point x="47" y="594"/>
      <point x="50" y="567"/>
      <point x="57" y="542" type="curve"/>
    </contour>
  </outline>
</glyph>
<glyph name="g.Dda" format="2">
  <advance width="603"/>
  <unicode hex="0A21"/>
  <outline>
    <contour>
      <point x="238" y="-15" type="curve" smooth="yes"/>
      <point x="414" y="-15"/>
      <point x="529" y="86"/>
      <point x="529" y="218" type="curve" smooth="yes"/>
      <point x="529" y="295"/>
      <point x="481" y="350"/>
      <point x="415" y="375" type="curve"/>
      <point x="353" y="416"/>
      <point x="277" y="426"/>
      <point x="233" y="426" type="curve" smooth="yes"/>
      <point x="167" y="426"/>
      <point x="116" y="405"/>
      <point x="116" y="372" type="curve" smooth="yes"/>
      <point x="116" y="336"/>
      <point x="169" y="310"/>
      <point x="264" y="310" type="curve" smooth="yes"/>
      <point x="295" y="310"/>
      <point x="384" y="319"/>
      <point x="409" y="346" type="curve"/>
      <point x="508" y="372"/>
      <point x="568" y="450"/>
      <point x="584" y="535" type="curve" smooth="yes"/>
      <point x="589" y="562" type="line"/>
      <point x="506" y="562" type="line"/>
      <point x="503" y="546" type="line" smooth="yes"/>
      <point x="486" y="454"/>
      <point x="428" y="413"/>
      <point x="340" y="390" type="curve"/>
      <point x="332" y="354" type="line"/>
      <point x="405" y="330"/>
      <point x="448" y="289"/>
      <point x="448" y="222" type="curve" smooth="yes"/>
      <point x="448" y="126"/>
      <point x="347" y="60"/>
      <point x="234" y="60" type="curve" smooth="yes"/>
      <point x="164" y="60"/>
      <point x="108" y="84"/>
      <point x="108" y="125" type="curve" smooth="yes"/>
      <point x="108" y="159"/>
      <point x="149" y="175"/>
      <point x="194" y="175" type="curve" smooth="yes"/>
      <point x="259" y="175"/>
      <point x="315" y="141"/>
      <point x="364" y="73" type="curve"/>
      <point x="413" y="120" type="line"/>
      <point x="368" y="186"/>
      <point x="290" y="249"/>
      <point x="189" y="249" type="curve" smooth="yes"/>
      <point x="105" y="249"/>
      <point x="38" y="203"/>
      <point x="38" y="129" type="curve" smooth="yes"/>
      <point x="38" y="50"/>
      <point x="112" y="-15"/>
    </contour>
    <contour>
      <point x="675" y="542" type="line"/>
      <point x="675" y="569"/>
      <point x="672" y="596"/>
      <point x="665" y="620" type="curve"/>
      <point x="47" y="620" type="line"/>
      <point x="47" y="594"/>
      <point x="50" y="567"/>
      <point x="57" y="542" type="curve"/>
    </contour>
  </outline>
</glyph>
<glyph name="g.Ddha" format="2">
  <advance width="633"/>
  <unicode hex="0A22"/>
  <outline>
    <contour>
      <point x="381" y="-15" type="curve" smooth="yes"/>
      <point x="488" y="-15"/>
      <point x="556" y="43"/>
      <point x="556" y="122" type="curve" smooth="yes"/>
      <point x="556" y="198"/>
      <point x="501" y="243"/>
      <point x="430" y="243" type="curve" smooth="yes"/>
      <point x="359" y="243"/>
      <point x="265" y="198"/>
      <point x="206" y="148" type="curve"/>
      <point x="240" y="76" type="line"/>
      <point x="298" y="130"/>
      <point x="376" y="167"/>
      <point x="432" y="167" type="curve" smooth="yes"/>
      <point x="464" y="167"/>
      <point x="482" y="156"/>
      <point x="482" y="128" type="curve" smooth="yes"/>
      <point x="482" y="96"/>
      <point x="442" y="62"/>
      <point x="375" y="62" type="curve" smooth="yes"/>
      <point x="271" y="62"/>
      <point x="218" y="133"/>
      <point x="218" y="237" type="curve" smooth="yes"/>
      <point x="218" y="306"/>
      <point x="229" y="321"/>
      <point x="233" y="334" type="curve"/>
      <point x="149" y="334" type="line"/>
      <point x="143" y="301"/>
      <point x="141" y="280"/>
      <point x="141" y="255" type="curve" smooth="yes"/>
      <point x="141" y="116"/>
      <point x="223" y="-15"/>
    </contour>
    <contour>
      <point x="146" y="313" type="curve" smooth="yes"/>
      <point x="216" y="313"/>
      <point x="281" y="316"/>
      <point x="360" y="316" type="curve" smooth="yes"/>
      <point x="402" y="316"/>
      <point x="466" y="316"/>
      <point x="556" y="314" type="curve"/>
      <point x="563" y="320" type="line"/>
      <point x="564" y="325"/>
      <point x="595" y="489"/>
      <point x="608" y="562" type="curve"/>
      <point x="523" y="562" type="line"/>
      <point x="515" y="513"/>
      <point x="493" y="397"/>
      <point x="492" y="391" type="curve"/>
      <point x="445" y="392"/>
      <point x="418" y="392"/>
      <point x="383" y="392" type="curve" smooth="yes"/>
      <point x="337" y="392"/>
      <point x="294" y="392"/>
      <point x="248" y="390" type="curve"/>
      <point x="251" y="402"/>
      <point x="258" y="412"/>
      <point x="258" y="444" type="curve" smooth="yes"/>
      <point x="258" y="469"/>
      <point x="250" y="481"/>
      <point x="229" y="481" type="curve" smooth="yes"/>
      <point x="165" y="481"/>
      <point x="61" y="390"/>
      <point x="61" y="340" type="curve" smooth="yes"/>
      <point x="61" y="314"/>
      <point x="95" y="313"/>
    </contour>
    <contour>
      <point x="705" y="542" type="line"/>
      <point x="705" y="569"/>
      <point x="702" y="596"/>
      <point x="695" y="620" type="curve"/>
      <point x="47" y="620" type="line"/>
      <point x="47" y="594"/>
      <point x="50" y="567"/>
      <point x="57" y="542" type="curve"/>
    </contour>
  </outline>
</glyph>
<glyph name="g.Nna" format="2">
  <advance width="660"/>
  <unicode hex="0A23"/>
  <outline>
    <contour>
      <point x="351" y="-15" type="curve" smooth="yes"/>
      <point x="413" y="-15"/>
      <point x="462" y="5"/>
      <point x="497" y="31" type="curve"/>
      <point x="511" y="50"/>
      <point x="530" y="100"/>
      <point x="534" y="122" type="curve"/>
      <point x="531" y="123" type="line"/>
      <point x="496" y="99"/>
      <point x="415" y="65"/>
      <point x="350" y="65" type="curve" smooth="yes"/>
      <point x="244" y="65"/>
      <point x="167" y="126"/>
      <point x="127" y="197" type="curve"/>
      <point x="187" y="292"/>
      <point x="275" y="339"/>
      <point x="366" y="339" type="curve" smooth="yes"/>
      <point x="408" y="339"/>
      <point x="435" y="330"/>
      <point x="460" y="320" type="curve"/>
      <point x="467" y="326" type="line"/>
      <point x="474" y="362"/>
      <point x="483" y="406"/>
      <point x="494" y="471" type="curve"/>
      <point x="421" y="535" type="line"/>
      <point x="414" y="498"/>
      <point x="402" y="431"/>
      <point x="397" y="409" type="curve"/>
      <point x="385" y="411"/>
      <point x="365" y="412"/>
      <point x="350" y="412" type="curve" smooth="yes"/>
      <point x="215" y="412"/>
      <point x="107" y="320"/>
      <point x="42" y="215" type="curve"/>
      <point x="79" y="143"/>
      <point x="180" y="-15"/>
    </contour>
    <contour>
      <point x="633" y="352" type="line"/>
      <point x="647" y="371"/>
      <point x="659" y="395"/>
      <point x="663" y="416" type="curve"/>
      <point x="598" y="457"/>
      <point x="540" y="496"/>
      <point x="502" y="524" type="curve"/>
      <point x="509" y="562" type="line"/>
      <point x="366" y="562" type="line"/>
      <point x="391" y="535"/>
      <point x="419" y="510"/>
      <point x="458" y="476" type="curve" smooth="yes"/>
      <point x="500" y="440"/>
      <point x="569" y="393"/>
      <point x="630" y="352" type="curve"/>
    </contour>
    <contour>
      <point x="732" y="542" type="line"/>
      <point x="732" y="569"/>
      <point x="729" y="596"/>
      <point x="722" y="620" type="curve"/>
      <point x="47" y="620" type="line"/>
      <point x="47" y="594"/>
      <point x="50" y="567"/>
      <point x="57" y="542" type="curve"/>
    </contour>
  </outline>
</glyph>
<glyph name="g.Ta" format="2">
  <advance width="583"/>
  <unicode hex="0A24"/>
  <outline>
    <contour>
      <point x="261" y="-15" type="curve" smooth="yes"/>
      <point x="416" y="-15"/>
      <point x="507" y="64"/>
      <point x="507" y="163" type="curve" smooth="yes"/>
      <point x="507" y="282"/>
      <point x="356" y="372"/>
      <point x="210" y="372" type="curve" smooth="yes"/>
      <point x="144" y="372"/>
      <point x="92" y="350"/>
      <point x="92" y="316" type="curve" smooth="yes"/>
      <point x="92" y="281"/>
      <point x="150" y="253"/>
      <point x="255" y="253" type="curve" smooth="yes"/>
      <point x="436" y="253"/>
      <point x="558" y="364"/>
      <point x="582" y="562" type="curve"/>
      <point x="498" y="562" type="line"/>
      <point x="480" y="428"/>
      <point x="429" y="362"/>
      <point x="326" y="339" type="curve"/>
      <point x="317" y="294" type="line"/>
      <point x="387" y="272"/>
      <point x="423" y="228"/>
      <point x="423" y="178" type="curve" smooth="yes"/>
      <point x="423" y="102"/>
      <point x="356" y="63"/>
      <point x="244" y="63" type="curve" smooth="yes"/>
      <point x="159" y="63"/>
      <point x="87" y="85"/>
      <point x="29" y="125" type="curve"/>
      <point x="24" y="122" type="line"/>
      <point x="46" y="25"/>
      <point x="156" y="-15"/>
    </contour>
    <contour>
      <point x="655" y="542" type="line"/>
      <point x="655" y="569"/>
      <point x="652" y="596"/>
      <point x="645" y="620" type="curve"/>
      <point x="47" y="620" type="line"/>
      <point x="47" y="594"/>
      <point x="50" y="567"/>
      <point x="57" y="542" type="curve"/>
    </contour>
  </outline>
</glyph>
<glyph name="g.Tha" format="2">
  <advance width="581"/>
  <unicode hex="0A25"/>
  <outline>
    <contour>
      <point x="259" y="97" type="curve" smooth="yes"/>
      <point x="317" y="97"/>
      <point x="364" y="118"/>
      <point x="413" y="150" type="curve"/>
      <point x="433" y="253" type="line"/>
      <point x="370" y="203"/>
      <point x="305" y="177"/>
      <point x="251" y="177" type="curve" smooth="yes"/>
      <point x="207" y="177"/>
      <point x="179" y="201"/>
      <point x="145" y="242" type="curve"/>
      <point x="188" y="299"/>
      <point x="229" y="353"/>
      <point x="229" y="439" type="curve" smooth="yes"/>
      <point x="229" y="473"/>
      <point x="222" y="520"/>
      <point x="199" y="562" type="curve"/>
      <point x="131" y="562" type="line"/>
      <point x="147" y="526"/>
      <point x="154" y="485"/>
      <point x="154" y="454" type="curve" smooth="yes"/>
      <point x="154" y="383"/>
      <point x="116" y="331"/>
      <point x="55" y="259" type="curve"/>
      <point x="102" y="174"/>
      <point x="173" y="97"/>
    </contour>
    <contour>
      <point x="185" y="330" type="line"/>
      <point x="230" y="333"/>
      <point x="294" y="334"/>
      <point x="356" y="334" type="curve" smooth="yes"/>
      <point x="388" y="334"/>
      <point x="418" y="334"/>
      <point x="449" y="332" type="curve"/>
      <point x="463" y="405" type="line"/>
      <point x="433" y="407"/>
      <point x="405" y="407"/>
      <point x="367" y="407" type="curve" smooth="yes"/>
      <point x="291" y="407"/>
      <point x="245" y="405"/>
      <point x="200" y="403" type="curve"/>
    </contour>
    <contour>
      <point x="559" y="562" type="line"/>
      <point x="473" y="562" type="line"/>
      <point x="366" y="10" type="line"/>
      <point x="388" y="-4"/>
      <point x="423" y="-12"/>
      <point x="448" y="-12" type="curve"/>
    </contour>
    <contour>
      <point x="653" y="542" type="line"/>
      <point x="653" y="569"/>
      <point x="650" y="596"/>
      <point x="643" y="620" type="curve"/>
      <point x="47" y="620" type="line"/>
      <point x="47" y="594"/>
      <point x="50" y="567"/>
      <point x="57" y="542" type="curve"/>
    </contour>
  </outline>
</glyph>
<glyph name="g.Da" format="2">
  <advance width="639"/>
  <unicode hex="0A26"/>
  <outline>
    <contour>
      <point x="348" y="-15" type="curve" smooth="yes"/>
      <point x="402" y="-15"/>
      <point x="463" y="0"/>
      <point x="508" y="32" type="curve"/>
      <point x="522" y="51"/>
      <point x="541" y="106"/>
      <point x="545" y="128" type="curve"/>
      <point x="542" y="129" type="line"/>
      <point x="491" y="96"/>
      <point x="419" y="63"/>
      <point x="339" y="63" type="curve" smooth="yes"/>
      <point x="252" y="63"/>
      <point x="198" y="90"/>
      <point x="198" y="174" type="curve" smooth="yes"/>
      <point x="198" y="213"/>
      <point x="214" y="263"/>
      <point x="227" y="297" type="curve"/>
      <point x="234" y="314" type="line"/>
      <point x="244" y="346"/>
      <point x="254" y="381"/>
      <point x="254" y="409" type="curve" smooth="yes"/>
      <point x="254" y="436"/>
      <point x="248" y="447"/>
      <point x="225" y="447" type="curve" smooth="yes"/>
      <point x="151" y="447"/>
      <point x="57" y="355"/>
      <point x="57" y="318" type="curve" smooth="yes"/>
      <point x="57" y="280"/>
      <point x="91" y="279"/>
      <point x="144" y="279" type="curve" smooth="yes"/>
      <point x="202" y="279"/>
      <point x="254" y="282"/>
      <point x="333" y="282" type="curve" smooth="yes"/>
      <point x="393" y="282"/>
      <point x="467" y="282"/>
      <point x="558" y="280" type="curve"/>
      <point x="565" y="286" type="line"/>
      <point x="566" y="291"/>
      <point x="597" y="455"/>
      <point x="616" y="562" type="curve"/>
      <point x="531" y="562" type="line"/>
      <point x="516" y="479"/>
      <point x="495" y="363"/>
      <point x="494" y="357" type="curve"/>
      <point x="447" y="358"/>
      <point x="420" y="358"/>
      <point x="383" y="358" type="curve" smooth="yes"/>
      <point x="332" y="358"/>
      <point x="214" y="356"/>
      <point x="164" y="354" type="curve"/>
      <point x="154" y="316"/>
      <point x="128" y="240"/>
      <point x="128" y="179" type="curve" smooth="yes"/>
      <point x="128" y="72"/>
      <point x="207" y="-15"/>
    </contour>
    <contour>
      <point x="711" y="542" type="line"/>
      <point x="711" y="569"/>
      <point x="708" y="596"/>
      <point x="701" y="620" type="curve"/>
      <point x="47" y="620" type="line"/>
      <point x="47" y="594"/>
      <point x="50" y="567"/>
      <point x="57" y="542" type="curve"/>
    </contour>
  </outline>
</glyph>
<glyph name="g.Dha" format="2">
  <advance width="576"/>
  <unicode hex="0A27"/>
  <outline>
    <contour>
      <point x="258" y="109" type="curve" smooth="yes"/>
      <point x="319" y="109"/>
      <point x="358" y="131"/>
      <point x="411" y="166" type="curve"/>
      <point x="432" y="271" type="line"/>
      <point x="367" y="214"/>
      <point x="305" y="189"/>
      <point x="251" y="189" type="curve" smooth="yes"/>
      <point x="204" y="189"/>
      <point x="175" y="211"/>
      <point x="142" y="244" type="curve"/>
      <point x="193" y="309"/>
      <point x="226" y="371"/>
      <point x="226" y="443" type="curve" smooth="yes"/>
      <point x="226" y="478"/>
      <point x="219" y="522"/>
      <point x="199" y="562" type="curve"/>
      <point x="131" y="562" type="line"/>
      <point x="145" y="526"/>
      <point x="151" y="487"/>
      <point x="151" y="458" type="curve" smooth="yes"/>
      <point x="151" y="387"/>
      <point x="116" y="334"/>
      <point x="49" y="263" type="curve"/>
      <point x="98" y="182"/>
      <point x="173" y="109"/>
    </contour>
    <contour>
      <point x="554" y="562" type="line"/>
      <point x="468" y="562" type="line"/>
      <point x="361" y="10" type="line"/>
      <point x="383" y="-4"/>
      <point x="418" y="-12"/>
      <point x="443" y="-12" type="curve"/>
    </contour>
    <contour>
      <point x="648" y="542" type="line"/>
      <point x="648" y="569"/>
      <point x="645" y="596"/>
      <point x="638" y="620" type="curve"/>
      <point x="47" y="620" type="line"/>
      <point x="47" y="594"/>
      <point x="50" y="567"/>
      <point x="57" y="542" type="curve"/>
    </contour>
  </outline>
</glyph>
<glyph name="g.Na" format="2">
  <advance width="635"/>
  <unicode hex="0A28"/>
  <outline>
    <contour>
      <point x="212" y="13" type="line"/>
      <point x="148" y="66"/>
      <point x="128" y="116"/>
      <point x="128" y="166" type="curve" smooth="yes"/>
      <point x="128" y="253"/>
      <point x="200" y="330"/>
      <point x="344" y="330" type="curve" smooth="yes"/>
      <point x="422" y="330"/>
      <point x="494" y="296"/>
      <point x="494" y="210" type="curve" smooth="yes"/>
      <point x="494" y="138"/>
      <point x="433" y="96"/>
      <point x="347" y="71" type="curve"/>
      <point x="344" y="52"/>
      <point x="360" y="-2"/>
      <point x="370" y="-15" type="curve"/>
      <point x="487" y="19"/>
      <point x="567" y="93"/>
      <point x="567" y="206" type="curve" smooth="yes"/>
      <point x="567" y="319"/>
      <point x="473" y="404"/>
      <point x="334" y="404" type="curve" smooth="yes"/>
      <point x="175" y="404"/>
      <point x="50" y="302"/>
      <point x="50" y="164" type="curve" smooth="yes"/>
      <point x="50" y="80"/>
      <point x="101" y="17"/>
      <point x="168" y="-34" type="curve"/>
    </contour>
    <contour>
      <point x="386" y="383" type="line"/>
      <point x="421" y="562" type="line"/>
      <point x="335" y="562" type="line"/>
      <point x="300" y="383" type="line"/>
    </contour>
    <contour>
      <point x="707" y="542" type="line"/>
      <point x="707" y="569"/>
      <point x="704" y="596"/>
      <point x="697" y="620" type="curve"/>
      <point x="47" y="620" type="line"/>
      <point x="47" y="594"/>
      <point x="50" y="567"/>
      <point x="57" y="542" type="curve"/>
    </contour>
  </outline>
</glyph>
<glyph name="g.Pa" format="2">
  <advance width="581"/>
  <unicode hex="0A2A"/>
  <outline>
    <contour>
      <point x="265" y="109" type="curve" smooth="yes"/>
      <point x="317" y="109"/>
      <point x="384" y="136"/>
      <point x="418" y="161" type="curve"/>
      <point x="439" y="267" type="line"/>
      <point x="399" y="231"/>
      <point x="325" y="189"/>
      <point x="264" y="189" type="curve" smooth="yes"/>
      <point x="209" y="189"/>
      <point x="178" y="213"/>
      <point x="146" y="249" type="curve"/>
      <point x="214" y="331"/>
      <point x="235" y="392"/>
      <point x="235" y="474" type="curve" smooth="yes"/>
      <point x="235" y="523"/>
      <point x="227" y="583"/>
      <point x="217" y="620" type="curve"/>
      <point x="47" y="620" type="line"/>
      <point x="47" y="594"/>
      <point x="50" y="567"/>
      <point x="57" y="542" type="curve"/>
      <point x="146" y="542" type="line"/>
      <point x="153" y="518"/>
      <point x="155" y="485"/>
      <point x="155" y="464" type="curve" smooth="yes"/>
      <point x="155" y="388"/>
      <point x="123" y="340"/>
      <point x="52" y="264" type="curve"/>
      <point x="102" y="183"/>
      <point x="177" y="109"/>
    </contour>
    <contour>
      <point x="556" y="542" type="line"/>
      <point x="653" y="542" type="line"/>
      <point x="653" y="569"/>
      <point x="650" y="596"/>
      <point x="643" y="620" type="curve"/>
      <point x="485" y="620" type="line"/>
      <point x="366" y="10" type="line"/>
      <point x="388" y="-4"/>
      <point x="423" y="-12"/>
      <point x="448" y="-12" type="curve"/>
    </contour>
  </outline>
</glyph>
<glyph name="g.Pha" format="2">
  <advance width="587"/>
  <unicode hex="0A2B"/>
  <outline>
    <contour>
      <point x="311" y="-15" type="curve" smooth="yes"/>
      <point x="405" y="-15"/>
      <point x="486" y="42"/>
      <point x="486" y="133" type="curve" smooth="yes"/>
      <point x="486" y="213"/>
      <point x="419" y="267"/>
      <point x="336" y="267" type="curve" smooth="yes"/>
      <point x="262" y="267"/>
      <point x="181" y="227"/>
      <point x="129" y="172" type="curve"/>
      <point x="150" y="103" type="line"/>
      <point x="212" y="157"/>
      <point x="280" y="191"/>
      <point x="342" y="191" type="curve" smooth="yes"/>
      <point x="384" y="191"/>
      <point x="413" y="177"/>
      <point x="413" y="139" type="curve" smooth="yes"/>
      <point x="413" y="97"/>
      <point x="370" y="62"/>
      <point x="301" y="62" type="curve" smooth="yes"/>
      <point x="196" y="62"/>
      <point x="149" y="133"/>
      <point x="149" y="242" type="curve" smooth="yes"/>
      <point x="149" y="354"/>
      <point x="210" y="358"/>
      <point x="348" y="358" type="curve" smooth="yes"/>
      <point x="446" y="358"/>
      <point x="493" y="356"/>
      <point x="526" y="356" type="curve"/>
      <point x="534" y="362" type="line"/>
      <point x="535" y="367"/>
      <point x="560" y="503"/>
      <point x="569" y="562" type="curve"/>
      <point x="483" y="562" type="line"/>
      <point x="479" y="529"/>
      <point x="462" y="438"/>
      <point x="461" y="433" type="curve"/>
      <point x="401" y="434"/>
      <point x="393" y="434"/>
      <point x="316" y="434" type="curve" smooth="yes"/>
      <point x="191" y="434"/>
      <point x="69" y="416"/>
      <point x="69" y="266" type="curve" smooth="yes"/>
      <point x="69" y="130"/>
      <point x="152" y="-15"/>
    </contour>
    <contour>
      <point x="659" y="542" type="line"/>
      <point x="659" y="569"/>
      <point x="656" y="596"/>
      <point x="649" y="620" type="curve"/>
      <point x="47" y="620" type="line"/>
      <point x="47" y="594"/>
      <point x="50" y="567"/>
      <point x="57" y="542" type="curve"/>
    </contour>
  </outline>
</glyph>
<glyph name="g.Ba" format="2">
  <advance width="616"/>
  <unicode hex="0A2C"/>
  <outline>
    <contour>
      <point x="297" y="68" type="curve" smooth="yes"/>
      <point x="348" y="68"/>
      <point x="398" y="84"/>
      <point x="441" y="108" type="curve"/>
      <point x="460" y="208" type="line"/>
      <point x="408" y="162"/>
      <point x="346" y="148"/>
      <point x="291" y="148" type="curve" smooth="yes"/>
      <point x="220" y="148"/>
      <point x="183" y="182"/>
      <point x="155" y="218" type="curve"/>
      <point x="193" y="259"/>
      <point x="257" y="306"/>
      <point x="414" y="306" type="curve" smooth="yes"/>
      <point x="433" y="306"/>
      <point x="445" y="306"/>
      <point x="478" y="304" type="curve"/>
      <point x="493" y="380" type="line"/>
      <point x="475" y="381"/>
      <point x="436" y="382"/>
      <point x="412" y="382" type="curve" smooth="yes"/>
      <point x="391" y="382"/>
      <point x="369" y="381"/>
      <point x="350" y="381" type="curve"/>
      <point x="176" y="358"/>
      <point x="108" y="289"/>
      <point x="67" y="239" type="curve"/>
      <point x="97" y="189"/>
      <point x="168" y="68"/>
    </contour>
    <contour>
      <point x="350" y="381" type="line"/>
      <point x="269" y="381"/>
      <point x="222" y="432"/>
      <point x="222" y="514" type="curve" smooth="yes"/>
      <point x="222" y="529"/>
      <point x="223" y="544"/>
      <point x="226" y="561" type="curve"/>
      <point x="134" y="561" type="line"/>
      <point x="133" y="550"/>
      <point x="133" y="539"/>
      <point x="133" y="528" type="curve" smooth="yes"/>
      <point x="133" y="452"/>
      <point x="167" y="382"/>
      <point x="230" y="355" type="curve"/>
      <point x="226" y="337" type="line"/>
    </contour>
    <contour>
      <point x="594" y="562" type="line"/>
      <point x="508" y="562" type="line"/>
      <point x="401" y="10" type="line"/>
      <point x="423" y="-4"/>
      <point x="458" y="-12"/>
      <point x="483" y="-12" type="curve"/>
    </contour>
    <contour>
      <point x="688" y="542" type="line"/>
      <point x="688" y="569"/>
      <point x="685" y="596"/>
      <point x="678" y="620" type="curve"/>
      <point x="47" y="620" type="line"/>
      <point x="47" y="594"/>
      <point x="50" y="567"/>
      <point x="57" y="542" type="curve"/>
    </contour>
  </outline>
</glyph>
<glyph name="g.Bha" format="2">
  <advance width="574"/>
  <unicode hex="0A2D"/>
  <outline>
    <contour>
      <point x="268" y="-15" type="curve" smooth="yes"/>
      <point x="430" y="-15"/>
      <point x="504" y="79"/>
      <point x="504" y="186" type="curve" smooth="yes"/>
      <point x="504" y="326"/>
      <point x="390" y="443"/>
      <point x="249" y="443" type="curve" smooth="yes"/>
      <point x="175" y="443"/>
      <point x="93" y="401"/>
      <point x="93" y="315" type="curve" smooth="yes"/>
      <point x="93" y="231"/>
      <point x="158" y="181"/>
      <point x="254" y="181" type="curve" smooth="yes"/>
      <point x="425" y="181"/>
      <point x="554" y="364"/>
      <point x="564" y="562" type="curve"/>
      <point x="478" y="562" type="line"/>
      <point x="478" y="555"/>
      <point x="479" y="547"/>
      <point x="479" y="539" type="curve" smooth="yes"/>
      <point x="479" y="439"/>
      <point x="397" y="258"/>
      <point x="241" y="258" type="curve" smooth="yes"/>
      <point x="196" y="258"/>
      <point x="165" y="273"/>
      <point x="165" y="310" type="curve" smooth="yes"/>
      <point x="165" y="346"/>
      <point x="211" y="368"/>
      <point x="262" y="368" type="curve" smooth="yes"/>
      <point x="375" y="368"/>
      <point x="421" y="280"/>
      <point x="421" y="203" type="curve" smooth="yes"/>
      <point x="421" y="120"/>
      <point x="370" y="63"/>
      <point x="247" y="63" type="curve" smooth="yes"/>
      <point x="164" y="63"/>
      <point x="95" y="85"/>
      <point x="40" y="125" type="curve"/>
      <point x="35" y="122" type="line"/>
      <point x="63" y="26"/>
      <point x="156" y="-15"/>
    </contour>
    <contour>
      <point x="646" y="542" type="line"/>
      <point x="646" y="569"/>
      <point x="643" y="596"/>
      <point x="636" y="620" type="curve"/>
      <point x="47" y="620" type="line"/>
      <point x="47" y="594"/>
      <point x="50" y="567"/>
      <point x="57" y="542" type="curve"/>
    </contour>
  </outline>
</glyph>
<glyph name="g.Ma" format="2">
  <advance width="613"/>
  <unicode hex="0A2E"/>
  <outline>
    <contour>
      <point x="71" y="31" type="curve" smooth="yes"/>
      <point x="154" y="31"/>
      <point x="247" y="180"/>
      <point x="247" y="421" type="curve" smooth="yes"/>
      <point x="247" y="486"/>
      <point x="240" y="566"/>
      <point x="229" y="620" type="curve"/>
      <point x="47" y="620" type="line"/>
      <point x="47" y="594"/>
      <point x="50" y="567"/>
      <point x="57" y="542" type="curve"/>
      <point x="157" y="542" type="line"/>
      <point x="173" y="472"/>
      <point x="170" y="379"/>
      <point x="155" y="285" type="curve"/>
      <point x="80" y="210"/>
      <point x="19" y="141"/>
      <point x="19" y="83" type="curve" smooth="yes"/>
      <point x="19" y="55"/>
      <point x="34" y="31"/>
    </contour>
    <contour>
      <point x="202" y="244" type="line"/>
      <point x="278" y="248"/>
      <point x="379" y="247"/>
      <point x="459" y="247" type="curve"/>
      <point x="480" y="323" type="line"/>
      <point x="366" y="323"/>
      <point x="284" y="322"/>
      <point x="217" y="318" type="curve"/>
    </contour>
    <contour>
      <point x="587" y="542" type="line"/>
      <point x="685" y="542" type="line"/>
      <point x="685" y="569"/>
      <point x="682" y="596"/>
      <point x="675" y="620" type="curve"/>
      <point x="517" y="620" type="line"/>
      <point x="398" y="10" type="line"/>
      <point x="420" y="-4"/>
      <point x="455" y="-12"/>
      <point x="480" y="-12" type="curve"/>
    </contour>
  </outline>
</glyph>
<glyph name="g.Ya" format="2">
  <advance width="692"/>
  <unicode hex="0A2F"/>
  <outline>
    <contour>
      <point x="296" y="88" type="curve" smooth="yes"/>
      <point x="355" y="88"/>
      <point x="378" y="114"/>
      <point x="388" y="174" type="curve" smooth="yes"/>
      <point x="397" y="227"/>
      <point x="407" y="279"/>
      <point x="417" y="331" type="curve"/>
      <point x="560" y="331" type="line"/>
      <point x="574" y="404" type="line"/>
      <point x="481" y="404"/>
      <point x="400" y="404"/>
      <point x="350" y="403" type="curve"/>
      <point x="346" y="398" type="line"/>
      <point x="333" y="323"/>
      <point x="322" y="257"/>
      <point x="310" y="191" type="curve" smooth="yes"/>
      <point x="305" y="166"/>
      <point x="296" y="160"/>
      <point x="277" y="160" type="curve" smooth="yes"/>
      <point x="225" y="160"/>
      <point x="182" y="184"/>
      <point x="147" y="234" type="curve"/>
      <point x="199" y="307"/>
      <point x="228" y="367"/>
      <point x="228" y="441" type="curve" smooth="yes"/>
      <point x="228" y="476"/>
      <point x="218" y="523"/>
      <point x="198" y="562" type="curve"/>
      <point x="132" y="562" type="line"/>
      <point x="147" y="524"/>
      <point x="154" y="485"/>
      <point x="154" y="454" type="curve" smooth="yes"/>
      <point x="154" y="380"/>
      <point x="105" y="316"/>
      <point x="57" y="256" type="curve"/>
      <point x="101" y="174"/>
      <point x="185" y="88"/>
    </contour>
    <contour>
      <point x="670" y="562" type="line"/>
      <point x="584" y="562" type="line"/>
      <point x="477" y="10" type="line"/>
      <point x="499" y="-4"/>
      <point x="534" y="-12"/>
      <point x="559" y="-12" type="curve"/>
    </contour>
    <contour>
      <point x="764" y="542" type="line"/>
      <point x="764" y="569"/>
      <point x="761" y="596"/>
      <point x="754" y="620" type="curve"/>
      <point x="47" y="620" type="line"/>
      <point x="47" y="594"/>
      <point x="50" y="567"/>
      <point x="57" y="542" type="curve"/>
    </contour>
  </outline>
</glyph>
<glyph name="g.Ra" format="2">
  <advance width="543"/>
  <unicode hex="0A30"/>
  <outline>
    <contour>
      <point x="304" y="-15" type="curve" smooth="yes"/>
      <point x="384" y="-15"/>
      <point x="423" y="42"/>
      <point x="443" y="146" type="curve" smooth="yes"/>
      <point x="469" y="282"/>
      <point x="494" y="423"/>
      <point x="520" y="562" type="curve"/>
      <point x="437" y="562" type="line"/>
      <point x="365" y="180" type="line" smooth="yes"/>
      <point x="345" y="74"/>
      <point x="328" y="62"/>
      <point x="291" y="62" type="curve" smooth="yes"/>
      <point x="224" y="62"/>
      <point x="145" y="137"/>
      <point x="145" y="245" type="curve" smooth="yes"/>
      <point x="145" y="328"/>
      <point x="190" y="328"/>
      <point x="274" y="328" type="curve" smooth="yes"/>
      <point x="357" y="328"/>
      <point x="386" y="327"/>
      <point x="413" y="325" type="curve"/>
      <point x="428" y="399" type="line"/>
      <point x="394" y="401"/>
      <point x="349" y="402"/>
      <point x="306" y="402" type="curve" smooth="yes"/>
      <point x="149" y="402"/>
      <point x="67" y="401"/>
      <point x="67" y="259" type="curve" smooth="yes"/>
      <point x="67" y="133"/>
      <point x="170" y="-15"/>
    </contour>
    <contour>
      <point x="615" y="542" type="line"/>
      <point x="615" y="569"/>
      <point x="612" y="596"/>
      <point x="605" y="620" type="curve"/>
      <point x="47" y="620" type="line"/>
      <point x="47" y="594"/>
      <point x="50" y="567"/>
      <point x="57" y="542" type="curve"/>
    </contour>
  </outline>
</glyph>
<glyph name="g.Lla" format="2">
  <advance width="755"/>
  <unicode hex="0A33"/>
  <outline>
    <contour>
      <point x="609" y="21" type="curve" smooth="yes"/>
      <point x="609" y="-10"/>
      <point x="631" y="-35"/>
      <point x="665" y="-35" type="curve" smooth="yes"/>
      <point x="703" y="-35"/>
      <point x="730" y="-4"/>
      <point x="730" y="32" type="curve" smooth="yes"/>
      <point x="730" y="63"/>
      <point x="709" y="87"/>
      <point x="676" y="87" type="curve" smooth="yes"/>
      <point x="639" y="87"/>
      <point x="609" y="57"/>
    </contour>
    <contour>
      <point x="353" y="207" type="curve" smooth="yes"/>
      <point x="380" y="207"/>
      <point x="445" y="251"/>
      <point x="516" y="341" type="curve" smooth="yes"/>
      <point x="584" y="426"/>
      <point x="608" y="502"/>
      <point x="621" y="559" type="curve"/>
      <point x="534" y="564" type="line"/>
      <point x="510" y="424"/>
      <point x="384" y="303"/>
      <point x="357" y="303" type="curve" smooth="yes"/>
      <point x="336" y="303"/>
      <point x="284" y="376"/>
      <point x="284" y="492" type="curve" smooth="yes"/>
      <point x="284" y="516"/>
      <point x="286" y="541"/>
      <point x="291" y="568" type="curve"/>
      <point x="198" y="557" type="line"/>
      <point x="197" y="545"/>
      <point x="196" y="533"/>
      <point x="196" y="522" type="curve" smooth="yes"/>
      <point x="196" y="466"/>
      <point x="209" y="414"/>
      <point x="239" y="345" type="curve" smooth="yes"/>
      <point x="266" y="283"/>
      <point x="325" y="207"/>
    </contour>
    <contour>
      <point x="210" y="13" type="line"/>
      <point x="146" y="66"/>
      <point x="126" y="116"/>
      <point x="126" y="166" type="curve" smooth="yes"/>
      <point x="126" y="239"/>
      <point x="177" y="302"/>
      <point x="276" y="320" type="curve"/>
      <point x="246" y="391" type="line"/>
      <point x="161" y="372"/>
      <point x="48" y="302"/>
      <point x="48" y="164" type="curve" smooth="yes"/>
      <point x="48" y="80"/>
      <point x="99" y="17"/>
      <point x="166" y="-34" type="curve"/>
    </contour>
    <contour>
      <point x="451" y="-15" type="curve"/>
      <point x="567" y="19"/>
      <point x="648" y="93"/>
      <point x="648" y="206" type="curve" smooth="yes"/>
      <point x="648" y="295"/>
      <point x="582" y="358"/>
      <point x="523" y="381" type="curve"/>
      <point x="477" y="323" type="line"/>
      <point x="527" y="310"/>
      <point x="574" y="278"/>
      <point x="574" y="210" type="curve" smooth="yes"/>
      <point x="574" y="138"/>
      <point x="513" y="96"/>
      <point x="427" y="71" type="curve"/>
      <point x="425" y="46"/>
      <point x="441" y="-2"/>
    </contour>
    <contour>
      <point x="827" y="542" type="line"/>
      <point x="827" y="569"/>
      <point x="824" y="596"/>
      <point x="817" y="620" type="curve"/>
      <point x="47" y="620" type="line"/>
      <point x="47" y="594"/>
      <point x="50" y="567"/>
      <point x="57" y="542" type="curve"/>
    </contour>
  </outline>
</glyph>
<glyph name="g.Va" format="2">
  <advance width="598"/>
  <unicode hex="0A35"/>
  <outline>
    <contour>
      <point x="369" y="259" type="line"/>
      <point x="330" y="254"/>
      <point x="317" y="254"/>
      <point x="297" y="254" type="curve" smooth="yes"/>
      <point x="189" y="254"/>
      <point x="144" y="269"/>
      <point x="144" y="315" type="curve" smooth="yes"/>
      <point x="144" y="365"/>
      <point x="190" y="372"/>
      <point x="334" y="372" type="curve" smooth="yes"/>
      <point x="382" y="372"/>
      <point x="491" y="371"/>
      <point x="525" y="370" type="curve"/>
      <point x="532" y="373" type="line"/>
      <point x="532" y="377"/>
      <point x="558" y="511"/>
      <point x="566" y="562" type="curve"/>
      <point x="479" y="562" type="line"/>
      <point x="476" y="535"/>
      <point x="460" y="448"/>
      <point x="460" y="445" type="curve"/>
      <point x="450" y="445"/>
      <point x="411" y="446"/>
      <point x="308" y="446" type="curve" smooth="yes"/>
      <point x="198" y="446"/>
      <point x="65" y="444"/>
      <point x="65" y="329" type="curve" smooth="yes"/>
      <point x="65" y="258"/>
      <point x="117" y="196"/>
      <point x="255" y="190" type="curve"/>
    </contour>
    <contour>
      <point x="382" y="-15" type="curve" smooth="yes"/>
      <point x="419" y="-15"/>
      <point x="461" y="-8"/>
      <point x="490" y="3" type="curve"/>
      <point x="502" y="21"/>
      <point x="519" y="65"/>
      <point x="524" y="87" type="curve"/>
      <point x="521" y="88" type="line"/>
      <point x="473" y="67"/>
      <point x="421" y="56"/>
      <point x="370" y="56" type="curve" smooth="yes"/>
      <point x="313" y="56"/>
      <point x="264" y="63"/>
      <point x="264" y="110" type="curve" smooth="yes"/>
      <point x="264" y="137"/>
      <point x="284" y="165"/>
      <point x="352" y="181" type="curve"/>
      <point x="362" y="180"/>
      <point x="380" y="179"/>
      <point x="408" y="179" type="curve" smooth="yes"/>
      <point x="458" y="179"/>
      <point x="515" y="188"/>
      <point x="515" y="231" type="curve" smooth="yes"/>
      <point x="515" y="262"/>
      <point x="478" y="270"/>
      <point x="433" y="270" type="curve" smooth="yes"/>
      <point x="300" y="270"/>
      <point x="186" y="190"/>
      <point x="186" y="112" type="curve" smooth="yes"/>
      <point x="186" y="27"/>
      <point x="269" y="-15"/>
    </contour>
    <contour>
      <point x="670" y="542" type="line"/>
      <point x="670" y="569"/>
      <point x="667" y="596"/>
      <point x="660" y="620" type="curve"/>
      <point x="47" y="620" type="line"/>
      <point x="47" y="594"/>
      <point x="50" y="567"/>
      <point x="57" y="542" type="curve"/>
    </contour>
  </outline>
</glyph>
<glyph name="g.Sha" format="2">
  <advance width="620"/>
  <unicode hex="0A36"/>
  <outline>
    <contour>
      <point x="68" y="31" type="curve" smooth="yes"/>
      <point x="140" y="31"/>
      <point x="242" y="151"/>
      <point x="242" y="386" type="curve" smooth="yes"/>
      <point x="242" y="451"/>
      <point x="237" y="522"/>
      <point x="230" y="562" type="curve"/>
      <point x="152" y="562" type="line"/>
      <point x="173" y="478"/>
      <point x="170" y="369"/>
      <point x="145" y="255" type="curve"/>
      <point x="165" y="296" type="line"/>
      <point x="114" y="257"/>
      <point x="22" y="158"/>
      <point x="22" y="82" type="curve" smooth="yes"/>
      <point x="22" y="58"/>
      <point x="34" y="31"/>
    </contour>
    <contour>
      <point x="206" y="245" type="line"/>
      <point x="280" y="247"/>
      <point x="384" y="247"/>
      <point x="469" y="247" type="curve"/>
      <point x="484" y="323" type="line"/>
      <point x="372" y="323"/>
      <point x="284" y="321"/>
      <point x="220" y="318" type="curve"/>
    </contour>
    <contour>
      <point x="598" y="562" type="line"/>
      <point x="512" y="562" type="line"/>
      <point x="405" y="10" type="line"/>
      <point x="427" y="-4"/>
      <point x="462" y="-12"/>
      <point x="487" y="-12" type="curve"/>
    </contour>
    <contour>
      <point x="692" y="542" type="line"/>
      <point x="692" y="569"/>
      <point x="689" y="596"/>
      <point x="682" y="620" type="curve"/>
      <point x="47" y="620" type="line"/>
      <point x="47" y="594"/>
      <point x="50" y="567"/>
      <point x="57" y="542" type="curve"/>
    </contour>
    <contour>
      <point x="225" y="49" type="curve" smooth="yes"/>
      <point x="225" y="17"/>
      <point x="248" y="-5"/>
      <point x="279" y="-5" type="curve" smooth="yes"/>
      <point x="316" y="-5"/>
      <point x="348" y="26"/>
      <point x="348" y="65" type="curve" smooth="yes"/>
      <point x="348" y="93"/>
      <point x="331" y="117"/>
      <point x="296" y="117" type="curve" smooth="yes"/>
      <point x="256" y="117"/>
      <point x="225" y="86"/>
    </contour>
  </outline>
</glyph>
<glyph name="g.Sa" format="2">
  <advance width="618"/>
  <unicode hex="0A38"/>
  <outline>
    <contour>
      <point x="68" y="31" type="curve" smooth="yes"/>
      <point x="140" y="31"/>
      <point x="242" y="151"/>
      <point x="242" y="386" type="curve" smooth="yes"/>
      <point x="242" y="451"/>
      <point x="237" y="522"/>
      <point x="230" y="562" type="curve"/>
      <point x="152" y="562" type="line"/>
      <point x="173" y="478"/>
      <point x="170" y="369"/>
      <point x="145" y="255" type="curve"/>
      <point x="165" y="296" type="line"/>
      <point x="114" y="257"/>
      <point x="22" y="158"/>
      <point x="22" y="82" type="curve" smooth="yes"/>
      <point x="22" y="58"/>
      <point x="34" y="31"/>
    </contour>
    <contour>
      <point x="206" y="245" type="line"/>
      <point x="280" y="247"/>
      <point x="384" y="247"/>
      <point x="469" y="247" type="curve"/>
      <point x="484" y="323" type="line"/>
      <point x="372" y="323"/>
      <point x="284" y="321"/>
      <point x="220" y="318" type="curve"/>
    </contour>
    <contour>
      <point x="596" y="562" type="line"/>
      <point x="510" y="562" type="line"/>
      <point x="402" y="5" type="line"/>
      <point x="424" y="-6"/>
      <point x="460" y="-12"/>
      <point x="485" y="-12" type="curve"/>
    </contour>
    <contour>
      <point x="690" y="542" type="line"/>
      <point x="690" y="569"/>
      <point x="687" y="596"/>
      <point x="680" y="620" type="curve"/>
      <point x="47" y="620" type="line"/>
      <point x="47" y="594"/>
      <point x="50" y="567"/>
      <point x="57" y="542" type="curve"/>
    </contour>
  </outline>
</glyph>
<glyph name="g.Ha" format="2">
  <advance width="574"/>
  <unicode hex="0A39"/>
  <outline>
    <contour>
      <point x="325" y="-15" type="curve" smooth="yes"/>
      <point x="410" y="-15"/>
      <point x="451" y="37"/>
      <point x="475" y="159" type="curve" smooth="yes"/>
      <point x="499" y="280"/>
      <point x="524" y="422"/>
      <point x="550" y="562" type="curve"/>
      <point x="467" y="562" type="line"/>
      <point x="448" y="458"/>
      <point x="423" y="323"/>
      <point x="399" y="201" type="curve" smooth="yes"/>
      <point x="374" y="74"/>
      <point x="351" y="62"/>
      <point x="307" y="62" type="curve" smooth="yes"/>
      <point x="203" y="62"/>
      <point x="149" y="167"/>
      <point x="149" y="250" type="curve" smooth="yes"/>
      <point x="149" y="303"/>
      <point x="174" y="321"/>
      <point x="245" y="321" type="curve" smooth="yes"/>
      <point x="252" y="321"/>
      <point x="256" y="321"/>
      <point x="268" y="320" type="curve"/>
      <point x="285" y="398" type="line"/>
      <point x="269" y="399"/>
      <point x="261" y="400"/>
      <point x="230" y="400" type="curve" smooth="yes"/>
      <point x="120" y="400"/>
      <point x="68" y="366"/>
      <point x="68" y="284" type="curve" smooth="yes"/>
      <point x="68" y="172"/>
      <point x="150" y="-15"/>
    </contour>
    <contour>
      <point x="646" y="542" type="line"/>
      <point x="646" y="569"/>
      <point x="643" y="596"/>
      <point x="636" y="620" type="curve"/>
      <point x="47" y="620" type="line"/>
      <point x="47" y="594"/>
      <point x="50" y="567"/>
      <point x="57" y="542" type="curve"/>
    </contour>
  </outline>
</glyph>
<glyph name="g.Nukta" format="2">
  <unicode hex="0A3C"/>
  <outline>
    <contour>
      <point x="-224" y="49" type="curve" smooth="yes"/>
      <point x="-224" y="17"/>
      <point x="-201" y="-5"/>
      <point x="-170" y="-5" type="curve" smooth="yes"/>
      <point x="-133" y="-5"/>
      <point x="-101" y="26"/>
      <point x="-101" y="65" type="curve" smooth="yes"/>
      <point x="-101" y="93"/>
      <point x="-118" y="117"/>
      <point x="-153" y="117" type="curve" smooth="yes"/>
      <point x="-193" y="117"/>
      <point x="-224" y="86"/>
    </contour>
  </outline>
</glyph>
<glyph name="g.SignAa" format="2">
  <advance width="238"/>
  <unicode hex="0A3E"/>
  <outline>
    <contour>
      <point x="220" y="562" type="line"/>
      <point x="136" y="562" type="line"/>
      <point x="83" y="285" type="line"/>
      <point x="104" y="270"/>
      <point x="143" y="265"/>
      <point x="163" y="265" type="curve"/>
    </contour>
    <contour>
      <point x="310" y="542" type="line"/>
      <point x="310" y="569"/>
      <point x="307" y="596"/>
      <point x="300" y="620" type="curve"/>
      <point x="47" y="620" type="line"/>
      <point x="47" y="594"/>
      <point x="50" y="567"/>
      <point x="57" y="542" type="curve"/>
    </contour>
  </outline>
</glyph>
<glyph name="g.SignI" format="2">
  <advance width="245"/>
  <unicode hex="0A3F"/>
  <outline>
    <contour>
      <point x="228" y="562" type="line"/>
      <point x="142" y="562" type="line"/>
      <point x="35" y="10" type="line"/>
      <point x="57" y="-4"/>
      <point x="92" y="-12"/>
      <point x="117" y="-12" type="curve"/>
    </contour>
    <contour>
      <point x="317" y="542" type="line"/>
      <point x="317" y="569"/>
      <point x="314" y="596"/>
      <point x="307" y="620" type="curve"/>
      <point x="47" y="620" type="line"/>
      <point x="47" y="594"/>
      <point x="50" y="567"/>
      <point x="57" y="542" type="curve"/>
    </contour>
    <contour>
      <point x="219" y="600" type="line"/>
      <point x="212" y="629"/>
      <point x="208" y="658"/>
      <point x="208" y="679" type="curve" smooth="yes"/>
      <point x="208" y="743"/>
      <point x="247" y="802"/>
      <point x="322" y="802" type="curve" smooth="yes"/>
      <point x="380" y="802"/>
      <point x="421" y="764"/>
      <point x="455" y="676" type="curve"/>
      <point x="502" y="676" type="line"/>
      <point x="504" y="679" type="line"/>
      <point x="478" y="776"/>
      <point x="423" y="884"/>
      <point x="297" y="884" type="curve" smooth="yes"/>
      <point x="203" y="884"/>
      <point x="141" y="818"/>
      <point x="141" y="715" type="curve" smooth="yes"/>
      <point x="141" y="680"/>
      <point x="149" y="632"/>
      <point x="162" y="600" type="curve"/>
    </contour>
  </outline>
</glyph>
<glyph name="g.SignIi" format="2">
  <advance width="245"/>
  <unicode hex="0A40"/>
  <outline>
    <contour>
      <point x="224" y="562" type="line"/>
      <point x="138" y="562" type="line"/>
      <point x="30" y="10" type="line"/>
      <point x="52" y="-4"/>
      <point x="87" y="-12"/>
      <point x="112" y="-12" type="curve"/>
    </contour>
    <contour>
      <point x="317" y="542" type="line"/>
      <point x="317" y="569"/>
      <point x="314" y="596"/>
      <point x="307" y="620" type="curve"/>
      <point x="47" y="620" type="line"/>
      <point x="47" y="594"/>
      <point x="50" y="567"/>
      <point x="57" y="542" type="curve"/>
    </contour>
    <contour>
      <point x="227" y="600" type="line"/>
      <point x="227" y="754"/>
      <point x="173" y="884"/>
      <point x="42" y="884" type="curve" smooth="yes"/>
      <point x="-42" y="884"/>
      <point x="-96" y="822"/>
      <point x="-96" y="753" type="curve" smooth="yes"/>
      <point x="-96" y="729"/>
      <point x="-88" y="700"/>
      <point x="-70" y="676" type="curve"/>
      <point x="-30" y="676" type="line"/>
      <point x="-29" y="679" type="line"/>
      <point x="-31" y="688"/>
      <point x="-32" y="699"/>
      <point x="-32" y="707" type="curve" smooth="yes"/>
      <point x="-32" y="760"/>
      <point x="5" y="802"/>
      <point x="62" y="802" type="curve" smooth="yes"/>
      <point x="149" y="802"/>
      <point x="157" y="728"/>
      <point x="157" y="662" type="curve" smooth="yes"/>
      <point x="157" y="639"/>
      <point x="154" y="618"/>
      <point x="153" y="600" type="curve"/>
    </contour>
  </outline>
</glyph>
<glyph name="g.SignU" format="2">
  <unicode hex="0A41"/>
  <outline>
    <contour>
      <point x="-540" y="-116" type="curve"/>
      <point x="-484" y="-146"/>
      <point x="-427" y="-165"/>
      <point x="-321" y="-165" type="curve" smooth="yes"/>
      <point x="-274" y="-165"/>
      <point x="-200" y="-155"/>
      <point x="-143" y="-137" type="curve"/>
      <point x="-141" y="-119"/>
      <point x="-140" y="-104"/>
      <point x="-140" y="-90" type="curve" smooth="yes"/>
      <point x="-140" y="-79"/>
      <point x="-140" y="-69"/>
      <point x="-142" y="-58" type="curve"/>
      <point x="-206" y="-78"/>
      <point x="-268" y="-90"/>
      <point x="-335" y="-90" type="curve" smooth="yes"/>
      <point x="-402" y="-90"/>
      <point x="-470" y="-78"/>
      <point x="-540" y="-57" type="curve"/>
      <point x="-542" y="-67"/>
      <point x="-543" y="-78"/>
      <point x="-543" y="-88" type="curve" smooth="yes"/>
      <point x="-543" y="-98"/>
      <point x="-542" y="-108"/>
    </contour>
  </outline>
  <guideline angle="90" x="-82" y="0"/>
</glyph>
<glyph name="g.SignUu" format="2">
  <unicode hex="0A42"/>
  <outline>
    <contour>
      <point x="-541" y="-117" type="curve"/>
      <point x="-484" y="-147"/>
      <point x="-417" y="-165"/>
      <point x="-329" y="-165" type="curve" smooth="yes"/>
      <point x="-280" y="-165"/>
      <point x="-214" y="-159"/>
      <point x="-143" y="-134" type="curve"/>
      <point x="-141" y="-118"/>
      <point x="-140" y="-103"/>
      <point x="-140" y="-90" type="curve" smooth="yes"/>
      <point x="-140" y="-79"/>
      <point x="-140" y="-69"/>
      <point x="-142" y="-58" type="curve"/>
      <point x="-206" y="-78"/>
      <point x="-268" y="-90"/>
      <point x="-335" y="-90" type="curve" smooth="yes"/>
      <point x="-402" y="-90"/>
      <point x="-470" y="-79"/>
      <point x="-540" y="-58" type="curve"/>
      <point x="-542" y="-69"/>
      <point x="-543" y="-80"/>
      <point x="-543" y="-91" type="curve" smooth="yes"/>
      <point x="-543" y="-100"/>
      <point x="-543" y="-109"/>
    </contour>
    <contour>
      <point x="-553" y="-244" type="curve"/>
      <point x="-497" y="-277"/>
      <point x="-432" y="-298"/>
      <point x="-342" y="-298" type="curve" smooth="yes"/>
      <point x="-292" y="-298"/>
      <point x="-230" y="-292"/>
      <point x="-159" y="-267" type="curve"/>
      <point x="-157" y="-251"/>
      <point x="-156" y="-236"/>
      <point x="-156" y="-223" type="curve" smooth="yes"/>
      <point x="-156" y="-212"/>
      <point x="-156" y="-202"/>
      <point x="-158" y="-191" type="curve"/>
      <point x="-222" y="-211"/>
      <point x="-284" y="-223"/>
      <point x="-351" y="-223" type="curve" smooth="yes"/>
      <point x="-417" y="-223"/>
      <point x="-485" y="-209"/>
      <point x="-553" y="-185" type="curve"/>
      <point x="-555" y="-195"/>
      <point x="-556" y="-206"/>
      <point x="-556" y="-216" type="curve" smooth="yes"/>
      <point x="-556" y="-226"/>
      <point x="-555" y="-236"/>
    </contour>
  </outline>
</glyph>
<glyph name="g.SignEe" format="2">
  <unicode hex="0A47"/>
  <outline>
    <contour>
      <point x="-372" y="748" type="curve"/>
      <point x="-297" y="756"/>
      <point x="-257" y="762"/>
      <point x="-228" y="762" type="curve" smooth="yes"/>
      <point x="-166" y="762"/>
      <point x="-123" y="738"/>
      <point x="-73" y="603" type="curve"/>
      <point x="-39" y="614" type="line"/>
      <point x="-103" y="819"/>
      <point x="-159" y="847"/>
      <point x="-252" y="847" type="curve" smooth="yes"/>
      <point x="-293" y="847"/>
      <point x="-354" y="839"/>
      <point x="-381" y="835" type="curve"/>
      <point x="-383" y="825"/>
      <point x="-384" y="816"/>
      <point x="-384" y="807" type="curve" smooth="yes"/>
      <point x="-384" y="784"/>
      <point x="-379" y="763"/>
    </contour>
  </outline>
</glyph>
<glyph name="g.SignAi" format="2">
  <unicode hex="0A48"/>
  <outline>
    <contour>
      <point x="-57" y="616" type="line"/>
      <point x="-129" y="745"/>
      <point x="-185" y="777"/>
      <point x="-268" y="777" type="curve" smooth="yes"/>
      <point x="-316" y="777"/>
      <point x="-358" y="770"/>
      <point x="-389" y="765" type="curve"/>
      <point x="-391" y="757"/>
      <point x="-391" y="749"/>
      <point x="-391" y="742" type="curve" smooth="yes"/>
      <point x="-391" y="720"/>
      <point x="-386" y="700"/>
      <point x="-378" y="686" type="curve"/>
      <point x="-303" y="694"/>
      <point x="-279" y="700"/>
      <point x="-238" y="700" type="curve" smooth="yes"/>
      <point x="-171" y="700"/>
      <point x="-143" y="688"/>
      <point x="-71" y="603" type="curve"/>
      <point x="-37" y="614" type="line"/>
      <point x="-84" y="882"/>
      <point x="-153" y="918"/>
      <point x="-259" y="918" type="curve" smooth="yes"/>
      <point x="-295" y="918"/>
      <point x="-341" y="911"/>
      <point x="-367" y="907" type="curve"/>
      <point x="-369" y="898"/>
      <point x="-370" y="890"/>
      <point x="-370" y="882" type="curve" smooth="yes"/>
      <point x="-370" y="861"/>
      <point x="-365" y="843"/>
      <point x="-358" y="829" type="curve"/>
      <point x="-282" y="836"/>
      <point x="-249" y="840"/>
      <point x="-226" y="840" type="curve" smooth="yes"/>
      <point x="-143" y="840"/>
      <point x="-114" y="792"/>
      <point x="-60" y="614" type="curve"/>
    </contour>
  </outline>
</glyph>
<glyph name="g.SignOo" format="2">
  <unicode hex="0A4B"/>
  <outline>
    <contour>
      <point x="-370" y="869" type="line"/>
      <point x="-374" y="856"/>
      <point x="-377" y="831"/>
      <point x="-377" y="813" type="curve" smooth="yes"/>
      <point x="-377" y="727"/>
      <point x="-302" y="707"/>
      <point x="-245" y="707" type="curve" smooth="yes"/>
      <point x="-210" y="707"/>
      <point x="-187" y="711"/>
      <point x="-162" y="711" type="curve" smooth="yes"/>
      <point x="-120" y="711"/>
      <point x="-64" y="707"/>
      <point x="-66" y="603" type="curve"/>
      <point x="-35" y="614" type="line"/>
      <point x="-33" y="628"/>
      <point x="-33" y="641"/>
      <point x="-33" y="654" type="curve" smooth="yes"/>
      <point x="-33" y="740"/>
      <point x="-69" y="795"/>
      <point x="-147" y="795" type="curve" smooth="yes"/>
      <point x="-176" y="795"/>
      <point x="-216" y="790"/>
      <point x="-252" y="790" type="curve" smooth="yes"/>
      <point x="-297" y="790"/>
      <point x="-348" y="802"/>
      <point x="-364" y="870" type="curve"/>
    </contour>
  </outline>
</glyph>
<glyph name="g.SignAu" format="2">
  <unicode hex="0A4C"/>
  <outline>
    <contour>
      <point x="-99" y="676" type="line"/>
      <point x="-98" y="679" type="line"/>
      <point x="-104" y="693"/>
      <point x="-107" y="708"/>
      <point x="-107" y="720" type="curve" smooth="yes"/>
      <point x="-107" y="766"/>
      <point x="-69" y="802"/>
      <point x="-15" y="802" type="curve" smooth="yes"/>
      <point x="28" y="802"/>
      <point x="53" y="779"/>
      <point x="53" y="745" type="curve" smooth="yes"/>
      <point x="53" y="718"/>
      <point x="37" y="698"/>
      <point x="18" y="679" type="curve"/>
      <point x="19" y="676" type="line"/>
      <point x="56" y="676" type="line"/>
      <point x="96" y="717"/>
      <point x="113" y="748"/>
      <point x="113" y="783" type="curve" smooth="yes"/>
      <point x="113" y="841"/>
      <point x="73" y="887"/>
      <point x="-6" y="887" type="curve"/>
      <point x="-130" y="818" type="line"/>
      <point x="-147" y="797"/>
      <point x="-158" y="770"/>
      <point x="-158" y="747" type="curve" smooth="yes"/>
      <point x="-158" y="719"/>
      <point x="-142" y="694"/>
      <point x="-126" y="676" type="curve"/>
    </contour>
    <contour>
      <point x="-6" y="887" type="line"/>
      <point x="-58" y="887"/>
      <point x="-91" y="862"/>
      <point x="-147" y="862" type="curve" smooth="yes"/>
      <point x="-204" y="862"/>
      <point x="-254" y="876"/>
      <point x="-282" y="948" type="curve"/>
      <point x="-288" y="946" type="line"/>
      <point x="-295" y="838"/>
      <point x="-249" y="780"/>
      <point x="-156" y="780" type="curve" smooth="yes"/>
      <point x="-150" y="780"/>
      <point x="-143" y="781"/>
      <point x="-137" y="781" type="curve"/>
    </contour>
  </outline>
</glyph>
<glyph name="g.Virama" format="2">
  <unicode hex="0A4D"/>
  <outline>
    <contour>
      <point x="-260" y="-130" type="curve"/>
      <point x="-226" y="-126"/>
      <point x="-214" y="-126"/>
      <point x="-206" y="-126" type="curve" smooth="yes"/>
      <point x="-155" y="-126"/>
      <point x="-122" y="-138"/>
      <point x="-44" y="-285" type="curve"/>
      <point x="-11" y="-264" type="line"/>
      <point x="-120" y="-50"/>
      <point x="-143" y="-42"/>
      <point x="-219" y="-42" type="curve" smooth="yes"/>
      <point x="-247" y="-42"/>
      <point x="-253" y="-44"/>
      <point x="-269" y="-45" type="curve"/>
      <point x="-271" y="-55"/>
      <point x="-272" y="-64"/>
      <point x="-272" y="-73" type="curve" smooth="yes"/>
      <point x="-272" y="-96"/>
      <point x="-267" y="-115"/>
    </contour>
  </outline>
</glyph>
<glyph name="g.Udaat" format="2">
  <unicode hex="0A51"/>
  <outline>
    <contour>
      <point x="-42" y="-193" type="curve" smooth="yes"/>
      <point x="-75" y="-182"/>
      <point x="-115" y="-205"/>
      <point x="-199" y="-42" type="curve"/>
      <point x="-232" y="-62" type="line"/>
      <point x="-159" y="-244"/>
      <point x="-116" y="-284"/>
      <point x="-66" y="-284" type="curve" smooth="yes"/>
      <point x="-31" y="-284"/>
      <point x="-14" y="-259"/>
      <point x="-14" y="-235" type="curve" smooth="yes"/>
      <point x="-14" y="-219"/>
      <point x="-22" y="-200"/>
    </contour>
  </outline>
</glyph>
<glyph name="g.Khha" format="2">
  <advance width="595"/>
  <unicode hex="0A59"/>
  <outline>
    <contour>
      <point x="208" y="355" type="line"/>
      <point x="247" y="357"/>
      <point x="326" y="359"/>
      <point x="384" y="359" type="curve" smooth="yes"/>
      <point x="468" y="359" type="line"/>
      <point x="482" y="432" type="line"/>
      <point x="395" y="432" type="line" smooth="yes"/>
      <point x="319" y="432"/>
      <point x="269" y="430"/>
      <point x="222" y="428" type="curve"/>
    </contour>
    <contour>
      <point x="278" y="109" type="curve" smooth="yes"/>
      <point x="330" y="109"/>
      <point x="397" y="136"/>
      <point x="431" y="161" type="curve"/>
      <point x="452" y="267" type="line"/>
      <point x="412" y="231"/>
      <point x="338" y="189"/>
      <point x="277" y="189" type="curve" smooth="yes"/>
      <point x="222" y="189"/>
      <point x="189" y="211"/>
      <point x="157" y="247" type="curve"/>
      <point x="225" y="329"/>
      <point x="248" y="392"/>
      <point x="248" y="474" type="curve" smooth="yes"/>
      <point x="248" y="523"/>
      <point x="238" y="585"/>
      <point x="227" y="620" type="curve"/>
      <point x="47" y="620" type="line"/>
      <point x="47" y="594"/>
      <point x="50" y="567"/>
      <point x="57" y="542" type="curve"/>
      <point x="161" y="542" type="line"/>
      <point x="168" y="518"/>
      <point x="171" y="485"/>
      <point x="171" y="472" type="curve" smooth="yes"/>
      <point x="171" y="388"/>
      <point x="136" y="340"/>
      <point x="65" y="264" type="curve"/>
      <point x="115" y="183"/>
      <point x="190" y="109"/>
    </contour>
    <contour>
      <point x="570" y="542" type="line"/>
      <point x="667" y="542" type="line"/>
      <point x="667" y="569"/>
      <point x="664" y="596"/>
      <point x="657" y="620" type="curve"/>
      <point x="499" y="620" type="line"/>
      <point x="380" y="10" type="line"/>
      <point x="402" y="-4"/>
      <point x="437" y="-12"/>
      <point x="462" y="-12" type="curve"/>
    </contour>
    <contour>
      <point x="3" y="49" type="curve" smooth="yes"/>
      <point x="3" y="17"/>
      <point x="26" y="-5"/>
      <point x="57" y="-5" type="curve" smooth="yes"/>
      <point x="94" y="-5"/>
      <point x="126" y="26"/>
      <point x="126" y="65" type="curve" smooth="yes"/>
      <point x="126" y="93"/>
      <point x="109" y="117"/>
      <point x="74" y="117" type="curve" smooth="yes"/>
      <point x="34" y="117"/>
      <point x="3" y="86"/>
    </contour>
  </outline>
</glyph>
<glyph name="g.Ghha" format="2">
  <advance width="775"/>
  <unicode hex="0A5A"/>
  <outline>
    <contour>
      <point x="337" y="-15" type="curve" smooth="yes"/>
      <point x="421" y="-15"/>
      <point x="459" y="44"/>
      <point x="481" y="159" type="curve" smooth="yes"/>
      <point x="532" y="428"/>
      <point x="531" y="427"/>
      <point x="556" y="562" type="curve"/>
      <point x="473" y="562" type="line"/>
      <point x="458" y="485"/>
      <point x="446" y="417"/>
      <point x="438" y="375" type="curve" smooth="yes"/>
      <point x="430" y="334"/>
      <point x="437" y="366"/>
      <point x="403" y="191" type="curve" smooth="yes"/>
      <point x="383" y="87"/>
      <point x="364" y="62"/>
      <point x="322" y="62" type="curve" smooth="yes"/>
      <point x="253" y="62"/>
      <point x="187" y="119"/>
      <point x="187" y="242" type="curve" smooth="yes"/>
      <point x="187" y="312"/>
      <point x="223" y="331"/>
      <point x="323" y="331" type="curve" smooth="yes"/>
      <point x="390" y="331"/>
      <point x="415" y="330"/>
      <point x="446" y="328" type="curve"/>
      <point x="464" y="401" type="line"/>
      <point x="419" y="403"/>
      <point x="406" y="405"/>
      <point x="315" y="405" type="curve" smooth="yes"/>
      <point x="181" y="405"/>
      <point x="106" y="381"/>
      <point x="106" y="256" type="curve" smooth="yes"/>
      <point x="106" y="115"/>
      <point x="203" y="-15"/>
    </contour>
    <contour>
      <point x="753" y="562" type="line"/>
      <point x="667" y="562" type="line"/>
      <point x="560" y="10" type="line"/>
      <point x="582" y="-4"/>
      <point x="617" y="-12"/>
      <point x="642" y="-12" type="curve"/>
    </contour>
    <contour>
      <point x="847" y="542" type="line"/>
      <point x="847" y="569"/>
      <point x="844" y="596"/>
      <point x="837" y="620" type="curve"/>
      <point x="46" y="620" type="line"/>
      <point x="46" y="594"/>
      <point x="49" y="567"/>
      <point x="56" y="542" type="curve"/>
    </contour>
    <contour>
      <point x="-10" y="19" type="curve" smooth="yes"/>
      <point x="-10" y="-13"/>
      <point x="13" y="-35"/>
      <point x="44" y="-35" type="curve" smooth="yes"/>
      <point x="81" y="-35"/>
      <point x="113" y="-4"/>
      <point x="113" y="35" type="curve" smooth="yes"/>
      <point x="113" y="63"/>
      <point x="96" y="87"/>
      <point x="61" y="87" type="curve" smooth="yes"/>
      <point x="21" y="87"/>
      <point x="-10" y="56"/>
    </contour>
  </outline>
</glyph>
<glyph name="g.Za" format="2">
  <advance width="643"/>
  <unicode hex="0A5B"/>
  <outline>
    <contour>
      <point x="621" y="562" type="line"/>
      <point x="535" y="562" type="line"/>
      <point x="428" y="10" type="line"/>
      <point x="450" y="-4"/>
      <point x="485" y="-12"/>
      <point x="510" y="-12" type="curve"/>
    </contour>
    <contour>
      <point x="715" y="542" type="line"/>
      <point x="715" y="569"/>
      <point x="712" y="596"/>
      <point x="705" y="620" type="curve"/>
      <point x="47" y="620" type="line"/>
      <point x="47" y="594"/>
      <point x="50" y="567"/>
      <point x="57" y="542" type="curve"/>
    </contour>
    <contour>
      <point x="177" y="-11" type="curve"/>
      <point x="211" y="153"/>
      <point x="250" y="329"/>
      <point x="250" y="384" type="curve" smooth="yes"/>
      <point x="250" y="412"/>
      <point x="242" y="423"/>
      <point x="226" y="423" type="curve" smooth="yes"/>
      <point x="166" y="423"/>
      <point x="49" y="323"/>
      <point x="49" y="259" type="curve" smooth="yes"/>
      <point x="49" y="226"/>
      <point x="88" y="227"/>
      <point x="140" y="227" type="curve" smooth="yes"/>
      <point x="205" y="227" type="line" smooth="yes"/>
      <point x="299" y="227"/>
      <point x="397" y="227"/>
      <point x="491" y="228" type="curve"/>
      <point x="506" y="305" type="line"/>
      <point x="384" y="303"/>
      <point x="314" y="303"/>
      <point x="220" y="303" type="curve"/>
      <point x="147" y="248" type="line"/>
      <point x="136" y="185"/>
      <point x="114" y="89"/>
      <point x="95" y="10" type="curve"/>
      <point x="117" y="-4"/>
      <point x="154" y="-11"/>
    </contour>
    <contour>
      <point x="253" y="49" type="curve" smooth="yes"/>
      <point x="253" y="17"/>
      <point x="276" y="-5"/>
      <point x="307" y="-5" type="curve" smooth="yes"/>
      <point x="344" y="-5"/>
      <point x="376" y="26"/>
      <point x="376" y="65" type="curve" smooth="yes"/>
      <point x="376" y="93"/>
      <point x="359" y="117"/>
      <point x="324" y="117" type="curve" smooth="yes"/>
      <point x="284" y="117"/>
      <point x="253" y="86"/>
    </contour>
  </outline>
  <guideline angle="90" x="357" y="0"/>
</glyph>
<glyph name="g.Fa" format="2">
  <advance width="620"/>
  <unicode hex="0A5E"/>
  <outline>
    <contour>
      <point x="343" y="-15" type="curve" smooth="yes"/>
      <point x="437" y="-15"/>
      <point x="518" y="42"/>
      <point x="518" y="133" type="curve" smooth="yes"/>
      <point x="518" y="213"/>
      <point x="451" y="267"/>
      <point x="368" y="267" type="curve" smooth="yes"/>
      <point x="294" y="267"/>
      <point x="213" y="227"/>
      <point x="161" y="172" type="curve"/>
      <point x="182" y="103" type="line"/>
      <point x="244" y="157"/>
      <point x="312" y="191"/>
      <point x="374" y="191" type="curve" smooth="yes"/>
      <point x="416" y="191"/>
      <point x="445" y="177"/>
      <point x="445" y="139" type="curve" smooth="yes"/>
      <point x="445" y="97"/>
      <point x="402" y="62"/>
      <point x="333" y="62" type="curve" smooth="yes"/>
      <point x="228" y="62"/>
      <point x="181" y="133"/>
      <point x="181" y="242" type="curve" smooth="yes"/>
      <point x="181" y="354"/>
      <point x="242" y="358"/>
      <point x="380" y="358" type="curve" smooth="yes"/>
      <point x="478" y="358"/>
      <point x="525" y="356"/>
      <point x="558" y="356" type="curve"/>
      <point x="566" y="362" type="line"/>
      <point x="567" y="367"/>
      <point x="592" y="503"/>
      <point x="601" y="562" type="curve"/>
      <point x="515" y="562" type="line"/>
      <point x="511" y="529"/>
      <point x="494" y="438"/>
      <point x="493" y="433" type="curve"/>
      <point x="433" y="434"/>
      <point x="425" y="434"/>
      <point x="348" y="434" type="curve" smooth="yes"/>
      <point x="223" y="434"/>
      <point x="101" y="416"/>
      <point x="101" y="266" type="curve" smooth="yes"/>
      <point x="101" y="130"/>
      <point x="184" y="-15"/>
    </contour>
    <contour>
      <point x="692" y="542" type="line"/>
      <point x="692" y="569"/>
      <point x="689" y="596"/>
      <point x="682" y="620" type="curve"/>
      <point x="47" y="620" type="line"/>
      <point x="47" y="594"/>
      <point x="50" y="567"/>
      <point x="57" y="542" type="curve"/>
    </contour>
    <contour>
      <point x="-12" y="19" type="curve" smooth="yes"/>
      <point x="-12" y="-13"/>
      <point x="11" y="-35"/>
      <point x="42" y="-35" type="curve" smooth="yes"/>
      <point x="79" y="-35"/>
      <point x="111" y="-4"/>
      <point x="111" y="35" type="curve" smooth="yes"/>
      <point x="111" y="63"/>
      <point x="94" y="87"/>
      <point x="59" y="87" type="curve" smooth="yes"/>
      <point x="19" y="87"/>
      <point x="-12" y="56"/>
    </contour>
  </outline>
</glyph>
<glyph name="g.Zero" format="2">
  <advance width="641"/>
  <unicode hex="0A66"/>
  <outline>
    <contour>
      <point x="287" y="124" type="curve" smooth="yes"/>
      <point x="198" y="124"/>
      <point x="144" y="179"/>
      <point x="144" y="266" type="curve" smooth="yes"/>
      <point x="144" y="385"/>
      <point x="244" y="493"/>
      <point x="374" y="493" type="curve" smooth="yes"/>
      <point x="470" y="493"/>
      <point x="520" y="435"/>
      <point x="520" y="348" type="curve" smooth="yes"/>
      <point x="520" y="215"/>
      <point x="402" y="124"/>
    </contour>
    <contour>
      <point x="312" y="48" type="curve" smooth="yes"/>
      <point x="459" y="48"/>
      <point x="595" y="157"/>
      <point x="595" y="322" type="curve" smooth="yes"/>
      <point x="595" y="453"/>
      <point x="509" y="568"/>
      <point x="350" y="568" type="curve" smooth="yes"/>
      <point x="193" y="568"/>
      <point x="67" y="456"/>
      <point x="67" y="296" type="curve" smooth="yes"/>
      <point x="67" y="152"/>
      <point x="169" y="48"/>
    </contour>
  </outline>
  <guideline angle="0" x="0" y="48"/>
  <guideline angle="0" x="0" y="568"/>
</glyph>
<glyph name="g.One" format="2">
  <advance width="534"/>
  <unicode hex="0A67"/>
  <outline>
    <contour>
      <point x="421" y="-12" type="curve"/>
      <point x="409" y="19"/>
      <point x="404" y="65"/>
      <point x="404" y="96" type="curve" smooth="yes"/>
      <point x="404" y="228"/>
      <point x="496" y="351"/>
      <point x="496" y="458" type="curve" smooth="yes"/>
      <point x="496" y="561"/>
      <point x="412" y="635"/>
      <point x="293" y="635" type="curve" smooth="yes"/>
      <point x="167" y="635"/>
      <point x="80" y="552"/>
      <point x="80" y="453" type="curve" smooth="yes"/>
      <point x="80" y="362"/>
      <point x="153" y="302"/>
      <point x="263" y="302" type="curve" smooth="yes"/>
      <point x="314" y="302"/>
      <point x="368" y="315"/>
      <point x="409" y="336" type="curve"/>
      <point x="426" y="428" type="line"/>
      <point x="378" y="392"/>
      <point x="309" y="377"/>
      <point x="257" y="377" type="curve" smooth="yes"/>
      <point x="191" y="377"/>
      <point x="158" y="406"/>
      <point x="158" y="452" type="curve" smooth="yes"/>
      <point x="158" y="515"/>
      <point x="231" y="562"/>
      <point x="305" y="562" type="curve" smooth="yes"/>
      <point x="378" y="562"/>
      <point x="414" y="534"/>
      <point x="414" y="467" type="curve" smooth="yes"/>
      <point x="414" y="360"/>
      <point x="320" y="238"/>
      <point x="320" y="90" type="curve" smooth="yes"/>
      <point x="320" y="57"/>
      <point x="324" y="29"/>
      <point x="336" y="8" type="curve"/>
      <point x="359" y="-5"/>
      <point x="395" y="-12"/>
    </contour>
  </outline>
</glyph>
<glyph name="g.Two" format="2">
  <advance width="607"/>
  <unicode hex="0A68"/>
  <outline>
    <contour>
      <point x="478" y="-22" type="curve"/>
      <point x="420" y="166"/>
      <point x="341" y="304"/>
      <point x="193" y="304" type="curve" smooth="yes"/>
      <point x="128" y="304"/>
      <point x="95" y="281"/>
      <point x="95" y="250" type="curve" smooth="yes"/>
      <point x="95" y="213"/>
      <point x="144" y="183"/>
      <point x="219" y="183" type="curve" smooth="yes"/>
      <point x="343" y="183"/>
      <point x="548" y="249"/>
      <point x="548" y="425" type="curve" smooth="yes"/>
      <point x="548" y="538"/>
      <point x="469" y="635"/>
      <point x="312" y="635" type="curve" smooth="yes"/>
      <point x="260" y="635"/>
      <point x="190" y="625"/>
      <point x="143" y="614" type="curve"/>
      <point x="137" y="587"/>
      <point x="137" y="555"/>
      <point x="143" y="532" type="curve"/>
      <point x="188" y="546"/>
      <point x="262" y="562"/>
      <point x="321" y="562" type="curve" smooth="yes"/>
      <point x="397" y="562"/>
      <point x="471" y="536"/>
      <point x="471" y="440" type="curve" smooth="yes"/>
      <point x="471" y="353"/>
      <point x="391" y="297"/>
      <point x="285" y="272" type="curve"/>
      <point x="283" y="206" type="line"/>
      <point x="320" y="163"/>
      <point x="361" y="69"/>
      <point x="383" y="-2" type="curve"/>
      <point x="405" y="-15"/>
      <point x="453" y="-22"/>
    </contour>
  </outline>
</glyph>
<glyph name="g.Three" format="2">
  <advance width="596"/>
  <unicode hex="0A69"/>
  <outline>
    <contour>
      <point x="284" y="-4" type="line"/>
      <point x="433" y="4"/>
      <point x="502" y="72"/>
      <point x="502" y="173" type="curve" smooth="yes"/>
      <point x="502" y="231"/>
      <point x="471" y="297"/>
      <point x="404" y="336" type="curve" smooth="yes"/>
      <point x="350" y="367"/>
      <point x="292" y="387"/>
      <point x="233" y="387" type="curve" smooth="yes"/>
      <point x="157" y="387"/>
      <point x="112" y="365"/>
      <point x="112" y="331" type="curve" smooth="yes"/>
      <point x="112" y="296"/>
      <point x="171" y="269"/>
      <point x="250" y="269" type="curve" smooth="yes"/>
      <point x="296" y="269"/>
      <point x="356" y="278"/>
      <point x="405" y="305" type="curve"/>
      <point x="491" y="325"/>
      <point x="556" y="377"/>
      <point x="556" y="463" type="curve" smooth="yes"/>
      <point x="556" y="558"/>
      <point x="481" y="635"/>
      <point x="315" y="635" type="curve" smooth="yes"/>
      <point x="261" y="635"/>
      <point x="212" y="630"/>
      <point x="139" y="614" type="curve"/>
      <point x="133" y="587"/>
      <point x="133" y="555"/>
      <point x="139" y="532" type="curve"/>
      <point x="200" y="550"/>
      <point x="249" y="562"/>
      <point x="310" y="562" type="curve" smooth="yes"/>
      <point x="394" y="562"/>
      <point x="479" y="538"/>
      <point x="479" y="472" type="curve" smooth="yes"/>
      <point x="479" y="403"/>
      <point x="408" y="376"/>
      <point x="328" y="357" type="curve"/>
      <point x="320" y="312" type="line"/>
      <point x="386" y="293"/>
      <point x="418" y="236"/>
      <point x="418" y="184" type="curve" smooth="yes"/>
      <point x="418" y="111"/>
      <point x="353" y="66"/>
      <point x="243" y="63" type="curve"/>
      <point x="214" y="106"/>
      <point x="160" y="155"/>
      <point x="104" y="155" type="curve" smooth="yes"/>
      <point x="50" y="155"/>
      <point x="37" y="122"/>
      <point x="37" y="101" type="curve" smooth="yes"/>
      <point x="37" y="56"/>
      <point x="92" y="-9"/>
      <point x="250" y="-9" type="curve"/>
    </contour>
    <contour>
      <point x="441" y="-135" type="curve" smooth="yes"/>
      <point x="454" y="-135"/>
      <point x="467" y="-134"/>
      <point x="474" y="-133" type="curve"/>
      <point x="488" y="-114"/>
      <point x="504" y="-71"/>
      <point x="508" y="-49" type="curve"/>
      <point x="505" y="-48" type="line"/>
      <point x="483" y="-53"/>
      <point x="457" y="-55"/>
      <point x="437" y="-55" type="curve" smooth="yes"/>
      <point x="376" y="-55"/>
      <point x="332" y="-36"/>
      <point x="299" y="-5" type="curve"/>
      <point x="303" y="13" type="line"/>
      <point x="204" y="3" type="line"/>
      <point x="258" y="-68"/>
      <point x="331" y="-135"/>
    </contour>
  </outline>
</glyph>
<glyph name="g.Four" format="2">
  <advance width="656"/>
  <unicode hex="0A6A"/>
  <outline>
    <contour>
      <point x="356" y="284" type="curve" smooth="yes"/>
      <point x="481" y="284"/>
      <point x="624" y="324"/>
      <point x="624" y="460" type="curve" smooth="yes"/>
      <point x="624" y="555"/>
      <point x="554" y="608"/>
      <point x="481" y="626" type="curve"/>
      <point x="454" y="566" type="line"/>
      <point x="512" y="551"/>
      <point x="547" y="520"/>
      <point x="547" y="472" type="curve" smooth="yes"/>
      <point x="547" y="399"/>
      <point x="465" y="349"/>
      <point x="341" y="349" type="curve" smooth="yes"/>
      <point x="239" y="349"/>
      <point x="189" y="383"/>
      <point x="189" y="436" type="curve" smooth="yes"/>
      <point x="189" y="490"/>
      <point x="242" y="531"/>
      <point x="329" y="550" type="curve"/>
      <point x="332" y="569"/>
      <point x="319" y="616"/>
      <point x="306" y="635" type="curve"/>
      <point x="173" y="597"/>
      <point x="110" y="527"/>
      <point x="110" y="442" type="curve" smooth="yes"/>
      <point x="110" y="330"/>
      <point x="221" y="284"/>
    </contour>
    <contour>
      <point x="294" y="60" type="curve" smooth="yes"/>
      <point x="206" y="60"/>
      <point x="144" y="95"/>
      <point x="144" y="155" type="curve" smooth="yes"/>
      <point x="144" y="218"/>
      <point x="212" y="276"/>
      <point x="332" y="276" type="curve" smooth="yes"/>
      <point x="426" y="276"/>
      <point x="480" y="241"/>
      <point x="480" y="182" type="curve" smooth="yes"/>
      <point x="480" y="108"/>
      <point x="396" y="60"/>
    </contour>
    <contour>
      <point x="186" y="329" type="line"/>
      <point x="182" y="314" type="line"/>
      <point x="88" y="280"/>
      <point x="63" y="218"/>
      <point x="63" y="162" type="curve" smooth="yes"/>
      <point x="63" y="47"/>
      <point x="169" y="-15"/>
      <point x="306" y="-15" type="curve" smooth="yes"/>
      <point x="450" y="-15"/>
      <point x="558" y="53"/>
      <point x="558" y="170" type="curve" smooth="yes"/>
      <point x="558" y="230"/>
      <point x="529" y="273"/>
      <point x="489" y="297" type="curve"/>
      <point x="494" y="324" type="line"/>
    </contour>
  </outline>
  <guideline angle="79.0044" x="282" y="0"/>
</glyph>
<glyph name="g.Five" format="2">
  <advance width="598"/>
  <unicode hex="0A6B"/>
  <outline>
    <contour>
      <point x="279" y="109" type="curve" smooth="yes"/>
      <point x="333" y="109"/>
      <point x="400" y="136"/>
      <point x="434" y="161" type="curve"/>
      <point x="455" y="267" type="line"/>
      <point x="415" y="231"/>
      <point x="341" y="189"/>
      <point x="280" y="189" type="curve" smooth="yes"/>
      <point x="230" y="189"/>
      <point x="194" y="208"/>
      <point x="163" y="246" type="curve"/>
      <point x="221" y="315"/>
      <point x="246" y="372"/>
      <point x="246" y="464" type="curve" smooth="yes"/>
      <point x="246" y="519"/>
      <point x="230" y="575"/>
      <point x="202" y="626" type="curve"/>
      <point x="135" y="587" type="line"/>
      <point x="160" y="537"/>
      <point x="167" y="487"/>
      <point x="167" y="459" type="curve" smooth="yes"/>
      <point x="167" y="389"/>
      <point x="141" y="344"/>
      <point x="59" y="261" type="curve"/>
      <point x="112" y="188"/>
      <point x="189" y="109"/>
    </contour>
    <contour>
      <point x="585" y="608" type="line"/>
      <point x="563" y="622"/>
      <point x="528" y="630"/>
      <point x="503" y="630" type="curve"/>
      <point x="383" y="10" type="line"/>
      <point x="405" y="-4"/>
      <point x="439" y="-12"/>
      <point x="464" y="-12" type="curve"/>
    </contour>
  </outline>
  <guideline angle="79.0044" x="104" y="0"/>
</glyph>
<glyph name="g.Six" format="2">
  <advance width="617"/>
  <unicode hex="0A6C"/>
  <outline>
    <contour>
      <point x="286" y="320" type="line"/>
      <point x="226" y="343"/>
      <point x="201" y="389"/>
      <point x="201" y="435" type="curve" smooth="yes"/>
      <point x="201" y="503"/>
      <point x="278" y="552"/>
      <point x="396" y="555" type="curve"/>
      <point x="422" y="513"/>
      <point x="461" y="468"/>
      <point x="534" y="468" type="curve" smooth="yes"/>
      <point x="574" y="468"/>
      <point x="597" y="490"/>
      <point x="597" y="521" type="curve" smooth="yes"/>
      <point x="597" y="577"/>
      <point x="520" y="625"/>
      <point x="415" y="625" type="curve"/>
      <point x="239" y="625"/>
      <point x="117" y="567"/>
      <point x="117" y="449" type="curve" smooth="yes"/>
      <point x="117" y="381"/>
      <point x="151" y="326"/>
      <point x="217" y="295" type="curve"/>
    </contour>
    <contour>
      <point x="460" y="601" type="line"/>
      <point x="455" y="617"/>
      <point x="453" y="633"/>
      <point x="453" y="645" type="curve" smooth="yes"/>
      <point x="453" y="705"/>
      <point x="486" y="751"/>
      <point x="600" y="751" type="curve"/>
      <point x="601" y="751"/>
      <point x="606" y="751"/>
      <point x="618" y="750" type="curve"/>
      <point x="634" y="829" type="line"/>
      <point x="620" y="830"/>
      <point x="606" y="831"/>
      <point x="593" y="831" type="curve" smooth="yes"/>
      <point x="439" y="831"/>
      <point x="379" y="761"/>
      <point x="379" y="668" type="curve" smooth="yes"/>
      <point x="379" y="648"/>
      <point x="384" y="626"/>
      <point x="388" y="604" type="curve"/>
    </contour>
    <contour>
      <point x="406" y="356" type="curve" smooth="yes"/>
      <point x="358" y="356"/>
      <point x="280" y="343"/>
      <point x="228" y="320" type="curve"/>
      <point x="124" y="293"/>
      <point x="60" y="244"/>
      <point x="60" y="161" type="curve" smooth="yes"/>
      <point x="60" y="101"/>
      <point x="97" y="-15"/>
      <point x="320" y="-15" type="curve" smooth="yes"/>
      <point x="359" y="-15"/>
      <point x="422" y="-10"/>
      <point x="481" y="9" type="curve"/>
      <point x="496" y="34"/>
      <point x="507" y="64"/>
      <point x="517" y="97" type="curve"/>
      <point x="513" y="98" type="line"/>
      <point x="456" y="73"/>
      <point x="370" y="58"/>
      <point x="311" y="58" type="curve" smooth="yes"/>
      <point x="203" y="58"/>
      <point x="137" y="90"/>
      <point x="137" y="147" type="curve" smooth="yes"/>
      <point x="137" y="201"/>
      <point x="180" y="237"/>
      <point x="271" y="260" type="curve"/>
      <point x="314" y="244"/>
      <point x="358" y="237"/>
      <point x="397" y="237" type="curve" smooth="yes"/>
      <point x="474" y="237"/>
      <point x="520" y="260"/>
      <point x="520" y="300" type="curve" smooth="yes"/>
      <point x="520" y="335"/>
      <point x="476" y="356"/>
    </contour>
  </outline>
</glyph>
<glyph name="g.Seven" format="2">
  <advance width="570"/>
  <unicode hex="0A6D"/>
  <outline>
    <contour>
      <point x="-14" y="-4" type="curve"/>
      <point x="336" y="13"/>
      <point x="541" y="168"/>
      <point x="541" y="404" type="curve" smooth="yes"/>
      <point x="541" y="559"/>
      <point x="449" y="635"/>
      <point x="336" y="635" type="curve" smooth="yes"/>
      <point x="224" y="635"/>
      <point x="131" y="558"/>
      <point x="131" y="458" type="curve" smooth="yes"/>
      <point x="131" y="407"/>
      <point x="153" y="358"/>
      <point x="204" y="320" type="curve"/>
      <point x="253" y="367" type="line"/>
      <point x="227" y="389"/>
      <point x="215" y="414"/>
      <point x="215" y="446" type="curve" smooth="yes"/>
      <point x="215" y="508"/>
      <point x="270" y="563"/>
      <point x="345" y="563" type="curve" smooth="yes"/>
      <point x="419" y="563"/>
      <point x="467" y="516"/>
      <point x="467" y="428" type="curve" smooth="yes"/>
      <point x="467" y="222"/>
      <point x="272" y="85"/>
      <point x="-15" y="71" type="curve"/>
      <point x="-18" y="58"/>
      <point x="-19" y="46"/>
      <point x="-19" y="34" type="curve" smooth="yes"/>
      <point x="-19" y="21"/>
      <point x="-17" y="8"/>
    </contour>
  </outline>
</glyph>
<glyph name="g.Eight" format="2">
  <advance width="568"/>
  <unicode hex="0A6E"/>
  <outline>
    <contour>
      <point x="337" y="-15" type="curve" smooth="yes"/>
      <point x="384" y="-15"/>
      <point x="433" y="-3"/>
      <point x="475" y="26" type="curve"/>
      <point x="488" y="45"/>
      <point x="507" y="95"/>
      <point x="511" y="117" type="curve"/>
      <point x="509" y="118" type="line"/>
      <point x="463" y="89"/>
      <point x="399" y="64"/>
      <point x="329" y="64" type="curve" smooth="yes"/>
      <point x="257" y="64"/>
      <point x="206" y="93"/>
      <point x="206" y="216" type="curve" smooth="yes"/>
      <point x="206" y="304"/>
      <point x="243" y="421"/>
      <point x="253" y="457" type="curve"/>
      <point x="258" y="475" type="line"/>
      <point x="280" y="538"/>
      <point x="293" y="575"/>
      <point x="293" y="601" type="curve" smooth="yes"/>
      <point x="293" y="625"/>
      <point x="285" y="635"/>
      <point x="265" y="635" type="curve" smooth="yes"/>
      <point x="195" y="635"/>
      <point x="81" y="522"/>
      <point x="81" y="462" type="curve" smooth="yes"/>
      <point x="81" y="430"/>
      <point x="114" y="429"/>
      <point x="167" y="429" type="curve" smooth="yes"/>
      <point x="231" y="429"/>
      <point x="307" y="432"/>
      <point x="390" y="432" type="curve" smooth="yes"/>
      <point x="412" y="432"/>
      <point x="467" y="432"/>
      <point x="543" y="430" type="curve"/>
      <point x="550" y="436" type="line"/>
      <point x="566" y="506" type="line"/>
      <point x="513" y="509"/>
      <point x="425" y="509"/>
      <point x="394" y="509" type="curve" smooth="yes"/>
      <point x="362" y="509"/>
      <point x="227" y="507"/>
      <point x="181" y="498" type="curve"/>
      <point x="147" y="385"/>
      <point x="133" y="331"/>
      <point x="133" y="248" type="curve" smooth="yes"/>
      <point x="133" y="71"/>
      <point x="220" y="-15"/>
    </contour>
  </outline>
</glyph>
<glyph name="g.Nine" format="2">
  <advance width="578"/>
  <unicode hex="0A6F"/>
  <outline>
    <contour>
      <point x="337" y="-15" type="curve" smooth="yes"/>
      <point x="384" y="-15"/>
      <point x="433" y="-3"/>
      <point x="475" y="26" type="curve"/>
      <point x="488" y="45"/>
      <point x="507" y="95"/>
      <point x="511" y="117" type="curve"/>
      <point x="509" y="118" type="line"/>
      <point x="463" y="89"/>
      <point x="399" y="64"/>
      <point x="329" y="64" type="curve" smooth="yes"/>
      <point x="257" y="64"/>
      <point x="206" y="93"/>
      <point x="206" y="216" type="curve" smooth="yes"/>
      <point x="206" y="304"/>
      <point x="243" y="421"/>
      <point x="253" y="457" type="curve"/>
      <point x="258" y="475" type="line"/>
      <point x="280" y="538"/>
      <point x="293" y="575"/>
      <point x="293" y="601" type="curve" smooth="yes"/>
      <point x="293" y="625"/>
      <point x="285" y="635"/>
      <point x="265" y="635" type="curve" smooth="yes"/>
      <point x="195" y="635"/>
      <point x="81" y="522"/>
      <point x="81" y="462" type="curve" smooth="yes"/>
      <point x="81" y="430"/>
      <point x="114" y="429"/>
      <point x="167" y="429" type="curve" smooth="yes"/>
      <point x="231" y="429"/>
      <point x="307" y="432"/>
      <point x="390" y="432" type="curve" smooth="yes"/>
      <point x="412" y="432"/>
      <point x="477" y="432"/>
      <point x="553" y="430" type="curve"/>
      <point x="560" y="436" type="line"/>
      <point x="574" y="505" type="line"/>
      <point x="513" y="509"/>
      <point x="425" y="509"/>
      <point x="394" y="509" type="curve" smooth="yes"/>
      <point x="362" y="509"/>
      <point x="227" y="507"/>
      <point x="181" y="498" type="curve"/>
      <point x="147" y="385"/>
      <point x="133" y="331"/>
      <point x="133" y="248" type="curve" smooth="yes"/>
      <point x="133" y="71"/>
      <point x="220" y="-15"/>
    </contour>
    <contour>
      <point x="570" y="487" type="line"/>
      <point x="574" y="505" type="line"/>
      <point x="522" y="549"/>
      <point x="485" y="588"/>
      <point x="485" y="649" type="curve" smooth="yes"/>
      <point x="485" y="701"/>
      <point x="528" y="744"/>
      <point x="598" y="744" type="curve" smooth="yes"/>
      <point x="607" y="744"/>
      <point x="611" y="744"/>
      <point x="621" y="743" type="curve"/>
      <point x="639" y="819" type="line"/>
      <point x="620" y="821"/>
      <point x="612" y="821"/>
      <point x="600" y="821" type="curve" smooth="yes"/>
      <point x="466" y="821"/>
      <point x="411" y="751"/>
      <point x="411" y="662" type="curve" smooth="yes"/>
      <point x="411" y="593"/>
      <point x="452" y="546"/>
      <point x="485" y="511" type="curve"/>
      <point x="480" y="487" type="line"/>
    </contour>
  </outline>
  <guideline angle="90" x="517" y="0"/>
  <guideline angle="79.0044" x="475" y="0"/>
</glyph>
<glyph name="g.Tippi" format="2">
  <unicode hex="0A70"/>
  <outline>
    <contour>
      <point x="56" y="676" type="line"/>
      <point x="82" y="701"/>
      <point x="113" y="737"/>
      <point x="113" y="782" type="curve" smooth="yes"/>
      <point x="113" y="845"/>
      <point x="69" y="887"/>
      <point x="-8" y="887" type="curve" smooth="yes"/>
      <point x="-106" y="887"/>
      <point x="-170" y="835"/>
      <point x="-170" y="755" type="curve" smooth="yes"/>
      <point x="-170" y="730"/>
      <point x="-161" y="700"/>
      <point x="-138" y="676" type="curve"/>
      <point x="-111" y="676" type="line"/>
      <point x="-109" y="679" type="line"/>
      <point x="-115" y="693"/>
      <point x="-119" y="708"/>
      <point x="-119" y="722" type="curve" smooth="yes"/>
      <point x="-119" y="771"/>
      <point x="-76" y="802"/>
      <point x="-20" y="802" type="curve" smooth="yes"/>
      <point x="27" y="802"/>
      <point x="53" y="779"/>
      <point x="53" y="744" type="curve" smooth="yes"/>
      <point x="53" y="722"/>
      <point x="37" y="698"/>
      <point x="19" y="679" type="curve"/>
      <point x="19" y="676" type="line"/>
    </contour>
  </outline>
</glyph>
<glyph name="g.Addak" format="2">
  <unicode hex="0A71"/>
  <outline>
    <contour>
      <point x="135" y="873" type="line"/>
      <point x="89" y="780"/>
      <point x="37" y="759"/>
      <point x="-26" y="759" type="curve" smooth="yes"/>
      <point x="-99" y="759"/>
      <point x="-137" y="804"/>
      <point x="-146" y="871" type="curve"/>
      <point x="-151" y="870" type="line"/>
      <point x="-167" y="842"/>
      <point x="-170" y="816"/>
      <point x="-170" y="798" type="curve" smooth="yes"/>
      <point x="-170" y="729"/>
      <point x="-123" y="675"/>
      <point x="-28" y="675" type="curve" smooth="yes"/>
      <point x="64" y="675"/>
      <point x="143" y="729"/>
      <point x="143" y="844" type="curve" smooth="yes"/>
      <point x="143" y="852"/>
      <point x="143" y="867"/>
      <point x="142" y="874" type="curve"/>
    </contour>
  </outline>
</glyph>
<glyph name="g.Iri" format="2">
  <advance width="603"/>
  <unicode hex="0A72"/>
  <outline>
    <contour>
      <point x="313" y="-15" type="curve" smooth="yes"/>
      <point x="363" y="-15"/>
      <point x="426" y="2"/>
      <point x="465" y="27" type="curve"/>
      <point x="478" y="46"/>
      <point x="495" y="96"/>
      <point x="499" y="118" type="curve"/>
      <point x="496" y="119" type="line"/>
      <point x="456" y="93"/>
      <point x="376" y="62"/>
      <point x="316" y="62" type="curve" smooth="yes"/>
      <point x="233" y="62"/>
      <point x="172" y="117"/>
      <point x="137" y="182" type="curve"/>
      <point x="197" y="258"/>
      <point x="264" y="300"/>
      <point x="398" y="300" type="curve" smooth="yes"/>
      <point x="420" y="300"/>
      <point x="480" y="299"/>
      <point x="525" y="298" type="curve"/>
      <point x="532" y="304" type="line"/>
      <point x="533" y="308"/>
      <point x="566" y="485"/>
      <point x="580" y="562" type="curve"/>
      <point x="495" y="562" type="line"/>
      <point x="486" y="507"/>
      <point x="462" y="379"/>
      <point x="461" y="375" type="curve"/>
      <point x="460" y="375"/>
      <point x="421" y="376"/>
      <point x="402" y="376" type="curve" smooth="yes"/>
      <point x="262" y="376"/>
      <point x="133" y="324"/>
      <point x="55" y="198" type="curve"/>
      <point x="86" y="131"/>
      <point x="177" y="-15"/>
    </contour>
    <contour>
      <point x="320" y="364" type="line"/>
      <point x="265" y="374"/>
      <point x="221" y="424"/>
      <point x="221" y="509" type="curve" smooth="yes"/>
      <point x="221" y="525"/>
      <point x="222" y="543"/>
      <point x="226" y="562" type="curve"/>
      <point x="138" y="562" type="line"/>
      <point x="135" y="546"/>
      <point x="134" y="530"/>
      <point x="134" y="515" type="curve" smooth="yes"/>
      <point x="134" y="440"/>
      <point x="168" y="375"/>
      <point x="218" y="343" type="curve"/>
      <point x="215" y="325" type="line"/>
    </contour>
    <contour>
      <point x="675" y="542" type="line"/>
      <point x="675" y="569"/>
      <point x="672" y="596"/>
      <point x="665" y="620" type="curve"/>
      <point x="47" y="620" type="line"/>
      <point x="47" y="594"/>
      <point x="50" y="567"/>
      <point x="57" y="542" type="curve"/>
    </contour>
  </outline>
</glyph>
<glyph name="g.Ura" format="2">
  <advance width="644"/>
  <unicode hex="0A73"/>
  <outline>
    <contour>
      <point x="340" y="-15" type="curve" smooth="yes"/>
      <point x="447" y="-15"/>
      <point x="513" y="57"/>
      <point x="513" y="152" type="curve" smooth="yes"/>
      <point x="513" y="224"/>
      <point x="483" y="271"/>
      <point x="447" y="306" type="curve"/>
      <point x="379" y="291" type="line"/>
      <point x="409" y="262"/>
      <point x="429" y="216"/>
      <point x="429" y="173" type="curve" smooth="yes"/>
      <point x="429" y="104"/>
      <point x="398" y="62"/>
      <point x="324" y="62" type="curve" smooth="yes"/>
      <point x="208" y="62"/>
      <point x="170" y="225"/>
      <point x="170" y="386" type="curve" smooth="yes"/>
      <point x="170" y="694"/>
      <point x="284" y="812"/>
      <point x="414" y="812" type="curve" smooth="yes"/>
      <point x="537" y="812"/>
      <point x="582" y="720"/>
      <point x="582" y="620" type="curve" smooth="yes"/>
      <point x="582" y="428"/>
      <point x="500" y="350"/>
      <point x="338" y="350" type="curve" smooth="yes"/>
      <point x="294" y="350"/>
      <point x="256" y="350"/>
      <point x="146" y="358" type="curve"/>
      <point x="150" y="285" type="line"/>
      <point x="244" y="277"/>
      <point x="297" y="276"/>
      <point x="334" y="276" type="curve" smooth="yes"/>
      <point x="558" y="276"/>
      <point x="656" y="380"/>
      <point x="656" y="589" type="curve" smooth="yes"/>
      <point x="656" y="732"/>
      <point x="579" y="890"/>
      <point x="407" y="890" type="curve" smooth="yes"/>
      <point x="185" y="890"/>
      <point x="90" y="662"/>
      <point x="90" y="417" type="curve" smooth="yes"/>
      <point x="90" y="183"/>
      <point x="168" y="-15"/>
    </contour>
    <contour>
      <point x="716" y="542" type="line"/>
      <point x="716" y="569"/>
      <point x="713" y="596"/>
      <point x="706" y="620" type="curve"/>
      <point x="47" y="620" type="line"/>
      <point x="47" y="594"/>
      <point x="50" y="567"/>
      <point x="57" y="542" type="curve"/>
    </contour>
  </outline>
</glyph>
<glyph name="g.EkOnkar" format="2">
  <advance width="1158"/>
  <unicode hex="0A74"/>
  <outline>
    <contour>
      <point x="848" y="-15" type="curve" smooth="yes"/>
      <point x="956" y="-15"/>
      <point x="1027" y="57"/>
      <point x="1027" y="152" type="curve" smooth="yes"/>
      <point x="1027" y="217"/>
      <point x="1000" y="271"/>
      <point x="961" y="306" type="curve"/>
      <point x="894" y="291" type="line"/>
      <point x="921" y="262"/>
      <point x="943" y="216"/>
      <point x="943" y="173" type="curve" smooth="yes"/>
      <point x="943" y="111"/>
      <point x="911" y="62"/>
      <point x="844" y="62" type="curve" smooth="yes"/>
      <point x="723" y="62"/>
      <point x="684" y="222"/>
      <point x="684" y="385" type="curve" smooth="yes"/>
      <point x="684" y="694"/>
      <point x="790" y="812"/>
      <point x="934" y="812" type="curve" smooth="yes"/>
      <point x="998" y="812"/>
      <point x="1084" y="789"/>
      <point x="1105" y="676" type="curve"/>
      <point x="1168" y="676" type="line"/>
      <point x="1168" y="775" type="line"/>
      <point x="1124" y="775" type="line"/>
      <point x="1092" y="840"/>
      <point x="1041" y="890"/>
      <point x="928" y="890" type="curve" smooth="yes"/>
      <point x="718" y="890"/>
      <point x="604" y="685"/>
      <point x="604" y="406" type="curve" smooth="yes"/>
      <point x="604" y="183"/>
      <point x="685" y="-15"/>
    </contour>
    <contour>
      <point x="843" y="276" type="curve" smooth="yes"/>
      <point x="1073" y="276"/>
      <point x="1170" y="380"/>
      <point x="1170" y="590" type="curve" smooth="yes"/>
      <point x="1170" y="597"/>
      <point x="1170" y="615"/>
      <point x="1170" y="620" type="curve"/>
      <point x="1168" y="620"/>
      <point x="1094" y="621"/>
      <point x="958" y="621" type="curve" smooth="yes"/>
      <point x="813" y="621"/>
      <point x="779" y="620"/>
      <point x="701" y="619" type="curve"/>
      <point x="687" y="544" type="line"/>
      <point x="763" y="545"/>
      <point x="838" y="545"/>
      <point x="892" y="545" type="curve" smooth="yes"/>
      <point x="915" y="545"/>
      <point x="984" y="545"/>
      <point x="1089" y="542" type="curve"/>
      <point x="1075" y="420"/>
      <point x="1009" y="350"/>
      <point x="828" y="350" type="curve" smooth="yes"/>
      <point x="792" y="350"/>
      <point x="750" y="351"/>
      <point x="660" y="358" type="curve"/>
      <point x="664" y="285" type="line"/>
      <point x="758" y="277"/>
      <point x="811" y="276"/>
    </contour>
    <contour>
      <point x="1168" y="676" type="line"/>
      <point x="1203" y="790"/>
      <point x="1264" y="872"/>
      <point x="1388" y="872" type="curve" smooth="yes"/>
      <point x="1473" y="872"/>
      <point x="1530" y="825"/>
      <point x="1559" y="743" type="curve"/>
      <point x="1608" y="743" type="line"/>
      <point x="1609" y="746" type="line"/>
      <point x="1578" y="867"/>
      <point x="1502" y="949"/>
      <point x="1360" y="949" type="curve" smooth="yes"/>
      <point x="1267" y="949"/>
      <point x="1180" y="898"/>
      <point x="1121" y="761" type="curve"/>
    </contour>
    <contour>
      <point x="385" y="346" type="line" smooth="yes"/>
      <point x="362" y="260"/>
      <point x="338" y="202"/>
      <point x="338" y="138" type="curve" smooth="yes"/>
      <point x="338" y="85"/>
      <point x="351" y="34"/>
      <point x="382" y="5" type="curve"/>
      <point x="404" y="-6"/>
      <point x="445" y="-12"/>
      <point x="470" y="-12" type="curve"/>
      <point x="432" y="27"/>
      <point x="417" y="84"/>
      <point x="417" y="137" type="curve" smooth="yes"/>
      <point x="417" y="258"/>
      <point x="492" y="340"/>
      <point x="492" y="450" type="curve" smooth="yes"/>
      <point x="492" y="559"/>
      <point x="418" y="635"/>
      <point x="297" y="635" type="curve" smooth="yes"/>
      <point x="175" y="635"/>
      <point x="80" y="559"/>
      <point x="80" y="457" type="curve" smooth="yes"/>
      <point x="80" y="369"/>
      <point x="150" y="302"/>
      <point x="262" y="302" type="curve" smooth="yes"/>
      <point x="312" y="302"/>
      <point x="355" y="315"/>
      <point x="392" y="333" type="curve"/>
      <point x="420" y="429" type="line"/>
      <point x="375" y="397"/>
      <point x="321" y="377"/>
      <point x="264" y="377" type="curve" smooth="yes"/>
      <point x="192" y="377"/>
      <point x="158" y="409"/>
      <point x="158" y="451" type="curve" smooth="yes"/>
      <point x="158" y="507"/>
      <point x="218" y="562"/>
      <point x="307" y="562" type="curve" smooth="yes"/>
      <point x="375" y="562"/>
      <point x="411" y="530"/>
      <point x="411" y="460" type="curve" smooth="yes"/>
      <point x="411" y="443"/>
      <point x="409" y="428"/>
      <point x="401" y="405" type="curve"/>
    </contour>
  </outline>
</glyph>
<glyph name="g.Yakash" format="2">
  <unicode hex="0A75"/>
  <outline>
    <contour>
      <point x="-91" y="-238" type="curve" smooth="yes"/>
      <point x="-61" y="-238"/>
      <point x="-31" y="-227"/>
      <point x="-9" y="-211" type="curve"/>
      <point x="2" y="-196"/>
      <point x="19" y="-143"/>
      <point x="22" y="-125" type="curve"/>
      <point x="20" y="-124" type="line"/>
      <point x="-11" y="-147"/>
      <point x="-52" y="-168"/>
      <point x="-90" y="-168" type="curve" smooth="yes"/>
      <point x="-126" y="-168"/>
      <point x="-151" y="-157"/>
      <point x="-151" y="-117" type="curve" smooth="yes"/>
      <point x="-151" y="-108"/>
      <point x="-150" y="-97"/>
      <point x="-148" y="-86" type="curve" smooth="yes"/>
      <point x="-120" y="60" type="line"/>
      <point x="-206" y="60" type="line"/>
      <point x="-224" y="-33" type="line" smooth="yes"/>
      <point x="-228" y="-55"/>
      <point x="-230" y="-66"/>
      <point x="-230" y="-80" type="curve" smooth="yes"/>
      <point x="-230" y="-172"/>
      <point x="-176" y="-238"/>
    </contour>
  </outline>
</glyph>
<glyph name="g.Abbreviation" format="2">
  <advance width="233"/>
  <unicode hex="0A76"/>
  <outline>
    <contour>
      <point x="63" y="292" type="curve" smooth="yes"/>
      <point x="63" y="259"/>
      <point x="86" y="237"/>
      <point x="118" y="237" type="curve" smooth="yes"/>
      <point x="155" y="237"/>
      <point x="188" y="269"/>
      <point x="188" y="308" type="curve" smooth="yes"/>
      <point x="188" y="337"/>
      <point x="171" y="361"/>
      <point x="135" y="361" type="curve" smooth="yes"/>
      <point x="94" y="361"/>
      <point x="63" y="329"/>
    </contour>
  </outline>
  <guideline angle="0" x="0" y="310"/>
</glyph>
<glyph name="flowerpunc" format="2">
  <advance width="590"/>
  <unicode hex="2055"/>
  <outline>
    <contour>
      <point x="134" y="376" type="curve" smooth="yes"/>
      <point x="161" y="350"/>
      <point x="234" y="323"/>
      <point x="283" y="277" type="curve"/>
      <point x="292" y="286" type="line"/>
      <point x="227" y="355"/>
      <point x="212" y="450"/>
      <point x="161" y="450" type="curve" smooth="yes"/>
      <point x="137" y="450"/>
      <point x="119" y="429"/>
      <point x="119" y="408" type="curve" smooth="yes"/>
      <point x="119" y="397"/>
      <point x="124" y="385"/>
    </contour>
    <contour>
      <point x="462" y="166" type="curve" smooth="yes"/>
      <point x="435" y="194"/>
      <point x="362" y="219"/>
      <point x="313" y="265" type="curve"/>
      <point x="304" y="256" type="line"/>
      <point x="369" y="187"/>
      <point x="384" y="92"/>
      <point x="435" y="92" type="curve" smooth="yes"/>
      <point x="459" y="92"/>
      <point x="477" y="113"/>
      <point x="477" y="134" type="curve" smooth="yes"/>
      <point x="477" y="145"/>
      <point x="471" y="157"/>
    </contour>
    <contour>
      <point x="193" y="107" type="curve" smooth="yes"/>
      <point x="219" y="134"/>
      <point x="246" y="207"/>
      <point x="292" y="256" type="curve"/>
      <point x="283" y="265" type="line"/>
      <point x="215" y="200"/>
      <point x="119" y="185"/>
      <point x="119" y="134" type="curve" smooth="yes"/>
      <point x="119" y="113"/>
      <point x="137" y="92"/>
      <point x="161" y="92" type="curve" smooth="yes"/>
      <point x="172" y="92"/>
      <point x="184" y="97"/>
    </contour>
    <contour>
      <point x="403" y="435" type="curve" smooth="yes"/>
      <point x="375" y="407"/>
      <point x="350" y="335"/>
      <point x="304" y="286" type="curve"/>
      <point x="313" y="277" type="line"/>
      <point x="381" y="341"/>
      <point x="477" y="358"/>
      <point x="477" y="408" type="curve" smooth="yes"/>
      <point x="477" y="429"/>
      <point x="459" y="450"/>
      <point x="436" y="450" type="curve" smooth="yes"/>
      <point x="424" y="450"/>
      <point x="412" y="444"/>
    </contour>
    <contour>
      <point x="256" y="461" type="curve" smooth="yes"/>
      <point x="256" y="424"/>
      <point x="289" y="353"/>
      <point x="292" y="286" type="curve"/>
      <point x="304" y="286" type="line"/>
      <point x="307" y="353"/>
      <point x="340" y="424"/>
      <point x="340" y="461" type="curve" smooth="yes"/>
      <point x="340" y="486"/>
      <point x="324" y="506"/>
      <point x="298" y="506" type="curve" smooth="yes"/>
      <point x="272" y="506"/>
      <point x="256" y="486"/>
    </contour>
    <contour>
      <point x="340" y="81" type="curve" smooth="yes"/>
      <point x="340" y="118"/>
      <point x="307" y="189"/>
      <point x="304" y="256" type="curve"/>
      <point x="292" y="256" type="line"/>
      <point x="289" y="189"/>
      <point x="256" y="118"/>
      <point x="256" y="81" type="curve" smooth="yes"/>
      <point x="256" y="56"/>
      <point x="272" y="36"/>
      <point x="298" y="36" type="curve" smooth="yes"/>
      <point x="324" y="36"/>
      <point x="340" y="56"/>
    </contour>
    <contour>
      <point x="253" y="271" type="curve" smooth="yes"/>
      <point x="253" y="246"/>
      <point x="273" y="226"/>
      <point x="298" y="226" type="curve" smooth="yes"/>
      <point x="323" y="226"/>
      <point x="343" y="246"/>
      <point x="343" y="271" type="curve" smooth="yes"/>
      <point x="343" y="296"/>
      <point x="323" y="316"/>
      <point x="298" y="316" type="curve" smooth="yes"/>
      <point x="273" y="316"/>
      <point x="253" y="296"/>
    </contour>
    <contour>
      <point x="108" y="229" type="curve" smooth="yes"/>
      <point x="145" y="229"/>
      <point x="216" y="262"/>
      <point x="283" y="265" type="curve"/>
      <point x="283" y="277" type="line"/>
      <point x="216" y="280"/>
      <point x="145" y="313"/>
      <point x="108" y="313" type="curve" smooth="yes"/>
      <point x="83" y="313"/>
      <point x="63" y="297"/>
      <point x="63" y="271" type="curve" smooth="yes"/>
      <point x="63" y="245"/>
      <point x="83" y="229"/>
    </contour>
    <contour>
      <point x="488" y="313" type="curve" smooth="yes"/>
      <point x="451" y="313"/>
      <point x="380" y="280"/>
      <point x="313" y="277" type="curve"/>
      <point x="313" y="265" type="line"/>
      <point x="380" y="262"/>
      <point x="451" y="229"/>
      <point x="488" y="229" type="curve" smooth="yes"/>
      <point x="513" y="229"/>
      <point x="533" y="245"/>
      <point x="533" y="271" type="curve" smooth="yes"/>
      <point x="533" y="297"/>
      <point x="513" y="313"/>
    </contour>
  </outline>
  <guideline angle="90" x="308" y="0"/>
</glyph>
<glyph name="g.Khanda" format="2">
  <advance width="934"/>
  <unicode hex="262C"/>
  <outline>
    <contour>
      <point x="411" y="55" type="line"/>
      <point x="481" y="3" type="line"/>
      <point x="554" y="55" type="line"/>
      <point x="634" y="-7" type="line"/>
      <point x="637" y="-5" type="line"/>
      <point x="637" y="70"/>
      <point x="849" y="163"/>
      <point x="849" y="362" type="curve" smooth="yes"/>
      <point x="849" y="573"/>
      <point x="670" y="639"/>
      <point x="654" y="639" type="curve"/>
      <point x="653" y="635" type="line"/>
      <point x="744" y="574"/>
      <point x="771" y="502"/>
      <point x="771" y="427" type="curve" smooth="yes"/>
      <point x="771" y="287"/>
      <point x="643" y="180"/>
      <point x="482" y="63" type="curve"/>
      <point x="321" y="181"/>
      <point x="194" y="287"/>
      <point x="194" y="427" type="curve" smooth="yes"/>
      <point x="194" y="501"/>
      <point x="221" y="574"/>
      <point x="312" y="635" type="curve"/>
      <point x="310" y="639" type="line"/>
      <point x="296" y="639"/>
      <point x="115" y="573"/>
      <point x="115" y="362" type="curve" smooth="yes"/>
      <point x="115" y="163"/>
      <point x="329" y="70"/>
      <point x="329" y="-5" type="curve"/>
      <point x="331" y="-7" type="line"/>
    </contour>
    <contour>
      <point x="363" y="-119" type="curve" smooth="yes"/>
      <point x="373" y="-119"/>
      <point x="387" y="-114"/>
      <point x="397" y="-103" type="curve"/>
      <point x="388" y="-94"/>
      <point x="387" y="-88"/>
      <point x="387" y="-79" type="curve" smooth="yes"/>
      <point x="387" y="-63"/>
      <point x="405" y="-44"/>
      <point x="460" y="-7" type="curve"/>
      <point x="503" y="-7" type="line"/>
      <point x="565" y="-44"/>
      <point x="578" y="-61"/>
      <point x="578" y="-79" type="curve" smooth="yes"/>
      <point x="578" y="-88"/>
      <point x="576" y="-94"/>
      <point x="568" y="-103" type="curve"/>
      <point x="579" y="-114"/>
      <point x="590" y="-119"/>
      <point x="602" y="-119" type="curve" smooth="yes"/>
      <point x="625" y="-119"/>
      <point x="642" y="-101"/>
      <point x="642" y="-77" type="curve" smooth="yes"/>
      <point x="642" y="-58"/>
      <point x="631" y="-47"/>
      <point x="612" y="-33" type="curve" smooth="yes"/>
      <point x="515" y="37" type="line"/>
      <point x="449" y="37" type="line"/>
      <point x="352" y="-33" type="line" smooth="yes"/>
      <point x="332" y="-47"/>
      <point x="322" y="-59"/>
      <point x="322" y="-77" type="curve" smooth="yes"/>
      <point x="322" y="-102"/>
      <point x="341" y="-119"/>
    </contour>
    <contour>
      <point x="482" y="-220" type="curve" smooth="yes"/>
      <point x="523" y="-220"/>
      <point x="537" y="-187"/>
      <point x="537" y="-166" type="curve"/>
      <point x="521" y="-154"/>
      <point x="509" y="-138"/>
      <point x="509" y="-105" type="curve" smooth="yes"/>
      <point x="509" y="-15" type="line"/>
      <point x="522" y="-2" type="line"/>
      <point x="509" y="8" type="line"/>
      <point x="509" y="134" type="line"/>
      <point x="566" y="178" type="line"/>
      <point x="541" y="276"/>
      <point x="537" y="358"/>
      <point x="537" y="429" type="curve" smooth="yes"/>
      <point x="537" y="510"/>
      <point x="544" y="573"/>
      <point x="570" y="683" type="curve"/>
      <point x="536" y="714"/>
      <point x="508" y="748"/>
      <point x="483" y="780" type="curve"/>
      <point x="480" y="780" type="line"/>
      <point x="456" y="748"/>
      <point x="428" y="714"/>
      <point x="395" y="683" type="curve"/>
      <point x="420" y="574"/>
      <point x="427" y="510"/>
      <point x="427" y="429" type="curve" smooth="yes"/>
      <point x="427" y="358"/>
      <point x="423" y="301"/>
      <point x="399" y="178" type="curve"/>
      <point x="455" y="134" type="line"/>
      <point x="455" y="8" type="line"/>
      <point x="442" y="-2" type="line"/>
      <point x="455" y="-15" type="line"/>
      <point x="455" y="-105" type="line" smooth="yes"/>
      <point x="455" y="-138"/>
      <point x="445" y="-152"/>
      <point x="427" y="-166" type="curve"/>
      <point x="427" y="-187"/>
      <point x="443" y="-220"/>
    </contour>
    <contour>
      <point x="436" y="259" type="line"/>
      <point x="348" y="278"/>
      <point x="306" y="348"/>
      <point x="306" y="437" type="curve" smooth="yes"/>
      <point x="306" y="525"/>
      <point x="346" y="593"/>
      <point x="431" y="614" type="curve"/>
      <point x="424" y="656" type="line"/>
      <point x="323" y="625"/>
      <point x="261" y="540"/>
      <point x="261" y="437" type="curve" smooth="yes"/>
      <point x="261" y="334"/>
      <point x="327" y="242"/>
      <point x="428" y="217" type="curve"/>
    </contour>
    <contour>
      <point x="536" y="215" type="line"/>
      <point x="641" y="242"/>
      <point x="704" y="332"/>
      <point x="704" y="437" type="curve" smooth="yes"/>
      <point x="704" y="540"/>
      <point x="645" y="625"/>
      <point x="540" y="656" type="curve"/>
      <point x="534" y="615" type="line"/>
      <point x="616" y="592"/>
      <point x="661" y="523"/>
      <point x="661" y="437" type="curve" smooth="yes"/>
      <point x="661" y="348"/>
      <point x="615" y="275"/>
      <point x="528" y="258" type="curve"/>
    </contour>
  </outline>
</glyph>
<glyph name="niFractionOneQuarter" format="2">
  <advance width="256"/>
  <unicode hex="A830"/>
  <outline>
    <contour>
      <point x="38" y="10" type="line"/>
      <point x="60" y="-4"/>
      <point x="95" y="-12"/>
      <point x="120" y="-12" type="curve"/>
      <point x="240" y="608" type="line"/>
      <point x="218" y="622"/>
      <point x="183" y="630"/>
      <point x="158" y="630" type="curve"/>
    </contour>
  </outline>
</glyph>
<glyph name="niFractionOneHalf" format="2">
  <advance width="462"/>
  <unicode hex="A831"/>
  <outline>
    <contour>
      <point x="38" y="10" type="line"/>
      <point x="60" y="-4"/>
      <point x="95" y="-12"/>
      <point x="120" y="-12" type="curve"/>
      <point x="240" y="608" type="line"/>
      <point x="218" y="622"/>
      <point x="183" y="630"/>
      <point x="158" y="630" type="curve"/>
    </contour>
    <contour>
      <point x="244" y="10" type="line"/>
      <point x="266" y="-4"/>
      <point x="301" y="-12"/>
      <point x="326" y="-12" type="curve"/>
      <point x="446" y="608" type="line"/>
      <point x="424" y="622"/>
      <point x="389" y="630"/>
      <point x="364" y="630" type="curve"/>
    </contour>
  </outline>
</glyph>
<glyph name="niFractionThreeQuarters" format="2">
  <advance width="668"/>
  <unicode hex="A832"/>
  <outline>
    <contour>
      <point x="38" y="10" type="line"/>
      <point x="60" y="-4"/>
      <point x="95" y="-12"/>
      <point x="120" y="-12" type="curve"/>
      <point x="240" y="608" type="line"/>
      <point x="218" y="622"/>
      <point x="183" y="630"/>
      <point x="158" y="630" type="curve"/>
    </contour>
    <contour>
      <point x="244" y="10" type="line"/>
      <point x="266" y="-4"/>
      <point x="301" y="-12"/>
      <point x="326" y="-12" type="curve"/>
      <point x="446" y="608" type="line"/>
      <point x="424" y="622"/>
      <point x="389" y="630"/>
      <point x="364" y="630" type="curve"/>
    </contour>
    <contour>
      <point x="450" y="10" type="line"/>
      <point x="472" y="-4"/>
      <point x="507" y="-12"/>
      <point x="532" y="-12" type="curve"/>
      <point x="652" y="608" type="line"/>
      <point x="630" y="622"/>
      <point x="595" y="630"/>
      <point x="570" y="630" type="curve"/>
    </contour>
  </outline>
</glyph>
<glyph name="niFractionOneSixteenth" format="2">
  <advance width="628"/>
  <unicode hex="A833"/>
  <outline>
    <contour>
      <point x="628" y="523" type="line"/>
      <point x="630" y="537"/>
      <point x="631" y="550"/>
      <point x="631" y="563" type="curve" smooth="yes"/>
      <point x="631" y="576"/>
      <point x="630" y="588"/>
      <point x="628" y="600" type="curve"/>
      <point x="97" y="495" type="line"/>
      <point x="94" y="481"/>
      <point x="93" y="468"/>
      <point x="93" y="454" type="curve" smooth="yes"/>
      <point x="93" y="441"/>
      <point x="94" y="428"/>
      <point x="97" y="417" type="curve"/>
    </contour>
  </outline>
  <guideline angle="0" x="0" y="304"/>
</glyph>
<glyph name="niFractionOneEighth" format="2">
  <advance width="628"/>
  <unicode hex="A834"/>
  <outline>
    <contour>
      <point x="628" y="523" type="line"/>
      <point x="629" y="538"/>
      <point x="631" y="552"/>
      <point x="631" y="566" type="curve" smooth="yes"/>
      <point x="631" y="578"/>
      <point x="630" y="589"/>
      <point x="628" y="600" type="curve"/>
      <point x="97" y="495" type="line"/>
      <point x="94" y="481"/>
      <point x="93" y="468"/>
      <point x="93" y="454" type="curve" smooth="yes"/>
      <point x="93" y="441"/>
      <point x="94" y="428"/>
      <point x="97" y="417" type="curve"/>
    </contour>
    <contour>
      <point x="588" y="318" type="line"/>
      <point x="590" y="332"/>
      <point x="591" y="345"/>
      <point x="591" y="358" type="curve" smooth="yes"/>
      <point x="591" y="371"/>
      <point x="590" y="383"/>
      <point x="588" y="395" type="curve"/>
      <point x="57" y="290" type="line"/>
      <point x="54" y="276"/>
      <point x="53" y="263"/>
      <point x="53" y="249" type="curve" smooth="yes"/>
      <point x="53" y="236"/>
      <point x="54" y="223"/>
      <point x="57" y="212" type="curve"/>
    </contour>
  </outline>
  <guideline angle="0" x="0" y="304"/>
</glyph>
<glyph name="niFractionThreeSixteenths" format="2">
  <advance width="628"/>
  <unicode hex="A835"/>
  <outline>
    <contour>
      <point x="627" y="523" type="line"/>
      <point x="629" y="538"/>
      <point x="630" y="552"/>
      <point x="630" y="565" type="curve" smooth="yes"/>
      <point x="630" y="577"/>
      <point x="629" y="589"/>
      <point x="627" y="600" type="curve"/>
      <point x="97" y="495" type="line"/>
      <point x="94" y="481"/>
      <point x="93" y="468"/>
      <point x="93" y="454" type="curve" smooth="yes"/>
      <point x="93" y="441"/>
      <point x="94" y="428"/>
      <point x="97" y="417" type="curve"/>
    </contour>
    <contour>
      <point x="588" y="318" type="line"/>
      <point x="589" y="333"/>
      <point x="591" y="347"/>
      <point x="591" y="361" type="curve" smooth="yes"/>
      <point x="591" y="373"/>
      <point x="590" y="384"/>
      <point x="588" y="395" type="curve"/>
      <point x="57" y="290" type="line"/>
      <point x="54" y="276"/>
      <point x="53" y="263"/>
      <point x="53" y="249" type="curve" smooth="yes"/>
      <point x="53" y="236"/>
      <point x="54" y="223"/>
      <point x="57" y="212" type="curve"/>
    </contour>
    <contour>
      <point x="548" y="114" type="line"/>
      <point x="550" y="128"/>
      <point x="551" y="141"/>
      <point x="551" y="154" type="curve" smooth="yes"/>
      <point x="551" y="167"/>
      <point x="550" y="179"/>
      <point x="548" y="191" type="curve"/>
      <point x="17" y="86" type="line"/>
      <point x="14" y="72"/>
      <point x="13" y="59"/>
      <point x="13" y="45" type="curve" smooth="yes"/>
      <point x="13" y="32"/>
      <point x="14" y="19"/>
      <point x="17" y="8" type="curve"/>
    </contour>
  </outline>
  <guideline angle="0" x="0" y="304"/>
</glyph>
<glyph name="niQuarterMark" format="2">
  <advance width="451"/>
  <unicode hex="A836"/>
  <outline>
    <contour>
      <point x="209" y="189" type="curve" smooth="yes"/>
      <point x="159" y="189"/>
      <point x="129" y="220"/>
      <point x="129" y="265" type="curve" smooth="yes"/>
      <point x="129" y="329"/>
      <point x="189" y="387"/>
      <point x="260" y="387" type="curve" smooth="yes"/>
      <point x="310" y="387"/>
      <point x="337" y="359"/>
      <point x="337" y="315" type="curve" smooth="yes"/>
      <point x="337" y="251"/>
      <point x="279" y="189"/>
    </contour>
    <contour>
      <point x="224" y="121" type="curve" smooth="yes"/>
      <point x="319" y="121"/>
      <point x="400" y="186"/>
      <point x="400" y="293" type="curve" smooth="yes"/>
      <point x="400" y="387"/>
      <point x="339" y="454"/>
      <point x="240" y="454" type="curve" smooth="yes"/>
      <point x="134" y="454"/>
      <point x="65" y="376"/>
      <point x="65" y="280" type="curve" smooth="yes"/>
      <point x="65" y="189"/>
      <point x="127" y="121"/>
    </contour>
  </outline>
</glyph>
<glyph name="niPlaceholderMark" format="2">
  <advance width="481"/>
  <unicode hex="A837"/>
  <outline>
    <contour>
      <point x="176" y="368" type="line"/>
      <point x="308" y="397" type="line"/>
      <point x="304" y="412" type="line"/>
      <point x="372" y="447"/>
      <point x="423" y="478"/>
      <point x="486" y="529" type="curve"/>
      <point x="486" y="558"/>
      <point x="482" y="595"/>
      <point x="476" y="620" type="curve"/>
      <point x="372" y="534"/>
      <point x="360" y="526"/>
      <point x="157" y="405" type="curve" smooth="yes"/>
      <point x="99" y="370"/>
      <point x="60" y="324"/>
      <point x="59" y="243" type="curve"/>
    </contour>
    <contour>
      <point x="219" y="91" type="curve" smooth="yes"/>
      <point x="318" y="91"/>
      <point x="394" y="160"/>
      <point x="394" y="265" type="curve" smooth="yes"/>
      <point x="394" y="341"/>
      <point x="355" y="414"/>
      <point x="250" y="414" type="curve" smooth="yes"/>
      <point x="145" y="414"/>
      <point x="59" y="341"/>
      <point x="59" y="243" type="curve" smooth="yes"/>
      <point x="59" y="162"/>
      <point x="118" y="91"/>
    </contour>
    <contour>
      <point x="203" y="159" type="curve" smooth="yes"/>
      <point x="153" y="159"/>
      <point x="123" y="190"/>
      <point x="123" y="235" type="curve" smooth="yes"/>
      <point x="123" y="299"/>
      <point x="183" y="357"/>
      <point x="254" y="357" type="curve" smooth="yes"/>
      <point x="304" y="357"/>
      <point x="331" y="329"/>
      <point x="331" y="285" type="curve" smooth="yes"/>
      <point x="331" y="221"/>
      <point x="273" y="159"/>
    </contour>
  </outline>
</glyph>
<glyph name="niRupeeMark" format="2">
  <advance width="201"/>
  <unicode hex="A838"/>
  <outline>
    <contour>
      <point x="126" y="630" type="curve"/>
      <point x="122" y="468"/>
      <point x="105" y="336"/>
      <point x="84" y="234" type="curve" smooth="yes"/>
      <point x="51" y="71"/>
      <point x="15" y="8"/>
      <point x="-20" y="-30" type="curve" smooth="yes"/>
      <point x="-86" y="-103"/>
      <point x="-204" y="-131"/>
      <point x="-378" y="-134" type="curve"/>
      <point x="-378" y="-160"/>
      <point x="-374" y="-191"/>
      <point x="-368" y="-217" type="curve"/>
      <point x="-140" y="-211"/>
      <point x="-33" y="-165"/>
      <point x="36" y="-78" type="curve" smooth="yes"/>
      <point x="78" y="-26"/>
      <point x="115" y="46"/>
      <point x="144" y="190" type="curve" smooth="yes"/>
      <point x="167" y="302"/>
      <point x="185" y="441"/>
      <point x="187" y="621" type="curve"/>
      <point x="168" y="627"/>
      <point x="146" y="630"/>
    </contour>
  </outline>
  <guideline angle="79.0044" x="61" y="0"/>
</glyph>
<glyph name="niQuantityMark" format="2">
  <advance width="326"/>
  <unicode hex="A839"/>
  <outline>
    <contour>
      <point x="343" y="620" type="curve"/>
      <point x="204" y="610"/>
      <point x="118" y="571"/>
      <point x="86" y="403" type="curve" smooth="yes"/>
      <point x="66" y="298"/>
      <point x="77" y="157"/>
      <point x="62" y="79" type="curve" smooth="yes"/>
      <point x="38" y="-42"/>
      <point x="-68" y="-126"/>
      <point x="-378" y="-134" type="curve"/>
      <point x="-378" y="-160"/>
      <point x="-374" y="-191"/>
      <point x="-368" y="-217" type="curve"/>
      <point x="-33" y="-203"/>
      <point x="93" y="-94"/>
      <point x="122" y="55" type="curve" smooth="yes"/>
      <point x="139" y="143"/>
      <point x="126" y="282"/>
      <point x="145" y="381" type="curve" smooth="yes"/>
      <point x="167" y="493"/>
      <point x="214" y="530"/>
      <point x="353" y="542" type="curve"/>
      <point x="353" y="571"/>
      <point x="350" y="594"/>
    </contour>
  </outline>
</glyph>
<glyph name="g.Ca.sub" format="2">
  <outline>
    <contour>
      <point x="-278" y="-291" type="curve" smooth="yes"/>
      <point x="-214" y="-291"/>
      <point x="-181" y="-256"/>
      <point x="-167" y="-186" type="curve" smooth="yes"/>
      <point x="-119" y="60" type="line"/>
      <point x="-206" y="60" type="line"/>
      <point x="-238" y="-104" type="line"/>
      <point x="-237" y="-118" type="line"/>
      <point x="-249" y="-177" type="line" smooth="yes"/>
      <point x="-256" y="-211"/>
      <point x="-268" y="-219"/>
      <point x="-291" y="-219" type="curve" smooth="yes"/>
      <point x="-325" y="-219"/>
      <point x="-355" y="-199"/>
      <point x="-355" y="-158" type="curve" smooth="yes"/>
      <point x="-355" y="-143"/>
      <point x="-353" y="-131"/>
      <point x="-349" y="-113" type="curve"/>
      <point x="-345" y="-101" type="line"/>
      <point x="-339" y="-75"/>
      <point x="-331" y="-55"/>
      <point x="-331" y="-43" type="curve" smooth="yes"/>
      <point x="-331" y="-29"/>
      <point x="-339" y="-19"/>
      <point x="-356" y="-19" type="curve" smooth="yes"/>
      <point x="-408" y="-19"/>
      <point x="-468" y="-75"/>
      <point x="-468" y="-113" type="curve" smooth="yes"/>
      <point x="-468" y="-134"/>
      <point x="-442" y="-134"/>
      <point x="-422" y="-134" type="curve" smooth="yes"/>
      <point x="-341" y="-134"/>
      <point x="-315" y="-135"/>
      <point x="-301" y="-135" type="curve" smooth="yes"/>
      <point x="-262" y="-135"/>
      <point x="-251" y="-134"/>
      <point x="-223" y="-134" type="curve"/>
      <point x="-211" y="-68" type="line"/>
      <point x="-238" y="-70"/>
      <point x="-260" y="-70"/>
      <point x="-279" y="-70" type="curve" smooth="yes"/>
      <point x="-327" y="-70"/>
      <point x="-362" y="-68"/>
      <point x="-412" y="-68" type="curve"/>
      <point x="-423" y="-125"/>
      <point x="-425" y="-136"/>
      <point x="-425" y="-147" type="curve" smooth="yes"/>
      <point x="-425" y="-235"/>
      <point x="-350" y="-291"/>
    </contour>
  </outline>
  <guideline angle="90" x="215" y="0"/>
</glyph>
<glyph name="g.Ca.subalt" format="2">
  <outline>
    <contour>
      <point x="-275" y="-309" type="curve" smooth="yes"/>
      <point x="-214" y="-309"/>
      <point x="-185" y="-274"/>
      <point x="-171" y="-202" type="curve" smooth="yes"/>
      <point x="-143" y="-58" type="line"/>
      <point x="-165" y="-43"/>
      <point x="-202" y="-38"/>
      <point x="-222" y="-38" type="curve"/>
      <point x="-238" y="-122" type="line"/>
      <point x="-237" y="-136" type="line"/>
      <point x="-249" y="-195" type="line" smooth="yes"/>
      <point x="-256" y="-229"/>
      <point x="-270" y="-237"/>
      <point x="-292" y="-237" type="curve" smooth="yes"/>
      <point x="-330" y="-237"/>
      <point x="-355" y="-210"/>
      <point x="-355" y="-172" type="curve" smooth="yes"/>
      <point x="-355" y="-159"/>
      <point x="-353" y="-141"/>
      <point x="-346" y="-127" type="curve"/>
      <point x="-344" y="-117" type="line"/>
      <point x="-337" y="-91"/>
      <point x="-330" y="-71"/>
      <point x="-330" y="-59" type="curve" smooth="yes"/>
      <point x="-330" y="-47"/>
      <point x="-338" y="-37"/>
      <point x="-355" y="-37" type="curve" smooth="yes"/>
      <point x="-408" y="-37"/>
      <point x="-468" y="-93"/>
      <point x="-468" y="-131" type="curve" smooth="yes"/>
      <point x="-468" y="-152"/>
      <point x="-445" y="-152"/>
      <point x="-425" y="-152" type="curve" smooth="yes"/>
      <point x="-344" y="-152"/>
      <point x="-315" y="-153"/>
      <point x="-301" y="-153" type="curve" smooth="yes"/>
      <point x="-262" y="-153"/>
      <point x="-251" y="-152"/>
      <point x="-223" y="-152" type="curve"/>
      <point x="-211" y="-86" type="line"/>
      <point x="-238" y="-88"/>
      <point x="-260" y="-88"/>
      <point x="-279" y="-88" type="curve" smooth="yes"/>
      <point x="-327" y="-88"/>
      <point x="-362" y="-86"/>
      <point x="-412" y="-86" type="curve"/>
      <point x="-424" y="-147" type="line" smooth="yes"/>
      <point x="-426" y="-156"/>
      <point x="-427" y="-165"/>
      <point x="-427" y="-174" type="curve" smooth="yes"/>
      <point x="-427" y="-252"/>
      <point x="-356" y="-309"/>
    </contour>
  </outline>
  <guideline angle="90" x="215" y="0"/>
</glyph>
<glyph name="g.Da.sub" format="2">
  <outline>
    <contour>
      <point x="-352" y="-166" type="curve" smooth="yes"/>
      <point x="-352" y="-152"/>
      <point x="-348" y="-129"/>
      <point x="-341" y="-106" type="curve"/>
      <point x="-337" y="-94" type="line"/>
      <point x="-331" y="-71"/>
      <point x="-326" y="-52"/>
      <point x="-326" y="-42" type="curve" smooth="yes"/>
      <point x="-326" y="-29"/>
      <point x="-332" y="-19"/>
      <point x="-350" y="-19" type="curve" smooth="yes"/>
      <point x="-395" y="-19"/>
      <point x="-463" y="-74"/>
      <point x="-463" y="-112" type="curve" smooth="yes"/>
      <point x="-463" y="-133"/>
      <point x="-441" y="-134"/>
      <point x="-407" y="-134" type="curve"/>
      <point x="-355" y="-135" type="line"/>
      <point x="-339" y="-135"/>
      <point x="-308" y="-134"/>
      <point x="-261" y="-134" type="curve" smooth="yes"/>
      <point x="-223" y="-134"/>
      <point x="-188" y="-135"/>
      <point x="-157" y="-136" type="curve"/>
      <point x="-119" y="60" type="line"/>
      <point x="-205" y="60" type="line"/>
      <point x="-230" y="-69" type="line"/>
      <point x="-247" y="-70"/>
      <point x="-263" y="-70"/>
      <point x="-276" y="-70" type="curve" smooth="yes"/>
      <point x="-295" y="-70"/>
      <point x="-322" y="-70"/>
      <point x="-346" y="-68" type="curve"/>
      <point x="-417" y="-126" type="line"/>
      <point x="-435" y="-217"/>
      <point x="-386" y="-291"/>
      <point x="-270" y="-291" type="curve" smooth="yes"/>
      <point x="-239" y="-291"/>
      <point x="-203" y="-287"/>
      <point x="-179" y="-277" type="curve"/>
      <point x="-168" y="-262"/>
      <point x="-152" y="-220"/>
      <point x="-148" y="-201" type="curve"/>
      <point x="-151" y="-200" type="line"/>
      <point x="-180" y="-211"/>
      <point x="-223" y="-222"/>
      <point x="-266" y="-222" type="curve" smooth="yes"/>
      <point x="-321" y="-222"/>
      <point x="-352" y="-211"/>
    </contour>
  </outline>
</glyph>
<glyph name="g.Da.subalt" format="2">
  <outline>
    <contour>
      <point x="-273" y="-311" type="curve" smooth="yes"/>
      <point x="-246" y="-311"/>
      <point x="-207" y="-307"/>
      <point x="-183" y="-297" type="curve"/>
      <point x="-172" y="-282"/>
      <point x="-156" y="-242"/>
      <point x="-152" y="-223" type="curve"/>
      <point x="-155" y="-222" type="line"/>
      <point x="-184" y="-233"/>
      <point x="-228" y="-242"/>
      <point x="-278" y="-242" type="curve" smooth="yes"/>
      <point x="-322" y="-242"/>
      <point x="-357" y="-231"/>
      <point x="-357" y="-185" type="curve" smooth="yes"/>
      <point x="-357" y="-164"/>
      <point x="-351" y="-151"/>
      <point x="-347" y="-138" type="curve"/>
      <point x="-417" y="-138" type="line"/>
      <point x="-419" y="-146" type="line" smooth="yes"/>
      <point x="-422" y="-159"/>
      <point x="-424" y="-170"/>
      <point x="-424" y="-182" type="curve" smooth="yes"/>
      <point x="-424" y="-254"/>
      <point x="-367" y="-311"/>
    </contour>
    <contour>
      <point x="-143" y="-58" type="line"/>
      <point x="-165" y="-43"/>
      <point x="-202" y="-38"/>
      <point x="-222" y="-38" type="curve"/>
      <point x="-231" y="-89" type="line"/>
      <point x="-249" y="-90"/>
      <point x="-265" y="-90"/>
      <point x="-278" y="-90" type="curve" smooth="yes"/>
      <point x="-298" y="-90"/>
      <point x="-315" y="-90"/>
      <point x="-332" y="-89" type="curve"/>
      <point x="-329" y="-80"/>
      <point x="-326" y="-71"/>
      <point x="-326" y="-63" type="curve" smooth="yes"/>
      <point x="-326" y="-50"/>
      <point x="-334" y="-39"/>
      <point x="-352" y="-39" type="curve" smooth="yes"/>
      <point x="-403" y="-39"/>
      <point x="-465" y="-94"/>
      <point x="-465" y="-132" type="curve" smooth="yes"/>
      <point x="-465" y="-153"/>
      <point x="-442" y="-154"/>
      <point x="-419" y="-154" type="curve" smooth="yes"/>
      <point x="-360" y="-154"/>
      <point x="-334" y="-154"/>
      <point x="-263" y="-154" type="curve" smooth="yes"/>
      <point x="-225" y="-154"/>
      <point x="-190" y="-155"/>
      <point x="-162" y="-156" type="curve"/>
    </contour>
  </outline>
</glyph>
<glyph name="g.EkOnkar2" format="2">
  <advance width="1158"/>
  <outline>
    <contour>
      <point x="1168" y="676" type="line"/>
      <point x="1297" y="1017"/>
      <point x="1622" y="1369"/>
      <point x="1993" y="1369" type="curve" smooth="yes"/>
      <point x="2223" y="1369"/>
      <point x="2355" y="1264"/>
      <point x="2397" y="950" type="curve"/>
      <point x="2451" y="950" type="line"/>
      <point x="2452" y="953" type="line"/>
      <point x="2415" y="1376"/>
      <point x="2199" y="1447"/>
      <point x="1981" y="1447" type="curve" smooth="yes"/>
      <point x="1679" y="1447"/>
      <point x="1319" y="1200"/>
      <point x="1122" y="764" type="curve"/>
      <point x="1105" y="676" type="line"/>
    </contour>
    <contour>
      <point x="470" y="-12" type="curve"/>
      <point x="432" y="27"/>
      <point x="417" y="84"/>
      <point x="417" y="137" type="curve" smooth="yes"/>
      <point x="417" y="258"/>
      <point x="492" y="340"/>
      <point x="492" y="450" type="curve" smooth="yes"/>
      <point x="492" y="559"/>
      <point x="418" y="635"/>
      <point x="297" y="635" type="curve" smooth="yes"/>
      <point x="175" y="635"/>
      <point x="80" y="559"/>
      <point x="80" y="457" type="curve" smooth="yes"/>
      <point x="80" y="369"/>
      <point x="150" y="302"/>
      <point x="262" y="302" type="curve" smooth="yes"/>
      <point x="312" y="302"/>
      <point x="355" y="315"/>
      <point x="392" y="333" type="curve"/>
      <point x="420" y="429" type="line"/>
      <point x="375" y="397"/>
      <point x="321" y="377"/>
      <point x="264" y="377" type="curve" smooth="yes"/>
      <point x="192" y="377"/>
      <point x="158" y="409"/>
      <point x="158" y="451" type="curve" smooth="yes"/>
      <point x="158" y="507"/>
      <point x="218" y="562"/>
      <point x="307" y="562" type="curve" smooth="yes"/>
      <point x="375" y="562"/>
      <point x="411" y="530"/>
      <point x="411" y="460" type="curve" smooth="yes"/>
      <point x="411" y="443"/>
      <point x="409" y="428"/>
      <point x="401" y="405" type="curve"/>
      <point x="385" y="346" type="line" smooth="yes"/>
      <point x="362" y="260"/>
      <point x="338" y="202"/>
      <point x="338" y="138" type="curve" smooth="yes"/>
      <point x="338" y="85"/>
      <point x="351" y="34"/>
      <point x="382" y="5" type="curve"/>
      <point x="404" y="-6"/>
      <point x="445" y="-12"/>
    </contour>
    <contour>
      <point x="848" y="-15" type="curve" smooth="yes"/>
      <point x="956" y="-15"/>
      <point x="1027" y="57"/>
      <point x="1027" y="152" type="curve" smooth="yes"/>
      <point x="1027" y="217"/>
      <point x="1000" y="271"/>
      <point x="961" y="306" type="curve"/>
      <point x="894" y="291" type="line"/>
      <point x="921" y="262"/>
      <point x="943" y="216"/>
      <point x="943" y="173" type="curve" smooth="yes"/>
      <point x="943" y="111"/>
      <point x="911" y="62"/>
      <point x="844" y="62" type="curve" smooth="yes"/>
      <point x="723" y="62"/>
      <point x="684" y="222"/>
      <point x="684" y="385" type="curve" smooth="yes"/>
      <point x="684" y="694"/>
      <point x="790" y="812"/>
      <point x="935" y="812" type="curve" smooth="yes"/>
      <point x="998" y="812"/>
      <point x="1084" y="789"/>
      <point x="1105" y="676" type="curve"/>
      <point x="1154" y="724" type="line"/>
      <point x="1108" y="842"/>
      <point x="1038" y="890"/>
      <point x="930" y="890" type="curve" smooth="yes"/>
      <point x="718" y="890"/>
      <point x="604" y="685"/>
      <point x="604" y="406" type="curve" smooth="yes"/>
      <point x="604" y="184"/>
      <point x="685" y="-15"/>
    </contour>
    <contour>
      <point x="843" y="276" type="curve" smooth="yes"/>
      <point x="1078" y="276"/>
      <point x="1170" y="385"/>
      <point x="1170" y="590" type="curve" smooth="yes"/>
      <point x="1170" y="597"/>
      <point x="1170" y="615"/>
      <point x="1170" y="620" type="curve"/>
      <point x="1168" y="620"/>
      <point x="1094" y="621"/>
      <point x="958" y="621" type="curve" smooth="yes"/>
      <point x="813" y="621"/>
      <point x="779" y="620"/>
      <point x="701" y="619" type="curve"/>
      <point x="687" y="544" type="line"/>
      <point x="763" y="545"/>
      <point x="838" y="545"/>
      <point x="892" y="545" type="curve" smooth="yes"/>
      <point x="915" y="545"/>
      <point x="979" y="545"/>
      <point x="1084" y="542" type="curve"/>
      <point x="1070" y="400"/>
      <point x="993" y="350"/>
      <point x="818" y="350" type="curve" smooth="yes"/>
      <point x="792" y="350"/>
      <point x="750" y="351"/>
      <point x="660" y="358" type="curve"/>
      <point x="664" y="285" type="line"/>
      <point x="758" y="277"/>
      <point x="811" y="276"/>
    </contour>
  </outline>
</glyph>
<glyph name="g.Five.sups" format="2">
  <advance width="457"/>
  <outline>
    <contour>
      <point x="282" y="378" type="curve" smooth="yes"/>
      <point x="312" y="378"/>
      <point x="349" y="390"/>
      <point x="392" y="423" type="curve"/>
      <point x="408" y="509" type="line"/>
      <point x="361" y="468"/>
      <point x="321" y="446"/>
      <point x="286" y="446" type="curve" smooth="yes"/>
      <point x="250" y="446"/>
      <point x="229" y="458"/>
      <point x="212" y="478" type="curve"/>
      <point x="246" y="518"/>
      <point x="262" y="559"/>
      <point x="262" y="600" type="curve" smooth="yes"/>
      <point x="262" y="641"/>
      <point x="249" y="680"/>
      <point x="223" y="716" type="curve"/>
      <point x="172" y="683" type="line"/>
      <point x="190" y="654"/>
      <point x="195" y="630"/>
      <point x="195" y="603" type="curve" smooth="yes"/>
      <point x="195" y="562"/>
      <point x="179" y="535"/>
      <point x="137" y="494" type="curve"/>
      <point x="176" y="426"/>
      <point x="224" y="378"/>
    </contour>
    <contour>
      <point x="498" y="696" type="line"/>
      <point x="479" y="708"/>
      <point x="450" y="715"/>
      <point x="429" y="715" type="curve"/>
      <point x="352" y="323" type="line"/>
      <point x="371" y="311"/>
      <point x="400" y="304"/>
      <point x="422" y="304" type="curve"/>
    </contour>
  </outline>
</glyph>
<glyph name="g.Four.sups" format="2">
  <advance width="499"/>
  <outline>
    <contour>
      <point x="324" y="302" type="curve" smooth="yes"/>
      <point x="423" y="302"/>
      <point x="495" y="351"/>
      <point x="495" y="419" type="curve" smooth="yes"/>
      <point x="495" y="456"/>
      <point x="468" y="489"/>
      <point x="435" y="503" type="curve"/>
      <point x="439" y="523" type="line"/>
      <point x="236" y="527" type="line"/>
      <point x="233" y="514" type="line"/>
      <point x="174" y="497"/>
      <point x="139" y="461"/>
      <point x="139" y="415" type="curve" smooth="yes"/>
      <point x="139" y="349"/>
      <point x="211" y="302"/>
    </contour>
    <contour>
      <point x="308" y="366" type="curve" smooth="yes"/>
      <point x="247" y="366"/>
      <point x="210" y="386"/>
      <point x="210" y="420" type="curve" smooth="yes"/>
      <point x="210" y="456"/>
      <point x="252" y="484"/>
      <point x="326" y="484" type="curve" smooth="yes"/>
      <point x="391" y="484"/>
      <point x="426" y="462"/>
      <point x="426" y="430" type="curve" smooth="yes"/>
      <point x="426" y="396"/>
      <point x="385" y="366"/>
    </contour>
    <contour>
      <point x="358" y="496" type="curve" smooth="yes"/>
      <point x="454" y="496"/>
      <point x="531" y="538"/>
      <point x="531" y="605" type="curve" smooth="yes"/>
      <point x="531" y="663"/>
      <point x="480" y="699"/>
      <point x="425" y="712" type="curve"/>
      <point x="405" y="664" type="line"/>
      <point x="444" y="654"/>
      <point x="463" y="630"/>
      <point x="463" y="608" type="curve" smooth="yes"/>
      <point x="463" y="568"/>
      <point x="413" y="543"/>
      <point x="345" y="543" type="curve" smooth="yes"/>
      <point x="273" y="543"/>
      <point x="243" y="564"/>
      <point x="243" y="595" type="curve" smooth="yes"/>
      <point x="243" y="623"/>
      <point x="268" y="649"/>
      <point x="328" y="655" type="curve"/>
      <point x="331" y="671"/>
      <point x="325" y="701"/>
      <point x="313" y="717" type="curve"/>
      <point x="212" y="702"/>
      <point x="173" y="649"/>
      <point x="173" y="601" type="curve" smooth="yes"/>
      <point x="173" y="516"/>
      <point x="276" y="496"/>
    </contour>
  </outline>
</glyph>
<glyph name="g.Ga.sub" format="2">
  <outline>
    <contour>
      <point x="-412" y="-293" type="curve" smooth="yes"/>
      <point x="-355" y="-293"/>
      <point x="-325" y="-261"/>
      <point x="-312" y="-195" type="curve" smooth="yes"/>
      <point x="-294" y="-104" type="line"/>
      <point x="-268" y="-104"/>
      <point x="-230" y="-106"/>
      <point x="-216" y="-107" type="curve"/>
      <point x="-202" y="-34" type="line"/>
      <point x="-260" y="-32"/>
      <point x="-327" y="-31"/>
      <point x="-358" y="-31" type="curve"/>
      <point x="-373" y="-109" type="line"/>
      <point x="-373" y="-120" type="line"/>
      <point x="-385" y="-183" type="line" smooth="yes"/>
      <point x="-391" y="-216"/>
      <point x="-404" y="-222"/>
      <point x="-420" y="-222" type="curve" smooth="yes"/>
      <point x="-448" y="-222"/>
      <point x="-477" y="-203"/>
      <point x="-477" y="-175" type="curve" smooth="yes"/>
      <point x="-477" y="-149"/>
      <point x="-453" y="-145"/>
      <point x="-416" y="-145" type="curve" smooth="yes"/>
      <point x="-395" y="-145"/>
      <point x="-382" y="-145"/>
      <point x="-361" y="-148" type="curve"/>
      <point x="-345" y="-85" type="line"/>
      <point x="-377" y="-82"/>
      <point x="-387" y="-82"/>
      <point x="-415" y="-82" type="curve" smooth="yes"/>
      <point x="-492" y="-82"/>
      <point x="-552" y="-91"/>
      <point x="-552" y="-156" type="curve" smooth="yes"/>
      <point x="-552" y="-216"/>
      <point x="-501" y="-293"/>
    </contour>
    <contour>
      <point x="-119" y="60" type="line"/>
      <point x="-205" y="60" type="line"/>
      <point x="-228" y="-57" type="line"/>
      <point x="-227" y="-78" type="line"/>
      <point x="-265" y="-272" type="line"/>
      <point x="-245" y="-286"/>
      <point x="-211" y="-293"/>
      <point x="-188" y="-293" type="curve"/>
    </contour>
  </outline>
  <guideline angle="0" x="0" y="-309"/>
  <guideline angle="0" x="0" y="-237"/>
</glyph>
<glyph name="g.Ga.sub2" format="2">
  <outline>
    <contour>
      <point x="-414" y="-293" type="curve" smooth="yes"/>
      <point x="-355" y="-293"/>
      <point x="-325" y="-261"/>
      <point x="-312" y="-196" type="curve" smooth="yes"/>
      <point x="-294" y="-104" type="line"/>
      <point x="-274" y="-104"/>
      <point x="-248" y="-105"/>
      <point x="-233" y="-106" type="curve"/>
      <point x="-265" y="-272" type="line"/>
      <point x="-245" y="-286"/>
      <point x="-211" y="-293"/>
      <point x="-188" y="-293" type="curve"/>
      <point x="-138" y="-36" type="line"/>
      <point x="-216" y="-32"/>
      <point x="-315" y="-31"/>
      <point x="-358" y="-31" type="curve"/>
      <point x="-371" y="-99" type="line"/>
      <point x="-375" y="-130" type="line"/>
      <point x="-385" y="-183" type="line" smooth="yes"/>
      <point x="-391" y="-216"/>
      <point x="-403" y="-222"/>
      <point x="-420" y="-222" type="curve" smooth="yes"/>
      <point x="-450" y="-222"/>
      <point x="-477" y="-202"/>
      <point x="-477" y="-174" type="curve" smooth="yes"/>
      <point x="-477" y="-149"/>
      <point x="-455" y="-145"/>
      <point x="-416" y="-145" type="curve" smooth="yes"/>
      <point x="-395" y="-145"/>
      <point x="-382" y="-145"/>
      <point x="-359" y="-148" type="curve"/>
      <point x="-346" y="-85" type="line"/>
      <point x="-380" y="-82"/>
      <point x="-387" y="-82"/>
      <point x="-415" y="-82" type="curve" smooth="yes"/>
      <point x="-494" y="-82"/>
      <point x="-552" y="-92"/>
      <point x="-552" y="-155" type="curve" smooth="yes"/>
      <point x="-552" y="-216"/>
      <point x="-500" y="-293"/>
    </contour>
  </outline>
  <guideline angle="0" x="0" y="-309"/>
  <guideline angle="0" x="0" y="-237"/>
</glyph>
<glyph name="g.Ga.subalt" format="2">
  <outline>
    <contour>
      <point x="-416" y="-309" type="curve" smooth="yes"/>
      <point x="-356" y="-309"/>
      <point x="-326" y="-277"/>
      <point x="-313" y="-208" type="curve" smooth="yes"/>
      <point x="-295" y="-114" type="line"/>
      <point x="-274" y="-114"/>
      <point x="-250" y="-115"/>
      <point x="-234" y="-116" type="curve"/>
      <point x="-267" y="-288" type="line"/>
      <point x="-247" y="-302"/>
      <point x="-215" y="-309"/>
      <point x="-192" y="-309" type="curve"/>
      <point x="-141" y="-46" type="line"/>
      <point x="-219" y="-42"/>
      <point x="-315" y="-41"/>
      <point x="-358" y="-41" type="curve"/>
      <point x="-372" y="-112" type="line"/>
      <point x="-376" y="-145" type="line"/>
      <point x="-388" y="-203" type="line" smooth="yes"/>
      <point x="-394" y="-232"/>
      <point x="-407" y="-238"/>
      <point x="-424" y="-238" type="curve" smooth="yes"/>
      <point x="-453" y="-238"/>
      <point x="-480" y="-220"/>
      <point x="-480" y="-187" type="curve" smooth="yes"/>
      <point x="-480" y="-162"/>
      <point x="-458" y="-158"/>
      <point x="-419" y="-158" type="curve" smooth="yes"/>
      <point x="-398" y="-158"/>
      <point x="-381" y="-158"/>
      <point x="-365" y="-161" type="curve"/>
      <point x="-352" y="-97" type="line"/>
      <point x="-380" y="-95"/>
      <point x="-390" y="-95"/>
      <point x="-438" y="-95" type="curve" smooth="yes"/>
      <point x="-504" y="-95"/>
      <point x="-555" y="-105"/>
      <point x="-555" y="-166" type="curve" smooth="yes"/>
      <point x="-555" y="-244"/>
      <point x="-487" y="-309"/>
    </contour>
  </outline>
  <guideline angle="0" x="0" y="-309"/>
  <guideline angle="0" x="0" y="-237"/>
</glyph>
<glyph name="g.Ha.sub" format="2">
  <outline>
    <contour>
      <point x="-119" y="60" type="line"/>
      <point x="-204" y="60" type="line"/>
      <point x="-242" y="-133" type="line" smooth="yes"/>
      <point x="-248" y="-165"/>
      <point x="-261" y="-174"/>
      <point x="-282" y="-174" type="curve" smooth="yes"/>
      <point x="-323" y="-174"/>
      <point x="-349" y="-140"/>
      <point x="-349" y="-117" type="curve" smooth="yes"/>
      <point x="-349" y="-105"/>
      <point x="-343" y="-96"/>
      <point x="-321" y="-96" type="curve" smooth="yes"/>
      <point x="-305" y="-96" type="line"/>
      <point x="-292" y="-25" type="line"/>
      <point x="-318" y="-25" type="line" smooth="yes"/>
      <point x="-398" y="-25"/>
      <point x="-420" y="-48"/>
      <point x="-420" y="-97" type="curve" smooth="yes"/>
      <point x="-420" y="-172"/>
      <point x="-348" y="-248"/>
      <point x="-262" y="-248" type="curve" smooth="yes"/>
      <point x="-200" y="-248"/>
      <point x="-171" y="-210"/>
      <point x="-158" y="-143" type="curve" smooth="yes"/>
    </contour>
  </outline>
  <guideline angle="90" x="-273" y="0"/>
  <guideline angle="90" x="-348" y="0"/>
</glyph>
<glyph name="g.Ha.subalt" format="2">
  <outline>
    <contour>
      <point x="-142" y="-58" type="line"/>
      <point x="-163" y="-43"/>
      <point x="-202" y="-38"/>
      <point x="-221" y="-38" type="curve"/>
      <point x="-251" y="-193" type="line" smooth="yes"/>
      <point x="-257" y="-225"/>
      <point x="-270" y="-234"/>
      <point x="-291" y="-234" type="curve" smooth="yes"/>
      <point x="-332" y="-234"/>
      <point x="-358" y="-200"/>
      <point x="-358" y="-177" type="curve" smooth="yes"/>
      <point x="-358" y="-165"/>
      <point x="-352" y="-156"/>
      <point x="-322" y="-156" type="curve" smooth="yes"/>
      <point x="-314" y="-156" type="line"/>
      <point x="-301" y="-85" type="line"/>
      <point x="-329" y="-85" type="line" smooth="yes"/>
      <point x="-406" y="-85"/>
      <point x="-430" y="-107"/>
      <point x="-430" y="-161" type="curve" smooth="yes"/>
      <point x="-430" y="-232"/>
      <point x="-357" y="-308"/>
      <point x="-278" y="-308" type="curve" smooth="yes"/>
      <point x="-211" y="-308"/>
      <point x="-184" y="-270"/>
      <point x="-170" y="-197" type="curve"/>
    </contour>
  </outline>
  <guideline angle="90" x="-273" y="0"/>
  <guideline angle="90" x="-348" y="0"/>
</glyph>
<glyph name="g.Jha.presub" format="2">
  <advance width="563"/>
  <outline>
    <contour>
      <point x="238" y="66" type="curve" smooth="yes"/>
      <point x="332" y="66"/>
      <point x="489" y="107"/>
      <point x="489" y="239" type="curve" smooth="yes"/>
      <point x="489" y="292"/>
      <point x="458" y="334"/>
      <point x="406" y="352" type="curve"/>
      <point x="407" y="360" type="line"/>
      <point x="190" y="390" type="line"/>
      <point x="183" y="380" type="line"/>
      <point x="158" y="380"/>
      <point x="122" y="379"/>
      <point x="86" y="378" type="curve"/>
      <point x="84" y="367"/>
      <point x="82" y="352"/>
      <point x="82" y="337" type="curve" smooth="yes"/>
      <point x="82" y="325"/>
      <point x="83" y="313"/>
      <point x="86" y="302" type="curve"/>
      <point x="145" y="304"/>
      <point x="201" y="305"/>
      <point x="236" y="305" type="curve" smooth="yes"/>
      <point x="358" y="305"/>
      <point x="412" y="292"/>
      <point x="412" y="245" type="curve" smooth="yes"/>
      <point x="412" y="193"/>
      <point x="354" y="156"/>
      <point x="282" y="149" type="curve"/>
      <point x="248" y="181"/>
      <point x="214" y="201"/>
      <point x="174" y="201" type="curve" smooth="yes"/>
      <point x="134" y="201"/>
      <point x="93" y="187"/>
      <point x="93" y="143" type="curve" smooth="yes"/>
      <point x="93" y="104"/>
      <point x="134" y="66"/>
    </contour>
    <contour>
      <point x="300" y="325" type="curve" smooth="yes"/>
      <point x="431" y="325"/>
      <point x="522" y="447"/>
      <point x="554" y="562" type="curve"/>
      <point x="467" y="562" type="line"/>
      <point x="444" y="461"/>
      <point x="342" y="383"/>
      <point x="303" y="383" type="curve" smooth="yes"/>
      <point x="271" y="383"/>
      <point x="214" y="427"/>
      <point x="214" y="524" type="curve" smooth="yes"/>
      <point x="214" y="536"/>
      <point x="215" y="548"/>
      <point x="217" y="562" type="curve"/>
      <point x="129" y="562" type="line"/>
      <point x="131" y="449"/>
      <point x="181" y="325"/>
    </contour>
    <contour>
      <point x="635" y="542" type="line"/>
      <point x="635" y="569"/>
      <point x="632" y="596"/>
      <point x="625" y="620" type="curve"/>
      <point x="47" y="620" type="line"/>
      <point x="47" y="594"/>
      <point x="50" y="567"/>
      <point x="57" y="542" type="curve"/>
    </contour>
  </outline>
</glyph>
<glyph name="g.Na.sub" format="2">
  <outline>
    <contour>
      <point x="-243" y="-238" type="line"/>
      <point x="-283" y="-216"/>
      <point x="-299" y="-188"/>
      <point x="-299" y="-164" type="curve" smooth="yes"/>
      <point x="-299" y="-122"/>
      <point x="-259" y="-90"/>
      <point x="-190" y="-90" type="curve" smooth="yes"/>
      <point x="-137" y="-90"/>
      <point x="-109" y="-111"/>
      <point x="-109" y="-145" type="curve" smooth="yes"/>
      <point x="-109" y="-179"/>
      <point x="-143" y="-197"/>
      <point x="-187" y="-205" type="curve"/>
      <point x="-187" y="-226"/>
      <point x="-181" y="-265"/>
      <point x="-173" y="-276" type="curve"/>
      <point x="-78" y="-265"/>
      <point x="-40" y="-213"/>
      <point x="-40" y="-154" type="curve" smooth="yes"/>
      <point x="-40" y="-82"/>
      <point x="-97" y="-28"/>
      <point x="-195" y="-28" type="curve" smooth="yes"/>
      <point x="-282" y="-28"/>
      <point x="-373" y="-71"/>
      <point x="-373" y="-162" type="curve" smooth="yes"/>
      <point x="-373" y="-204"/>
      <point x="-351" y="-252"/>
      <point x="-280" y="-283" type="curve"/>
    </contour>
    <contour>
      <point x="-141" y="-52" type="line"/>
      <point x="-119" y="60" type="line"/>
      <point x="-205" y="60" type="line"/>
      <point x="-227" y="-52" type="line"/>
    </contour>
  </outline>
</glyph>
<glyph name="g.Na.subalt" format="2">
  <outline>
    <contour>
      <point x="-349" y="-269" type="line"/>
      <point x="-391" y="-249"/>
      <point x="-407" y="-221"/>
      <point x="-407" y="-197" type="curve" smooth="yes"/>
      <point x="-407" y="-154"/>
      <point x="-364" y="-120"/>
      <point x="-299" y="-120" type="curve" smooth="yes"/>
      <point x="-246" y="-120"/>
      <point x="-215" y="-141"/>
      <point x="-215" y="-173" type="curve" smooth="yes"/>
      <point x="-215" y="-209"/>
      <point x="-249" y="-227"/>
      <point x="-293" y="-235" type="curve"/>
      <point x="-296" y="-253"/>
      <point x="-287" y="-295"/>
      <point x="-279" y="-306" type="curve"/>
      <point x="-187" y="-292"/>
      <point x="-146" y="-239"/>
      <point x="-146" y="-180" type="curve" smooth="yes"/>
      <point x="-146" y="-108"/>
      <point x="-206" y="-58"/>
      <point x="-301" y="-58" type="curve" smooth="yes"/>
      <point x="-402" y="-58"/>
      <point x="-479" y="-117"/>
      <point x="-479" y="-190" type="curve" smooth="yes"/>
      <point x="-479" y="-233"/>
      <point x="-455" y="-282"/>
      <point x="-386" y="-313" type="curve"/>
    </contour>
    <contour>
      <point x="-249" y="-83" type="line"/>
      <point x="-242" y="-45" type="line"/>
      <point x="-267" y="-35"/>
      <point x="-295" y="-32"/>
      <point x="-321" y="-32" type="curve"/>
      <point x="-331" y="-83" type="line"/>
    </contour>
  </outline>
</glyph>
<glyph name="g.Nga.presub" format="2">
  <advance width="606"/>
  <outline>
    <contour>
      <point x="228" y="-15" type="curve" smooth="yes"/>
      <point x="374" y="-15"/>
      <point x="548" y="129"/>
      <point x="548" y="293" type="curve" smooth="yes"/>
      <point x="548" y="432"/>
      <point x="419" y="433"/>
      <point x="353" y="433" type="curve" smooth="yes"/>
      <point x="270" y="433"/>
      <point x="228" y="433"/>
      <point x="204" y="432" type="curve"/>
      <point x="205" y="437"/>
      <point x="222" y="526"/>
      <point x="231" y="562" type="curve"/>
      <point x="144" y="562" type="line"/>
      <point x="132" y="502"/>
      <point x="105" y="365"/>
      <point x="104" y="360" type="curve"/>
      <point x="109" y="354" type="line"/>
      <point x="148" y="356"/>
      <point x="216" y="357"/>
      <point x="358" y="357" type="curve" smooth="yes"/>
      <point x="432" y="357"/>
      <point x="474" y="351"/>
      <point x="474" y="299" type="curve" smooth="yes"/>
      <point x="474" y="187"/>
      <point x="337" y="62"/>
      <point x="211" y="62" type="curve" smooth="yes"/>
      <point x="169" y="62"/>
      <point x="132" y="76"/>
      <point x="132" y="119" type="curve" smooth="yes"/>
      <point x="132" y="168"/>
      <point x="181" y="196"/>
      <point x="241" y="196" type="curve" smooth="yes"/>
      <point x="294" y="196"/>
      <point x="351" y="169"/>
      <point x="387" y="115" type="curve"/>
      <point x="433" y="169" type="line"/>
      <point x="385" y="229"/>
      <point x="320" y="271"/>
      <point x="234" y="271" type="curve" smooth="yes"/>
      <point x="140" y="271"/>
      <point x="60" y="224"/>
      <point x="60" y="129" type="curve" smooth="yes"/>
      <point x="60" y="39"/>
      <point x="125" y="-15"/>
    </contour>
    <contour>
      <point x="678" y="542" type="line"/>
      <point x="678" y="569"/>
      <point x="675" y="596"/>
      <point x="668" y="620" type="curve"/>
      <point x="47" y="620" type="line"/>
      <point x="47" y="594"/>
      <point x="50" y="567"/>
      <point x="57" y="542" type="curve"/>
    </contour>
  </outline>
</glyph>
<glyph name="g.Nine.sups" format="2">
  <advance width="478"/>
  <outline>
    <contour>
      <point x="510" y="633" type="line"/>
      <point x="474" y="659"/>
      <point x="451" y="685"/>
      <point x="451" y="717" type="curve" smooth="yes"/>
      <point x="451" y="745"/>
      <point x="472" y="773"/>
      <point x="529" y="773" type="curve" smooth="yes"/>
      <point x="540" y="773" type="line"/>
      <point x="554" y="834" type="line"/>
      <point x="543" y="836"/>
      <point x="532" y="838"/>
      <point x="514" y="838" type="curve" smooth="yes"/>
      <point x="420" y="838"/>
      <point x="391" y="789"/>
      <point x="391" y="739" type="curve" smooth="yes"/>
      <point x="391" y="692"/>
      <point x="417" y="661"/>
      <point x="440" y="638" type="curve"/>
      <point x="426" y="596" type="line"/>
    </contour>
    <contour>
      <point x="346" y="301" type="curve" smooth="yes"/>
      <point x="378" y="301"/>
      <point x="418" y="309"/>
      <point x="447" y="331" type="curve"/>
      <point x="459" y="347"/>
      <point x="474" y="392"/>
      <point x="478" y="410" type="curve"/>
      <point x="476" y="411" type="line"/>
      <point x="445" y="389"/>
      <point x="399" y="370"/>
      <point x="354" y="370" type="curve" smooth="yes"/>
      <point x="304" y="370"/>
      <point x="272" y="395"/>
      <point x="272" y="468" type="curve" smooth="yes"/>
      <point x="272" y="519"/>
      <point x="295" y="588"/>
      <point x="301" y="609" type="curve"/>
      <point x="305" y="619" type="line"/>
      <point x="318" y="656"/>
      <point x="325" y="678"/>
      <point x="325" y="693" type="curve" smooth="yes"/>
      <point x="325" y="710"/>
      <point x="317" y="717"/>
      <point x="305" y="717" type="curve" smooth="yes"/>
      <point x="233" y="717"/>
      <point x="161" y="629"/>
      <point x="161" y="596" type="curve" smooth="yes"/>
      <point x="161" y="571"/>
      <point x="189" y="570"/>
      <point x="227" y="570" type="curve" smooth="yes"/>
      <point x="278" y="570"/>
      <point x="327" y="572"/>
      <point x="374" y="572" type="curve" smooth="yes"/>
      <point x="388" y="572"/>
      <point x="436" y="572"/>
      <point x="493" y="571" type="curve"/>
      <point x="498" y="576" type="line"/>
      <point x="510" y="633" type="line"/>
      <point x="484" y="634"/>
      <point x="444" y="637"/>
      <point x="413" y="637" type="curve" smooth="yes"/>
      <point x="374" y="637"/>
      <point x="326" y="635"/>
      <point x="240" y="634" type="curve"/>
      <point x="224" y="588"/>
      <point x="208" y="545"/>
      <point x="208" y="487" type="curve" smooth="yes"/>
      <point x="208" y="363"/>
      <point x="261" y="301"/>
    </contour>
  </outline>
  <guideline angle="90" x="380" y="0"/>
</glyph>
